SplineFontDB: 3.2
FontName: GrapheAlpha
FullName: Graphe  Alpha
FamilyName: Graphe
Weight: Book
Copyright: Heracles Papatheodorou
Version: 2
ItalicAngle: 0
UnderlinePosition: -307
UnderlineWidth: 102
Ascent: 1638
Descent: 410
InvalidEm: 0
sfntRevision: 0x00030000
LayerCount: 2
Layer: 0 1 "Arri+AOgA-re" 1
Layer: 1 1 "Avant" 0
XUID: [1021 489 1955146330 5161927]
StyleMap: 0x0040
FSType: 4
OS2Version: 3
OS2_WeightWidthSlopeOnly: 0
OS2_UseTypoMetrics: 0
CreationTime: 1405852525
ModificationTime: 1654285121
PfmFamily: 17
TTFWeight: 400
TTFWidth: 5
LineGap: 0
VLineGap: 0
Panose: 2 0 6 3 0 0 0 0 0 0
OS2TypoAscent: 1638
OS2TypoAOffset: 0
OS2TypoDescent: -410
OS2TypoDOffset: 0
OS2TypoLinegap: 0
OS2WinAscent: 3081
OS2WinAOffset: 0
OS2WinDescent: 608
OS2WinDOffset: 0
HheadAscent: 3081
HheadAOffset: 0
HheadDescent: -608
HheadDOffset: 0
OS2SubXSize: 1331
OS2SubYSize: 1432
OS2SubXOff: 0
OS2SubYOff: 287
OS2SupXSize: 1331
OS2SupYSize: 1432
OS2SupXOff: 0
OS2SupYOff: 981
OS2StrikeYSize: 100
OS2StrikeYPos: 528
OS2CapHeight: 2263
OS2XHeight: 1287
OS2Vendor: 'PfEd'
OS2CodePages: 00000009.00000000
OS2UnicodeRanges: 800000ab.1000c0e2.00000000.00000000
Lookup: 258 0 0 "'kern' Horizontal Kerning in Latin lookup 0" { "'kern' Horizontal Kerning in Latin lookup 0 subtable"  } ['kern' ('latn' <'dflt' > ) ]
DEI: 91125
TtTable: prep
SVTCA[y-axis]
MPPEM
PUSHW_1
 200
GT
IF
PUSHB_2
 1
 1
INSTCTRL
EIF
PUSHB_1
 1
PUSHW_2
 2048
 2048
MUL
WCVTF
PUSHB_2
 0
 5
WS
PUSHB_4
 46
 26
 2
 0
LOOPCALL
PUSHB_2
 0
 5
WS
PUSHB_6
 33
 8
 13
 8
 2
 8
LOOPCALL
PUSHB_2
 0
 5
WS
PUSHB_6
 43
 6
 23
 6
 2
 8
LOOPCALL
PUSHB_2
 0
 7
WS
PUSHW_4
 2176
 896
 2
 9
LOOPCALL
PUSHB_2
 0
 9
WS
PUSHW_4
 64
 64
 2
 9
LOOPCALL
PUSHB_2
 3
 0
WCVTP
PUSHB_2
 36
 1
GETINFO
LTEQ
IF
PUSHB_1
 64
GETINFO
IF
PUSHB_2
 3
 100
WCVTP
PUSHB_2
 38
 1
GETINFO
LTEQ
IF
PUSHW_3
 2176
 1
 1088
GETINFO
MUL
EQ
IF
PUSHB_2
 3
 0
WCVTP
EIF
EIF
EIF
EIF
PUSHB_6
 35
 8
 15
 8
 2
 12
LOOPCALL
PUSHW_1
 511
SCANCTRL
PUSHB_1
 4
SCANTYPE
PUSHB_2
 2
 0
WCVTP

StartChar: .notdef
Encoding: 65536 -1 0
Width: 1490
Flags: W
LayerCount: 2
Fore
SplineSet
136 0 m 1,0,-1
 136 2728 l 1,1,-1
 1220 2728 l 1,2,-1
 1220 0 l 1,3,-1
 136 0 l 1,0,-1
270 136 m 1,4,-1
 1086 136 l 1,5,-1
 1086 2592 l 1,6,-1
 270 2592 l 1,7,-1
 270 136 l 1,4,-1
EndSplineSet
EndChar

StartChar: exclam
Encoding: 33 33 5
Width: 802
GlyphClass: 2
Flags: W
LayerCount: 2
Fore
SplineSet
140 582 m 0,0,1
 164 628 164 628 201 640 c 128,-1,2
 238 652 238 652 266 632 c 128,-1,3
 294 612 294 612 294 566 c 0,4,5
 294 500 294 500 245 473 c 128,-1,6
 196 446 196 446 148 488 c 0,7,8
 108 520 108 520 140 582 c 0,0,1
200 868 m 1,9,10
 204 914 204 914 226 984 c 0,11,12
 230 1004 230 1004 281 1256 c 128,-1,13
 332 1508 332 1508 395 1801 c 128,-1,14
 458 2094 458 2094 504 2224 c 0,15,16
 532 2302 532 2302 571 2310 c 128,-1,17
 610 2318 610 2318 664 2294 c 1,18,19
 680 2294 680 2294 680 2263 c 128,-1,20
 680 2232 680 2232 666 2189 c 128,-1,21
 652 2146 652 2146 630 2114 c 0,22,23
 594 2056 594 2056 494 1649 c 128,-1,24
 394 1242 394 1242 364 1028 c 1,25,26
 344 848 344 848 290 820 c 0,27,28
 200 766 200 766 200 868 c 1,9,10
EndSplineSet
EndChar

StartChar: quotedbl
Encoding: 34 34 6
Width: 900
GlyphClass: 2
Flags: W
LayerCount: 2
Fore
SplineSet
132 1700 m 0,0,1
 106 1724 106 1724 254 2208 c 0,2,3
 304 2368 304 2368 336 2401 c 128,-1,4
 368 2434 368 2434 438 2388 c 0,5,6
 466 2368 466 2368 466 2343 c 128,-1,7
 466 2318 466 2318 438 2252 c 0,8,9
 430 2236 430 2236 401 2150 c 128,-1,10
 372 2064 372 2064 342 1982 c 128,-1,11
 312 1900 312 1900 273 1818 c 128,-1,12
 234 1736 234 1736 197 1702 c 128,-1,13
 160 1668 160 1668 132 1700 c 0,0,1
484 1704 m 0,14,15
 468 1754 468 1754 504 1919 c 128,-1,16
 540 2084 540 2084 598 2232 c 1,17,18
 668 2396 668 2396 734 2388 c 0,19,20
 762 2384 762 2384 778 2338 c 0,21,22
 794 2284 794 2284 730 2170 c 0,23,24
 660 2048 660 2048 622 1856 c 0,25,26
 576 1634 576 1634 520 1654 c 0,27,28
 500 1662 500 1662 484 1704 c 0,14,15
EndSplineSet
EndChar

StartChar: numbersign
Encoding: 35 35 7
Width: 1674
GlyphClass: 2
Flags: W
LayerCount: 2
Fore
SplineSet
122 1036 m 0,0,1
 122 1076 122 1076 239 1128 c 128,-1,2
 356 1180 356 1180 442 1180 c 0,3,4
 500 1180 500 1180 520 1198 c 128,-1,5
 540 1216 540 1216 552 1278 c 0,6,7
 572 1392 572 1392 534 1403 c 128,-1,8
 496 1414 496 1414 368 1376 c 1,9,10
 262 1356 262 1356 225 1358 c 128,-1,11
 188 1360 188 1360 160 1388 c 0,12,13
 124 1424 124 1424 128 1441 c 128,-1,14
 132 1458 132 1458 184 1504 c 0,15,16
 254 1562 254 1562 426 1560 c 0,17,18
 570 1560 570 1560 611 1599 c 128,-1,19
 652 1638 652 1638 696 1810 c 0,20,21
 716 1896 716 1896 751 1956 c 128,-1,22
 786 2016 786 2016 823 2028 c 128,-1,23
 860 2040 860 2040 892 2012 c 1,24,25
 916 2008 916 2008 888 1907 c 128,-1,26
 860 1806 860 1806 823 1708 c 128,-1,27
 786 1610 786 1610 790 1606 c 1,28,29
 790 1586 790 1586 892 1602 c 0,30,31
 962 1610 962 1610 985 1641 c 128,-1,32
 1008 1672 1008 1672 1048 1814 c 0,33,34
 1102 2022 1102 2022 1160 2060 c 0,35,36
 1262 2134 1262 2134 1307 2079 c 128,-1,37
 1352 2024 1352 2024 1274 1922 c 0,38,39
 1204 1828 1204 1828 1164 1602 c 1,40,41
 1176 1598 1176 1598 1295 1585 c 128,-1,42
 1414 1572 1414 1572 1483 1556 c 128,-1,43
 1552 1540 1552 1540 1552 1512 c 0,44,45
 1552 1466 1552 1466 1344 1466 c 0,46,47
 1222 1466 1222 1466 1174 1454 c 128,-1,48
 1126 1442 1126 1442 1106 1404 c 0,49,50
 1056 1310 1056 1310 1087 1278 c 128,-1,51
 1118 1246 1118 1246 1282 1228 c 0,52,53
 1536 1200 1536 1200 1516 1156 c 0,54,55
 1512 1148 1512 1148 1500 1138 c 1,56,57
 1480 1130 1480 1130 1282 1114 c 1,58,59
 1094 1106 1094 1106 1051 1069 c 128,-1,60
 1008 1032 1008 1032 1016 884 c 0,61,62
 1028 712 1028 712 974 720 c 0,63,64
 916 728 916 728 872 860 c 0,65,66
 852 926 852 926 852 984 c 0,67,68
 852 1066 852 1066 827 1078 c 128,-1,69
 802 1090 802 1090 712 1052 c 0,70,71
 658 1032 658 1032 640 997 c 128,-1,72
 622 962 622 962 622 856 c 0,73,74
 622 696 622 696 570 688 c 0,75,76
 520 680 520 680 504 816 c 0,77,78
 504 828 504 828 504 840 c 0,79,80
 492 976 492 976 462 1012 c 0,81,82
 442 1032 442 1032 320 1004 c 1,83,84
 124 950 124 950 122 1036 c 0,0,1
700 1243 m 128,-1,86
 712 1212 712 1212 770 1212 c 0,87,88
 884 1212 884 1212 926 1364 c 0,89,90
 942 1430 942 1430 922 1442 c 128,-1,91
 902 1454 902 1454 820 1442 c 0,92,93
 730 1430 730 1430 712 1364 c 0,94,85
 688 1274 688 1274 700 1243 c 128,-1,86
EndSplineSet
EndChar

StartChar: dollar
Encoding: 36 36 8
Width: 1548
GlyphClass: 2
Flags: W
LayerCount: 2
Fore
SplineSet
122 1052 m 0,0,1
 122 1118 122 1118 188 1134 c 0,2,3
 254 1154 254 1154 372 1024 c 0,4,5
 486 898 486 898 524 898 c 0,6,7
 552 898 552 898 575 996 c 128,-1,8
 598 1094 598 1094 598 1232 c 0,9,10
 598 1334 598 1334 584 1353 c 128,-1,11
 570 1372 570 1372 484 1388 c 0,12,13
 336 1412 336 1412 266 1458 c 128,-1,14
 196 1504 196 1504 192 1586 c 1,15,16
 160 1676 160 1676 297 1756 c 128,-1,17
 434 1836 434 1836 562 1868 c 0,18,19
 632 1888 632 1888 650 1917 c 128,-1,20
 668 1946 668 1946 684 2068 c 0,21,22
 708 2264 708 2264 708 2310 c 0,23,24
 708 2424 708 2424 836 2412 c 0,25,26
 890 2404 890 2404 896 2339 c 128,-1,27
 902 2274 902 2274 868 2048 c 0,28,29
 848 1926 848 1926 856 1903 c 128,-1,30
 864 1880 864 1880 922 1880 c 0,31,32
 1012 1880 1012 1880 1077 1821 c 128,-1,33
 1142 1762 1142 1762 1126 1696 c 0,34,35
 1114 1660 1114 1660 1071 1639 c 128,-1,36
 1028 1618 1028 1618 989 1626 c 128,-1,37
 950 1634 950 1634 950 1671 c 128,-1,38
 950 1708 950 1708 907 1728 c 128,-1,39
 864 1748 864 1748 840 1728 c 1,40,41
 824 1704 824 1704 824 1606 c 0,42,43
 824 1532 824 1532 852 1509 c 128,-1,44
 880 1486 880 1486 1036 1438 c 0,45,46
 1298 1360 1298 1360 1386 1231 c 128,-1,47
 1474 1102 1474 1102 1364 970 c 0,48,49
 1298 892 1298 892 1159 827 c 128,-1,50
 1020 762 1020 762 888 746 c 0,51,52
 774 734 774 734 749 711 c 128,-1,53
 724 688 724 688 696 574 c 0,54,55
 646 386 646 386 562 368 c 0,56,57
 504 356 504 356 488 438 c 0,58,59
 476 500 476 500 496 590 c 0,60,61
 520 704 520 704 510 737 c 128,-1,62
 500 770 500 770 434 770 c 0,63,64
 376 770 376 770 249 885 c 128,-1,65
 122 1000 122 1000 122 1052 c 0,0,1
390 1654 m 0,66,67
 370 1618 370 1618 427 1575 c 128,-1,68
 484 1532 484 1532 558 1532 c 0,69,70
 608 1532 608 1532 619 1552 c 128,-1,71
 630 1572 630 1572 630 1642 c 0,72,73
 630 1756 630 1756 594 1748 c 1,74,75
 540 1744 540 1744 473 1714 c 128,-1,76
 406 1684 406 1684 390 1654 c 0,66,67
762 883 m 128,-1,78
 770 864 770 864 828 864 c 0,79,80
 910 864 910 864 1018 901 c 128,-1,81
 1126 938 1126 938 1180 984 c 0,82,83
 1250 1042 1250 1042 1227 1121 c 128,-1,84
 1204 1200 1204 1200 1106 1250 c 0,85,86
 992 1308 992 1308 892 1328 c 0,87,88
 814 1344 814 1344 802 1329 c 128,-1,89
 790 1314 790 1314 790 1224 c 0,90,91
 790 1146 790 1146 770 984 c 1,92,77
 754 902 754 902 762 883 c 128,-1,78
EndSplineSet
EndChar

StartChar: percent
Encoding: 37 37 9
Width: 1768
GlyphClass: 2
Flags: W
LayerCount: 2
Fore
SplineSet
147 1473 m 128,-1,1
 94 1586 94 1586 156 1732 c 0,2,3
 176 1786 176 1786 305 1854 c 128,-1,4
 434 1922 434 1922 571 1938 c 128,-1,5
 708 1954 708 1954 802 1864 c 1,6,7
 884 1772 884 1772 884 1740 c 0,8,9
 884 1638 884 1638 688 1505 c 128,-1,10
 492 1372 492 1372 332 1364 c 0,11,0
 200 1360 200 1360 147 1473 c 128,-1,1
308 1520 m 1,12,-1
 438 1540 l 1,13,14
 626 1564 626 1564 680 1668 c 0,15,16
 720 1746 720 1746 610 1786 c 1,17,18
 528 1810 528 1810 506 1808 c 128,-1,19
 484 1806 484 1806 406 1774 c 0,20,21
 390 1766 390 1766 375 1755 c 128,-1,22
 360 1744 360 1744 350 1726 c 128,-1,23
 340 1708 340 1708 334 1694 c 128,-1,24
 328 1680 328 1680 324 1653 c 128,-1,25
 320 1626 320 1626 318 1612 c 128,-1,26
 316 1598 316 1598 312 1565 c 128,-1,27
 308 1532 308 1532 308 1520 c 1,12,-1
312 516 m 0,28,29
 128 516 128 516 394 770 c 0,30,31
 492 860 492 860 912 1462 c 128,-1,32
 1332 2064 1332 2064 1404 2142 c 0,33,34
 1544 2286 1544 2286 1618 2256 c 0,35,36
 1646 2248 1646 2248 1646 2208 c 0,37,38
 1646 2150 1646 2150 1512 2024 c 0,39,40
 1386 1906 1386 1906 1070 1434 c 0,41,42
 804 1036 804 1036 588 776 c 128,-1,43
 372 516 372 516 312 516 c 0,28,29
942 947 m 128,-1,45
 950 1098 950 1098 1064 1216 c 0,46,47
 1114 1270 1114 1270 1153 1282 c 128,-1,48
 1192 1294 1192 1294 1290 1282 c 0,49,50
 1610 1250 1610 1250 1641 1088 c 128,-1,51
 1672 926 1672 926 1388 786 c 0,52,53
 1252 716 1252 716 1181 708 c 128,-1,54
 1110 700 1110 700 1040 742 c 1,55,44
 934 796 934 796 942 947 c 128,-1,45
1122 898 m 1,56,57
 1162 832 1162 832 1308 889 c 128,-1,58
 1454 946 1454 946 1454 1024 c 0,59,60
 1454 1082 1454 1082 1392 1118 c 0,61,62
 1224 1212 1224 1212 1150 1036 c 1,63,64
 1110 926 1110 926 1122 898 c 1,56,57
EndSplineSet
EndChar

StartChar: ampersand
Encoding: 38 38 10
Width: 2157
GlyphClass: 2
Flags: W
LayerCount: 2
Fore
SplineSet
122 1078 m 1,0,1
 130 1296 130 1296 364 1422 c 1,2,3
 478 1488 478 1488 462 1532 c 0,4,5
 340 1810 340 1810 668 2024 c 1,6,7
 774 2098 774 2098 1012 2098 c 1,8,9
 1126 2091 1126 2091 1175 2078 c 128,-1,10
 1224 2065 1224 2065 1290 2032 c 1,11,12
 1368 1922 1368 1922 1329 1872 c 128,-1,13
 1290 1822 1290 1822 1176 1884 c 0,14,15
 1044 1954 1044 1954 848 1899 c 128,-1,16
 652 1844 652 1844 622 1728 c 1,17,18
 611 1565 611 1565 668 1520 c 128,-1,19
 725 1475 725 1475 878 1537 c 0,20,21
 1002 1583 1002 1583 1108 1537 c 1,22,23
 1123 1399 1123 1399 989 1364 c 1,24,25
 895 1348 895 1348 754 1340 c 1,26,27
 602 1340 602 1340 487 1286 c 128,-1,28
 372 1232 372 1232 328 1138 c 0,29,30
 300 1080 300 1080 302 1050 c 128,-1,31
 304 1020 304 1020 344 966 c 0,32,33
 466 802 466 802 802 807 c 128,-1,34
 1138 812 1138 812 1458 984 c 0,35,36
 1528 1020 1528 1020 1579 1057.5 c 128,-1,37
 1630 1095 1630 1095 1626 1221 c 1,38,39
 1597 1381 1597 1381 1609 1470.5 c 128,-1,40
 1621 1560 1621 1560 1736 1560 c 0,41,42
 1844 1557 1844 1557 1782 1129 c 1,43,44
 1766 1067 1766 1067 1807 990.5 c 128,-1,45
 1848 914 1848 914 1916 852 c 1,46,47
 2052 746 2052 746 2064 734 c 0,48,49
 2110 702 2110 702 2072 664 c 0,50,51
 2032 624 2032 624 1903 674 c 128,-1,52
 1774 724 1774 724 1704 806 c 2,53,-1
 1622 906 l 1,54,-1
 1486 840 l 2,55,56
 778 492 778 492 320 742 c 1,57,58
 120 856 120 856 122 1078 c 1,0,1
EndSplineSet
EndChar

StartChar: quotesingle
Encoding: 39 39 11
Width: 524
GlyphClass: 2
Flags: W
LayerCount: 2
Fore
SplineSet
122 1671 m 128,-1,1
 114 1684 114 1684 132 1728 c 0,2,3
 144 1760 144 1760 197 1994 c 128,-1,4
 250 2228 250 2228 258 2252 c 0,5,6
 274 2294 274 2294 340 2294 c 0,7,8
 372 2294 372 2294 387 2280 c 128,-1,9
 402 2266 402 2266 402 2227 c 128,-1,10
 402 2188 402 2188 385 2124 c 128,-1,11
 368 2060 368 2060 336 1954 c 0,12,13
 320 1908 320 1908 301 1845 c 128,-1,14
 282 1782 282 1782 272 1745 c 128,-1,15
 262 1708 262 1708 258 1700 c 0,16,17
 242 1660 242 1660 176 1658 c 0,18,0
 130 1658 130 1658 122 1671 c 128,-1,1
EndSplineSet
EndChar

StartChar: parenleft
Encoding: 40 40 12
Width: 928
GlyphClass: 2
Flags: W
LayerCount: 2
Fore
SplineSet
242 254 m 0,0,1
 -4 754 -4 754 278 1658 c 0,2,3
 380 1982 380 1982 440 2113 c 128,-1,4
 500 2244 500 2244 590 2334 c 0,5,6
 734 2470 734 2470 790 2368 c 1,7,8
 856 2258 856 2258 692 2146 c 0,9,10
 560 2056 560 2056 438 1667 c 128,-1,11
 316 1278 316 1278 312 930 c 0,12,13
 308 668 308 668 357 518 c 128,-1,14
 406 368 406 368 520 278 c 0,15,16
 602 212 602 212 600 139 c 128,-1,17
 598 66 598 66 508 12 c 0,18,19
 442 -28 442 -28 387 21 c 128,-1,20
 332 70 332 70 242 254 c 0,0,1
EndSplineSet
EndChar

StartChar: parenright
Encoding: 41 41 13
Width: 896
GlyphClass: 2
Flags: W
LayerCount: 2
Fore
SplineSet
122 106 m 1,0,1
 126 184 126 184 234 250 c 0,2,3
 390 352 390 352 478 639 c 128,-1,4
 566 926 566 926 570 1340 c 0,5,6
 570 1598 570 1598 537 1760 c 128,-1,7
 504 1922 504 1922 414 2102 c 0,8,9
 364 2196 364 2196 362 2224 c 128,-1,10
 360 2252 360 2252 402 2294 c 0,11,12
 456 2352 456 2352 496 2352 c 128,-1,13
 536 2352 536 2352 594 2286 c 0,14,15
 708 2164 708 2164 751 1870 c 128,-1,16
 794 1576 794 1576 758 1188 c 0,17,18
 704 598 704 598 472 278 c 1,19,20
 336 98 336 98 301 67 c 128,-1,21
 266 36 266 36 204 36 c 0,22,23
 114 36 114 36 122 106 c 1,0,1
EndSplineSet
EndChar

StartChar: asterisk
Encoding: 42 42 14
Width: 1212
GlyphClass: 2
Flags: W
LayerCount: 2
Fore
SplineSet
140 1536 m 1,0,1
 176 1590 176 1590 274 1646 c 1,2,3
 382 1691 382 1691 444 1767 c 1,4,5
 360 1862 360 1862 260 2038 c 1,6,7
 236 2105 236 2105 294 2102 c 0,8,9
 322 2102 322 2102 395.5 1980.5 c 128,-1,10
 469 1859 469 1859 495 1869 c 1,11,12
 511 1865 511 1865 540.5 1987.5 c 128,-1,13
 570 2110 570 2110 596 2204 c 128,-1,14
 622 2298 622 2298 626 2318 c 0,15,16
 630 2326 630 2326 675 2324 c 128,-1,17
 720 2322 720 2322 738 2306 c 1,18,19
 750 2302 750 2302 711 2191 c 128,-1,20
 672 2080 672 2080 637 1970 c 128,-1,21
 602 1860 602 1860 610 1856 c 0,22,23
 626 1840 626 1840 840 1970 c 1,24,25
 1040 2102 1040 2102 1082 2076 c 0,26,27
 1118 2052 1118 2052 962 1946 c 0,28,29
 930 1926 930 1926 888 1900 c 0,30,31
 830 1868 830 1868 777 1827 c 128,-1,32
 724 1786 724 1786 663.5 1760 c 128,-1,33
 603 1734 603 1734 603 1726 c 1,34,35
 586 1711 586 1711 756 1588 c 0,36,37
 886 1490 886 1490 828 1462 c 1,38,39
 788 1422 788 1422 668 1540 c 1,40,41
 576 1645 576 1645 546 1629 c 1,42,43
 526 1601 526 1601 484 1430 c 1,44,45
 472 1320 472 1320 449 1274 c 128,-1,46
 426 1228 426 1228 410 1273 c 128,-1,47
 394 1318 394 1318 398 1434 c 1,48,49
 439 1605 439 1605 409 1609 c 1,50,51
 340 1563 340 1563 180 1466 c 1,52,53
 86 1466 86 1466 140 1536 c 1,0,1
EndSplineSet
EndChar

StartChar: plus
Encoding: 43 43 15
Width: 1592
GlyphClass: 2
Flags: W
LayerCount: 2
Fore
SplineSet
122 1376 m 0,0,1
 122 1392 122 1392 132 1410 c 0,2,3
 160 1472 160 1472 215 1479 c 128,-1,4
 270 1486 270 1486 364 1462 c 128,-1,5
 458 1438 458 1438 512 1438 c 0,6,7
 626 1438 626 1438 655 1489 c 128,-1,8
 684 1540 684 1540 684 1758 c 0,9,10
 684 1890 684 1890 707 1946 c 128,-1,11
 730 2002 730 2002 812 1998 c 1,12,13
 824 2002 824 2002 834 1980 c 128,-1,14
 844 1958 844 1958 850 1917 c 128,-1,15
 856 1876 856 1876 862 1825 c 128,-1,16
 868 1774 868 1774 870 1714 c 128,-1,17
 872 1654 872 1654 874 1603 c 128,-1,18
 876 1552 876 1552 876 1505 c 128,-1,19
 876 1458 876 1458 880 1434 c 1,20,21
 1330 1458 1330 1458 1418 1430 c 0,22,23
 1472 1410 1472 1410 1475 1395 c 128,-1,24
 1478 1380 1478 1380 1438 1348 c 0,25,26
 1398 1312 1398 1312 1336 1303 c 128,-1,27
 1274 1294 1274 1294 1174 1304 c 128,-1,28
 1074 1314 1074 1314 1020 1314 c 2,29,-1
 860 1324 l 1,30,31
 770 906 770 906 766 888 c 0,32,33
 754 814 754 814 735 788 c 128,-1,34
 716 762 716 762 668 750 c 0,35,36
 578 726 578 726 556 770 c 128,-1,37
 534 814 534 814 574 946 c 0,38,39
 632 1158 632 1158 622 1314 c 1,40,-1
 422 1294 l 2,41,42
 118 1266 118 1266 122 1376 c 0,0,1
EndSplineSet
EndChar

StartChar: comma
Encoding: 44 44 16
Width: 626
GlyphClass: 2
Flags: W
LayerCount: 2
Fore
SplineSet
126 106 m 1,0,1
 98 130 98 130 188 246 c 0,2,3
 278 364 278 364 320 492 c 1,4,5
 352 610 352 610 418 610 c 0,6,7
 554 610 554 610 480 450 c 0,8,9
 430 348 430 348 308 222 c 0,10,11
 168 78 168 78 126 106 c 1,0,1
EndSplineSet
EndChar

StartChar: hyphen
Encoding: 45 45 17
Width: 1240
GlyphClass: 2
Flags: W
LayerCount: 2
Fore
SplineSet
123 1015 m 128,-1,1
 122 1030 122 1030 160 1058 c 0,2,3
 214 1094 214 1094 364 1066 c 0,4,5
 536 1034 536 1034 820 1046 c 0,6,7
 1004 1050 1004 1050 1061 1044 c 128,-1,8
 1118 1038 1118 1038 1118 1009 c 128,-1,9
 1118 980 1118 980 1059 972 c 128,-1,10
 1000 964 1000 964 802 960 c 1,11,12
 494 960 494 960 340 936 c 0,13,14
 250 920 250 920 215 926 c 128,-1,15
 180 932 180 932 152 964 c 0,16,0
 124 1000 124 1000 123 1015 c 128,-1,1
EndSplineSet
EndChar

StartChar: period
Encoding: 46 46 18
Width: 512
GlyphClass: 2
Flags: W
LayerCount: 2
Fore
SplineSet
140 466 m 0,0,1
 102 512 102 512 184 594 c 0,2,3
 234 644 234 644 260 654 c 128,-1,4
 286 664 286 664 328 644 c 0,5,6
 442 578 442 578 328 476 c 0,7,8
 210 374 210 374 140 466 c 0,0,1
EndSplineSet
EndChar

StartChar: slash
Encoding: 47 47 19
Width: 1244
GlyphClass: 2
Flags: W
LayerCount: 2
Fore
SplineSet
122 567 m 128,-1,1
 126 622 126 622 180 700 c 0,2,3
 254 806 254 806 471 1214 c 128,-1,4
 688 1622 688 1622 836 1922 c 1,5,6
 1012 2294 1012 2294 1082 2294 c 0,7,8
 1102 2294 1102 2294 1122 2260 c 1,9,10
 1110 2182 1110 2182 967 1929 c 128,-1,11
 824 1676 824 1676 812 1642 c 0,12,13
 796 1602 796 1602 672 1372 c 128,-1,14
 548 1142 548 1142 446 929 c 128,-1,15
 344 716 344 716 344 643 c 128,-1,16
 344 570 344 570 285 521 c 128,-1,17
 226 472 226 472 164 496 c 0,18,0
 118 512 118 512 122 567 c 128,-1,1
EndSplineSet
EndChar

StartChar: zero
Encoding: 48 48 20
Width: 1338
GlyphClass: 2
Flags: W
LayerCount: 2
Fore
SplineSet
122 1052 m 0,0,1
 126 1518 126 1518 246 1700 c 0,2,3
 304 1786 304 1786 360 1728 c 0,4,5
 396 1692 396 1692 344 1496 c 0,6,7
 286 1278 286 1278 286 1059 c 128,-1,8
 286 840 286 840 344 746 c 0,9,10
 402 644 402 644 473 646 c 128,-1,11
 544 648 544 648 664 750 c 0,12,13
 816 882 816 882 953 1178 c 128,-1,14
 1090 1474 1090 1474 1090 1672 c 0,15,16
 1090 1950 1090 1950 914 2126 c 0,17,18
 770 2270 770 2270 659 2212 c 128,-1,19
 548 2154 548 2154 548 1938 c 0,20,21
 548 1786 548 1786 524 1786 c 0,22,23
 422 1786 422 1786 422 1998 c 0,24,25
 422 2088 422 2088 444 2138 c 128,-1,26
 466 2188 466 2188 544 2266 c 0,27,28
 650 2372 650 2372 739 2384 c 128,-1,29
 828 2396 828 2396 950 2318 c 0,30,31
 1052 2252 1052 2252 1134 2095 c 128,-1,32
 1216 1938 1216 1938 1216 1794 c 0,33,34
 1216 1500 1216 1500 1073 1170 c 128,-1,35
 930 840 930 840 712 630 c 0,36,37
 516 446 516 446 399 444 c 128,-1,38
 282 442 282 442 188 622 c 1,39,40
 142 700 142 700 130 780 c 128,-1,41
 118 860 118 860 122 1052 c 0,0,1
EndSplineSet
EndChar

StartChar: one
Encoding: 49 49 21
Width: 884
GlyphClass: 2
Flags: W
LayerCount: 2
Fore
SplineSet
125 550 m 128,-1,1
 128 572 128 572 160 638 c 1,2,3
 206 720 206 720 220 780 c 128,-1,4
 234 840 234 840 252 946 c 128,-1,5
 270 1052 270 1052 308 1180 c 0,6,7
 332 1266 332 1266 442 1704 c 1,8,9
 434 1692 434 1692 401 1643 c 128,-1,10
 368 1594 368 1594 346 1567 c 128,-1,11
 324 1540 324 1540 289 1518 c 128,-1,12
 254 1496 254 1496 218 1504 c 0,13,14
 168 1516 168 1516 150 1536 c 128,-1,15
 132 1556 132 1556 126 1618 c 0,16,17
 114 1716 114 1716 180 1736 c 0,18,19
 242 1756 242 1756 369 1908 c 128,-1,20
 496 2060 496 2060 540 2174 c 0,21,22
 576 2264 576 2264 634 2287 c 128,-1,23
 692 2310 692 2310 746 2256 c 0,24,25
 782 2220 782 2220 720 2040 c 0,26,27
 650 1840 650 1840 526 1342 c 128,-1,28
 402 844 402 844 386 704 c 0,29,30
 366 540 366 540 286 492 c 0,31,32
 232 456 232 456 214 455 c 128,-1,33
 196 454 196 454 159 491 c 128,-1,0
 122 528 122 528 125 550 c 128,-1,1
EndSplineSet
EndChar

StartChar: two
Encoding: 50 50 22
Width: 1470
GlyphClass: 2
Flags: W
LayerCount: 2
Fore
SplineSet
-27 263 m 128,-1,1
 -86 320 -86 320 40 520 c 1,2,3
 146 680 146 680 442 1065 c 128,-1,4
 738 1450 738 1450 828 1576 c 0,5,6
 1098 1948 1098 1948 1102 2016 c 0,7,8
 1106 2062 1106 2062 1036 2064 c 0,9,10
 1012 2068 1012 2068 966 2068 c 0,11,12
 790 2068 790 2068 665 1927 c 128,-1,13
 540 1786 540 1786 582 1642 c 0,14,15
 610 1544 610 1544 556 1508 c 0,16,17
 458 1434 458 1434 391 1485 c 128,-1,18
 324 1536 324 1536 324 1680 c 0,19,20
 324 1770 324 1770 348 1819 c 128,-1,21
 372 1868 372 1868 458 1962 c 0,22,23
 662 2180 662 2180 880 2232 c 0,24,25
 966 2252 966 2252 1095 2240 c 128,-1,26
 1224 2228 1224 2228 1266 2192 c 0,27,28
 1306 2160 1306 2160 1304 2079 c 128,-1,29
 1302 1998 1302 1998 1258 1908 c 0,30,31
 1152 1696 1152 1696 626 1052 c 0,32,33
 454 844 454 844 340 676 c 128,-1,34
 226 508 226 508 242 488 c 0,35,36
 258 472 258 472 360 524 c 0,37,38
 470 578 470 578 729 660 c 128,-1,39
 988 742 988 742 1130 770 c 0,40,41
 1232 790 1232 790 1265 786 c 128,-1,42
 1298 782 1298 782 1328 746 c 1,43,44
 1368 688 1368 688 1327 653 c 128,-1,45
 1286 618 1286 618 1156 598 c 0,46,47
 976 574 976 574 687 486 c 128,-1,48
 398 398 398 398 250 320 c 0,49,0
 32 206 32 206 -27 263 c 128,-1,1
EndSplineSet
EndChar

StartChar: three
Encoding: 51 51 23
Width: 1491
GlyphClass: 2
Flags: W
LayerCount: 2
Fore
SplineSet
-73 348 m 0,0,1
 -81 368 -81 368 -73 402 c 0,2,3
 -65 452 -65 452 -17 480 c 128,-1,4
 31 508 31 508 161 544 c 0,5,6
 353 594 353 594 700 838 c 128,-1,7
 1047 1082 1047 1082 1149 1236 c 0,8,9
 1185 1290 1185 1290 1183 1311 c 128,-1,10
 1181 1332 1181 1332 1133 1380 c 0,11,12
 1087 1430 1087 1430 1022 1440 c 128,-1,13
 957 1450 957 1450 727 1450 c 0,14,15
 391 1450 391 1450 359 1504 c 0,16,17
 331 1554 331 1554 347 1606 c 128,-1,18
 363 1658 363 1658 419 1680 c 0,19,20
 501 1712 501 1712 767 1894 c 128,-1,21
 1033 2076 1033 2076 1033 2102 c 0,22,23
 1033 2134 1033 2134 964 2134 c 128,-1,24
 895 2134 895 2134 710 2064 c 128,-1,25
 525 1994 525 1994 525 1970 c 0,26,27
 525 1942 525 1942 415 1942 c 0,28,29
 345 1942 345 1942 319 1960 c 128,-1,30
 293 1978 293 1978 273 2040 c 0,31,32
 241 2146 241 2146 281 2196 c 0,33,34
 327 2258 327 2258 363 2270 c 128,-1,35
 399 2282 399 2282 531 2290 c 0,36,37
 629 2294 629 2294 690 2304 c 128,-1,38
 751 2314 751 2314 782 2318 c 128,-1,39
 813 2322 813 2322 981 2318 c 0,40,41
 1231 2310 1231 2310 1275 2248 c 0,42,43
 1303 2212 1303 2212 1302 2183 c 128,-1,44
 1301 2154 1301 2154 1263 2098 c 0,45,46
 1161 1930 1161 1930 879 1786 c 0,47,48
 635 1658 635 1658 865 1658 c 0,49,50
 1155 1658 1155 1658 1301 1504 c 0,51,52
 1363 1438 1363 1438 1370 1407 c 128,-1,53
 1377 1376 1377 1376 1349 1294 c 0,54,55
 1291 1114 1291 1114 917 817 c 128,-1,56
 543 520 543 520 195 380 c 0,57,58
 -55 278 -55 278 -73 348 c 0,0,1
EndSplineSet
EndChar

StartChar: four
Encoding: 52 52 24
Width: 1588
GlyphClass: 2
Flags: W
LayerCount: 2
Fore
SplineSet
128 1251 m 128,-1,1
 140 1336 140 1336 180 1392 c 0,2,3
 216 1442 216 1442 335 1659 c 128,-1,4
 454 1876 454 1876 492 1930 c 0,5,6
 512 1958 512 1958 596 2109 c 128,-1,7
 680 2260 680 2260 752 2340 c 128,-1,8
 824 2420 824 2420 884 2400 c 0,9,10
 950 2376 950 2376 928 2302 c 128,-1,11
 906 2228 906 2228 774 2052 c 0,12,13
 642 1880 642 1880 497 1612 c 128,-1,14
 352 1344 352 1344 372 1318 c 1,15,16
 442 1310 442 1310 922 1482 c 1,17,18
 1024 1794 1024 1794 1094 1958 c 0,19,20
 1106 1990 1106 1990 1151 2152 c 128,-1,21
 1196 2314 1196 2314 1251 2400 c 128,-1,22
 1306 2486 1306 2486 1396 2494 c 1,23,24
 1446 2478 1446 2478 1462 2417 c 128,-1,25
 1478 2356 1478 2356 1450 2302 c 0,26,27
 1404 2224 1404 2224 1290 1927 c 128,-1,28
 1176 1630 1176 1630 1208 1572 c 1,29,30
 1224 1474 1224 1474 1130 1384 c 0,31,32
 1048 1302 1048 1302 907 899 c 128,-1,33
 766 496 766 496 790 406 c 0,34,35
 806 332 806 332 730 290 c 0,36,37
 680 262 680 262 655 266 c 128,-1,38
 630 270 630 270 598 304 c 1,39,40
 562 336 562 336 576 414 c 128,-1,41
 590 492 590 492 692 802 c 0,42,43
 844 1252 844 1252 828 1269 c 128,-1,44
 812 1286 812 1286 598 1204 c 0,45,46
 368 1114 368 1114 276 1100 c 128,-1,47
 184 1086 184 1086 148 1130 c 0,48,0
 116 1166 116 1166 128 1251 c 128,-1,1
EndSplineSet
EndChar

StartChar: five
Encoding: 53 53 25
Width: 1730
GlyphClass: 2
Flags: W
LayerCount: 2
Fore
SplineSet
19 309 m 128,-1,1
 28 356 28 356 64 356 c 0,2,3
 122 356 122 356 556 676 c 128,-1,4
 990 996 990 996 1214 1208 c 0,5,6
 1358 1344 1358 1344 1319 1422 c 128,-1,7
 1280 1500 1280 1500 1072 1500 c 0,8,9
 924 1500 924 1500 766 1436 c 128,-1,10
 608 1372 608 1372 498 1270 c 0,11,12
 310 1090 310 1090 220 1196 c 0,13,14
 180 1242 180 1242 264 1388 c 0,15,16
 440 1688 440 1688 440 1930 c 0,17,18
 440 2028 440 2028 514 2094 c 0,19,20
 592 2168 592 2168 633 2182 c 128,-1,21
 674 2196 674 2196 724 2166 c 1,22,23
 802 2130 802 2130 880 2166 c 0,24,25
 920 2186 920 2186 1188 2248 c 128,-1,26
 1456 2310 1456 2310 1530 2322 c 0,27,28
 1538 2326 1538 2326 1555 2306 c 128,-1,29
 1572 2286 1572 2286 1588 2252 c 0,30,31
 1612 2206 1612 2206 1604 2182 c 128,-1,32
 1596 2158 1596 2158 1538 2114 c 0,33,34
 1468 2056 1468 2056 1368 2034 c 128,-1,35
 1268 2012 1268 2012 1248 2044 c 0,36,37
 1220 2090 1220 2090 998 2012 c 128,-1,38
 776 1934 776 1934 716 1856 c 1,39,40
 658 1790 658 1790 609 1677 c 128,-1,41
 560 1564 560 1564 576 1544 c 0,42,43
 588 1532 588 1532 748 1602 c 1,44,45
 900 1676 900 1676 1170 1676 c 0,46,47
 1346 1676 1346 1676 1399 1661 c 128,-1,48
 1452 1646 1452 1646 1494 1598 c 0,49,50
 1592 1476 1592 1476 1518 1352 c 128,-1,51
 1444 1228 1444 1228 1116 966 c 0,52,53
 674 614 674 614 375 409 c 128,-1,54
 76 204 76 204 43 233 c 128,-1,0
 10 262 10 262 19 309 c 128,-1,1
EndSplineSet
EndChar

StartChar: six
Encoding: 54 54 26
Width: 1400
GlyphClass: 2
Flags: W
LayerCount: 2
Fore
SplineSet
126 868 m 0,0,1
 246 1650 246 1650 770 2174 c 0,2,3
 930 2334 930 2334 1012 2371 c 128,-1,4
 1094 2408 1094 2408 1146 2342 c 0,5,6
 1174 2306 1174 2306 1148 2275 c 128,-1,7
 1122 2244 1122 2244 966 2138 c 0,8,9
 790 2020 790 2020 639 1782 c 128,-1,10
 488 1544 488 1544 394 1232 c 0,11,12
 268 822 268 822 382 655 c 128,-1,13
 496 488 496 488 774 668 c 0,14,15
 974 794 974 794 1050 938 c 128,-1,16
 1126 1082 1126 1082 1056 1212 c 0,17,18
 1006 1302 1006 1302 943 1313 c 128,-1,19
 880 1324 880 1324 758 1258 c 0,20,21
 656 1204 656 1204 631 1200 c 128,-1,22
 606 1196 606 1196 590 1232 c 0,23,24
 574 1278 574 1278 623 1323 c 128,-1,25
 672 1368 672 1368 794 1422 c 0,26,27
 1106 1558 1106 1558 1232 1274 c 0,28,29
 1298 1118 1298 1118 1261 1005 c 128,-1,30
 1224 892 1224 892 1060 738 c 1,31,32
 830 530 830 530 632 455 c 128,-1,33
 434 380 434 380 290 454 c 0,34,35
 220 490 220 490 165 632 c 128,-1,36
 110 774 110 774 126 868 c 0,0,1
EndSplineSet
EndChar

StartChar: seven
Encoding: 55 55 27
Width: 1568
GlyphClass: 2
Flags: W
LayerCount: 2
Fore
SplineSet
122 512 m 0,0,1
 122 610 122 610 473 1237 c 128,-1,2
 824 1864 824 1864 1016 2114 c 1,3,4
 1082 2192 1082 2192 1056 2196 c 0,5,6
 1048 2196 1048 2196 1024 2188 c 0,7,8
 848 2134 848 2134 602 2089 c 128,-1,9
 356 2044 356 2044 316 2056 c 0,10,11
 242 2080 242 2080 213 2144 c 128,-1,12
 184 2208 184 2208 230 2252 c 0,13,14
 280 2302 280 2302 406 2274 c 1,15,16
 528 2242 528 2242 668 2260 c 1,17,18
 828 2288 828 2288 1053 2340 c 128,-1,19
 1278 2392 1278 2392 1294 2404 c 0,20,21
 1326 2440 1326 2440 1414 2376 c 0,22,23
 1454 2344 1454 2344 1442 2317 c 128,-1,24
 1430 2290 1430 2290 1318 2184 c 1,25,26
 1162 2028 1162 2028 992 1762 c 0,27,28
 812 1488 812 1488 611 1086 c 128,-1,29
 410 684 410 684 410 602 c 128,-1,30
 410 520 410 520 316 466 c 1,31,32
 238 426 238 426 180 440 c 128,-1,33
 122 454 122 454 122 512 c 0,0,1
EndSplineSet
EndChar

StartChar: eight
Encoding: 56 56 28
Width: 1344
GlyphClass: 2
Flags: W
LayerCount: 2
Fore
SplineSet
36 476 m 0,0,1
 -34 608 -34 608 276 954 c 0,2,3
 502 1212 502 1212 518 1236 c 0,4,5
 538 1272 538 1272 466 1392 c 0,6,7
 388 1518 388 1518 339 1650 c 128,-1,8
 290 1782 290 1782 298 1852 c 0,9,10
 318 2000 318 2000 392 2073 c 128,-1,11
 466 2146 466 2146 552 2098 c 0,12,13
 604 2066 604 2066 604 2098 c 0,14,15
 604 2148 604 2148 701 2239 c 128,-1,16
 798 2330 798 2330 866 2352 c 0,17,18
 980 2384 980 2384 1034 2380 c 128,-1,19
 1088 2376 1088 2376 1146 2326 c 1,20,21
 1264 2236 1264 2236 1203 2023 c 128,-1,22
 1142 1810 1142 1810 920 1540 c 2,23,-1
 760 1344 l 1,24,-1
 862 1192 l 2,25,26
 1034 938 1034 938 1020 795 c 128,-1,27
 1006 652 1006 652 798 524 c 0,28,29
 606 410 606 410 349 393 c 128,-1,30
 92 376 92 376 36 476 c 0,0,1
199 620 m 128,-1,32
 196 594 196 594 224 574 c 0,33,34
 274 542 274 542 454 560 c 128,-1,35
 634 578 634 578 724 622 c 1,36,37
 900 722 900 722 764 988 c 0,38,39
 710 1094 710 1094 676 1125 c 128,-1,40
 642 1156 642 1156 599 1131 c 128,-1,41
 556 1106 556 1106 470 1012 c 0,42,43
 298 812 298 812 248 724 c 0,44,31
 202 646 202 646 199 620 c 128,-1,32
506 1806 m 0,45,46
 506 1684 506 1684 690 1434 c 1,47,-1
 806 1568 l 2,48,49
 1064 1862 1064 1862 1042 2094 c 0,50,51
 1038 2176 1038 2176 1018 2196 c 128,-1,52
 998 2216 998 2216 928 2224 c 0,53,54
 862 2228 862 2228 834 2212 c 128,-1,55
 806 2196 806 2196 760 2122 c 0,56,57
 694 2008 694 2008 654 2008 c 0,58,59
 604 2008 604 2008 555 1940 c 128,-1,60
 506 1872 506 1872 506 1806 c 0,45,46
EndSplineSet
EndChar

StartChar: nine
Encoding: 57 57 29
Width: 1482
GlyphClass: 2
Flags: W
LayerCount: 2
Fore
SplineSet
129 1542 m 128,-1,1
 94 1654 94 1654 172 1794 c 1,2,3
 262 1966 262 1966 479 2081 c 128,-1,4
 696 2196 696 2196 812 2138 c 0,5,6
 878 2102 878 2102 876 2040 c 0,7,8
 876 2000 876 2000 850 1987 c 128,-1,9
 824 1974 824 1974 734 1974 c 0,10,11
 598 1974 598 1974 530 1939 c 128,-1,12
 462 1904 462 1904 394 1802 c 0,13,14
 296 1654 296 1654 351 1544 c 128,-1,15
 406 1434 406 1434 551 1428 c 128,-1,16
 696 1422 696 1422 876 1520 c 1,17,18
 1150 1692 1150 1692 1078 2044 c 0,19,20
 1054 2162 1054 2162 1064 2205 c 128,-1,21
 1074 2248 1074 2248 1130 2270 c 0,22,23
 1184 2290 1184 2290 1217 2275 c 128,-1,24
 1250 2260 1250 2260 1298 2192 c 0,25,26
 1434 2012 1434 2012 1286 1712 c 0,27,28
 1246 1634 1246 1634 1094 1306 c 1,29,30
 934 950 934 950 638 594 c 0,31,32
 502 434 502 434 488 380 c 1,33,34
 468 324 468 324 386 324 c 0,35,36
 194 324 194 324 496 664 c 0,37,38
 610 796 610 796 776 1062 c 128,-1,39
 942 1328 942 1328 942 1384 c 0,40,41
 942 1388 942 1388 924 1384 c 128,-1,42
 906 1380 906 1380 875 1368 c 128,-1,43
 844 1356 844 1356 806 1340 c 0,44,45
 650 1270 650 1270 499 1278 c 128,-1,46
 348 1286 348 1286 256 1358 c 128,-1,0
 164 1430 164 1430 129 1542 c 128,-1,1
EndSplineSet
EndChar

StartChar: colon
Encoding: 58 58 30
Width: 528
GlyphClass: 2
Flags: W
LayerCount: 2
Fore
SplineSet
137 436 m 128,-1,1
 98 532 98 532 176 590 c 0,2,3
 202 606 202 606 234 610 c 1,4,5
 320 610 320 610 340 506 c 128,-1,6
 360 402 360 402 278 372 c 1,7,0
 176 340 176 340 137 436 c 128,-1,1
172 1220 m 0,8,9
 136 1282 136 1282 208 1340 c 0,10,11
 278 1394 278 1394 342 1373 c 128,-1,12
 406 1352 406 1352 406 1278 c 0,13,14
 406 1180 406 1180 316 1157 c 128,-1,15
 226 1134 226 1134 172 1220 c 0,8,9
EndSplineSet
EndChar

StartChar: semicolon
Encoding: 59 59 31
Width: 806
GlyphClass: 2
Flags: W
LayerCount: 2
Fore
SplineSet
144 24 m 0,0,1
 176 94 176 94 266 208 c 0,2,3
 406 394 406 394 406 430 c 0,4,5
 406 470 406 470 459 540 c 128,-1,6
 512 610 512 610 549 610 c 128,-1,7
 586 610 586 610 623 569 c 128,-1,8
 660 528 660 528 660 488 c 0,9,10
 660 452 660 452 434 208 c 128,-1,11
 208 -36 208 -36 164 -50 c 0,12,13
 98 -66 98 -66 144 24 c 0,0,1
429 1102 m 128,-1,15
 394 1180 394 1180 454 1246 c 0,16,17
 508 1304 508 1304 537 1305 c 128,-1,18
 566 1306 566 1306 630 1250 c 1,19,20
 704 1210 704 1210 678 1117 c 128,-1,21
 652 1024 652 1024 562 1024 c 0,22,14
 464 1024 464 1024 429 1102 c 128,-1,15
EndSplineSet
EndChar

StartChar: less
Encoding: 60 60 32
Width: 1540
GlyphClass: 2
Flags: W
LayerCount: 2
Fore
SplineSet
126 1306 m 0,0,1
 122 1368 122 1368 137 1391 c 128,-1,2
 152 1414 152 1414 222 1446 c 0,3,4
 476 1560 476 1560 988 1950 c 0,5,6
 1160 2082 1160 2082 1227 2118 c 128,-1,7
 1294 2154 1294 2154 1336 2138 c 0,8,9
 1402 2118 1402 2118 1414 2016 c 0,10,11
 1422 1946 1422 1946 1391 1921 c 128,-1,12
 1360 1896 1360 1896 1200 1840 c 0,13,14
 1020 1774 1020 1774 694 1569 c 128,-1,15
 368 1364 368 1364 381 1327 c 128,-1,16
 394 1290 394 1290 746 1141 c 128,-1,17
 1098 992 1098 992 1172 992 c 0,18,19
 1250 988 1250 988 1396 840 c 1,20,-1
 1266 708 l 1,21,22
 1082 802 1082 802 1020 835 c 128,-1,23
 958 868 958 868 823 923 c 128,-1,24
 688 978 688 978 484 1052 c 0,25,26
 262 1134 262 1134 199 1179 c 128,-1,27
 136 1224 136 1224 126 1306 c 0,0,1
EndSplineSet
EndChar

StartChar: equal
Encoding: 61 61 33
Width: 1982
GlyphClass: 2
Flags: W
LayerCount: 2
Fore
SplineSet
122 1125 m 128,-1,1
 126 1180 126 1180 176 1208 c 0,2,3
 258 1258 258 1258 340 1212 c 0,4,5
 390 1188 390 1188 1086 1180 c 0,6,7
 1364 1176 1364 1176 1507 1172 c 128,-1,8
 1650 1168 1650 1168 1740 1151 c 128,-1,9
 1830 1134 1830 1134 1849 1114 c 128,-1,10
 1868 1094 1868 1094 1852 1052 c 1,11,12
 1840 1002 1840 1002 1770 966 c 1,13,14
 1708 920 1708 920 1560 978 c 0,15,16
 1470 1014 1470 1014 1335 1019 c 128,-1,17
 1200 1024 1200 1024 806 1012 c 0,18,19
 192 996 192 996 155 1033 c 128,-1,0
 118 1070 118 1070 122 1125 c 128,-1,1
250 1650 m 0,20,21
 274 1708 274 1708 303 1712 c 128,-1,22
 332 1716 332 1716 496 1688 c 0,23,24
 640 1660 640 1660 1129 1653 c 128,-1,25
 1618 1646 1618 1646 1680 1676 c 0,26,27
 1720 1696 1720 1696 1788 1639 c 128,-1,28
 1856 1582 1856 1582 1798 1544 c 1,29,30
 1752 1498 1752 1498 1028 1496 c 0,31,32
 352 1492 352 1492 270 1532 c 0,33,34
 214 1560 214 1560 250 1650 c 0,20,21
EndSplineSet
EndChar

StartChar: greater
Encoding: 62 62 34
Width: 1850
GlyphClass: 2
Flags: W
LayerCount: 2
Fore
SplineSet
122 750 m 0,0,1
 118 824 118 824 226 864 c 0,2,3
 262 876 262 876 304 880 c 0,4,5
 382 884 382 884 883 1116 c 128,-1,6
 1384 1348 1384 1348 1384 1376 c 0,7,8
 1384 1408 1384 1408 1071 1556 c 128,-1,9
 758 1704 758 1704 610 1740 c 1,10,11
 392 1802 392 1802 332 1856 c 0,12,13
 274 1910 274 1910 272 1973 c 128,-1,14
 270 2036 270 2036 328 2068 c 0,15,16
 438 2130 438 2130 540 2040 c 0,17,18
 590 1994 590 1994 1004 1778 c 0,19,20
 1450 1544 1450 1544 1587 1458 c 128,-1,21
 1724 1372 1724 1372 1728 1318 c 0,22,23
 1736 1260 1736 1260 1652 1220 c 128,-1,24
 1568 1180 1568 1180 1446 1180 c 0,25,26
 1376 1180 1376 1180 1175 1094 c 128,-1,27
 974 1008 974 1008 749 899 c 128,-1,28
 524 790 524 790 504 782 c 0,29,30
 368 724 368 724 368 700 c 0,31,32
 368 672 368 672 258 672 c 0,33,34
 126 672 126 672 122 750 c 0,0,1
EndSplineSet
EndChar

StartChar: question
Encoding: 63 63 35
Width: 1228
GlyphClass: 2
Flags: W
LayerCount: 2
Fore
SplineSet
122 1830 m 0,0,1
 130 1944 130 1944 274 2063 c 128,-1,2
 418 2182 418 2182 618 2248 c 1,3,4
 770 2288 770 2288 885 2289 c 128,-1,5
 1000 2290 1000 2290 1061 2245 c 128,-1,6
 1122 2200 1122 2200 1098 2122 c 0,7,8
 1062 1996 1062 1996 988 1889 c 128,-1,9
 914 1782 914 1782 742 1602 c 1,10,11
 288 1144 288 1144 340 1052 c 0,12,13
 364 1016 364 1016 520 1032 c 0,14,15
 668 1048 668 1048 668 1016 c 0,16,17
 664 984 664 984 528 906 c 0,18,19
 262 758 262 758 192 910 c 0,20,21
 98 1118 98 1118 586 1598 c 1,22,23
 1016 2028 1016 2028 938 2106 c 0,24,25
 906 2138 906 2138 725 2095 c 128,-1,26
 544 2052 544 2052 442 1986 c 0,27,28
 324 1912 324 1912 286 1826 c 0,29,30
 258 1768 258 1768 217 1746 c 128,-1,31
 176 1724 176 1724 147 1747 c 128,-1,32
 118 1770 118 1770 122 1830 c 0,0,1
234 528 m 0,33,34
 328 696 328 696 414 602 c 0,35,36
 460 556 460 556 449 503 c 128,-1,37
 438 450 438 450 372 418 c 1,38,39
 290 372 290 372 242 411 c 128,-1,40
 194 450 194 450 234 528 c 0,33,34
EndSplineSet
EndChar

StartChar: at
Encoding: 64 64 36
Width: 2412
GlyphClass: 2
Flags: W
LayerCount: 2
Fore
SplineSet
122 1572 m 1,0,-1
 196 1704 l 1,1,2
 332 1958 332 1958 555 2079 c 128,-1,3
 778 2200 778 2200 1160 2236 c 1,4,5
 1594 2282 1594 2282 1942 1985 c 128,-1,6
 2290 1688 2290 1688 2290 1266 c 0,7,8
 2290 1048 2290 1048 2220 891 c 128,-1,9
 2150 734 2150 734 1978 570 c 0,10,11
 1724 324 1724 324 1610 488 c 2,12,-1
 1560 558 l 1,13,-1
 1458 492 l 1,14,15
 1258 374 1258 374 1074 422 c 0,16,17
 972 450 972 450 900 539 c 128,-1,18
 828 628 828 628 828 730 c 0,19,20
 828 922 828 922 932 1084 c 128,-1,21
 1036 1246 1036 1246 1160 1246 c 0,22,23
 1242 1246 1242 1246 1258 1278 c 0,24,25
 1270 1306 1270 1306 1417 1306 c 128,-1,26
 1564 1306 1564 1306 1646 1228 c 0,27,28
 1700 1182 1700 1182 1753 1160 c 128,-1,29
 1806 1138 1806 1138 1844 1102 c 1,30,31
 1884 1056 1884 1056 1830 946 c 0,32,33
 1790 856 1790 856 1784 768 c 128,-1,34
 1778 680 1778 680 1810 660 c 0,35,36
 1868 624 1868 624 2068 884 c 1,37,38
 2134 994 2134 994 2116 1232 c 128,-1,39
 2098 1470 2098 1470 2040 1576 c 0,40,41
 1978 1694 1978 1694 1863 1834 c 128,-1,42
 1748 1974 1748 1974 1712 1974 c 128,-1,43
 1676 1974 1676 1974 1614 2028 c 0,44,45
 1556 2082 1556 2082 1237 2085 c 128,-1,46
 918 2088 918 2088 754 2040 c 0,47,48
 628 2004 628 2004 507 1885 c 128,-1,49
 386 1766 386 1766 386 1676 c 128,-1,50
 386 1586 386 1586 472 1479 c 128,-1,51
 558 1372 558 1372 680 1306 c 0,52,53
 970 1150 970 1150 680 1150 c 0,54,55
 410 1150 410 1150 222 1426 c 2,56,-1
 122 1572 l 1,0,-1
1040 770 m 0,57,58
 1060 676 1060 676 1099 643 c 128,-1,59
 1138 610 1138 610 1224 610 c 0,60,61
 1388 610 1388 610 1495 719 c 128,-1,62
 1602 828 1602 828 1586 978 c 0,63,64
 1574 1064 1574 1064 1478 1106 c 0,65,66
 1306 1176 1306 1176 1122 966 c 0,67,68
 1020 848 1020 848 1040 770 c 0,57,58
EndSplineSet
EndChar

StartChar: A
Encoding: 65 65 37
Width: 1558
GlyphClass: 2
Flags: W
LayerCount: 2
Fore
SplineSet
120 411 m 0,0,1
 120 477 120 477 192 652 c 0,2,3
 274 852 274 852 274 892 c 0,4,5
 274 974 274 974 340 1048 c 0,6,7
 376 1088 376 1088 604 1623 c 128,-1,8
 832 2158 832 2158 852 2192 c 0,9,10
 898 2260 898 2260 984 2260 c 0,11,12
 1078 2260 1078 2260 1125 2127 c 128,-1,13
 1172 1994 1172 1994 1200 1646 c 0,14,15
 1228 1266 1228 1266 1257 1168 c 128,-1,16
 1286 1070 1286 1070 1376 1060 c 0,17,18
 1520 1044 1520 1044 1548 970 c 0,19,20
 1551 961 1551 961 1551 953 c 0,21,22
 1551 910 1551 910 1478 902 c 0,23,24
 1458 898 1458 898 1434 898 c 0,25,26
 1356 898 1356 898 1342 883 c 0,27,28
 1334 875 1334 875 1334 855 c 0,29,30
 1334 838 1334 838 1340 812 c 0,31,32
 1360 698 1360 698 1372 472 c 0,33,34
 1376 407 1376 407 1376 355 c 0,35,36
 1376 252 1376 252 1360 206 c 0,37,38
 1336 136 1336 136 1258 136 c 0,39,40
 1218 136 1218 136 1207 172 c 128,-1,41
 1196 208 1196 208 1192 348 c 0,42,43
 1180 786 1180 786 1150 856 c 0,44,45
 1137 893 1137 893 1039 893 c 0,46,47
 922 893 922 893 684 840 c 1,48,49
 500 804 500 804 467 783 c 128,-1,50
 434 762 434 762 418 672 c 1,51,52
 406 566 406 566 356 430 c 0,53,54
 328 352 328 352 303 330 c 128,-1,55
 278 308 278 308 222 308 c 0,56,57
 168 308 168 308 150 324 c 128,-1,58
 132 340 132 340 122 394 c 0,59,60
 120 401 120 401 120 411 c 0,0,1
556 1082 m 0,61,62
 556 1076 556 1076 558 1074 c 0,63,64
 578 1054 578 1054 840 1052 c 0,65,66
 852 1052 852 1052 880 1052 c 0,67,68
 1060 1052 1060 1052 1085 1085 c 0,69,70
 1094 1097 1094 1097 1094 1128 c 0,71,72
 1094 1187 1094 1187 1064 1314 c 0,73,74
 1056 1350 1056 1350 1052 1372 c 0,75,76
 1016 1536 1016 1536 1008 1708 c 0,77,78
 1000 1986 1000 1986 946 2040 c 1,79,80
 930 2040 930 2040 798 1728 c 0,81,82
 556 1150 556 1150 556 1082 c 0,61,62
EndSplineSet
EndChar

StartChar: B
Encoding: 66 66 38
Width: 2034
GlyphClass: 2
Flags: W
LayerCount: 2
Fore
SplineSet
121 475 m 0,0,1
 121 481 121 481 123 486 c 0,2,3
 136 524 136 524 234 528 c 0,4,5
 284 528 284 528 304 571 c 128,-1,6
 324 614 324 614 356 786 c 0,7,8
 406 1032 406 1032 430 1520 c 0,9,10
 443 1802 443 1802 443 1901 c 0,11,12
 443 1926 443 1926 442 1940 c 0,13,14
 438 2008 438 2008 390 2024 c 0,15,16
 324 2043 324 2043 324 2099 c 0,17,18
 324 2102 324 2102 324 2105 c 0,19,20
 328 2166 328 2166 398 2184 c 1,21,22
 476 2196 476 2196 492 2248 c 0,23,24
 507 2292 507 2292 568 2292 c 0,25,26
 571 2292 571 2292 573 2292 c 0,27,28
 638 2290 638 2290 638 2244 c 0,29,30
 638 2194 638 2194 742 2184 c 0,31,32
 754 2180 754 2180 879 2163 c 128,-1,33
 1004 2146 1004 2146 1082 2134 c 0,34,35
 1402 2084 1402 2084 1545 2013 c 128,-1,36
 1688 1942 1688 1942 1688 1830 c 0,37,38
 1688 1776 1688 1776 1596.5 1664.5 c 128,-1,39
 1505 1553 1505 1553 1405 1503 c 0,40,41
 1289 1445 1289 1445 1276 1445 c 0,42,43
 1275 1445 1275 1445 1275 1446 c 1,44,45
 1291 1434 1291 1434 1414 1434 c 1,46,47
 1518 1416 1518 1416 1532 1388 c 1,48,49
 1688 1330 1688 1330 1798 1222 c 128,-1,50
 1908 1114 1908 1114 1912 1016 c 0,51,52
 1913 990 1913 990 1914 966 c 0,53,54
 1914 820 1914 820 1871 748 c 0,55,56
 1822 664 1822 664 1658 562 c 0,57,58
 1432 426 1432 426 1222 375 c 128,-1,59
 1012 324 1012 324 680 320 c 0,60,61
 614 319 614 319 560 319 c 0,62,63
 398 319 398 319 338 328 c 0,64,65
 258 340 258 340 188 390 c 0,66,67
 121 440 121 440 121 475 c 0,0,1
480 539 m 1,68,69
 494 490 494 490 605 490 c 0,70,71
 624 490 624 490 646 491 c 0,72,73
 796 501 796 501 998 514.5 c 128,-1,74
 1200 528 1200 528 1380 602 c 128,-1,75
 1560 676 1560 676 1638 750 c 0,76,77
 1712 816 1712 816 1726 854 c 0,78,79
 1734 874 1734 874 1734 904 c 0,80,81
 1734 929 1734 929 1728 962 c 0,82,83
 1696 1138 1696 1138 1497 1231 c 0,84,85
 1347 1301 1347 1301 1144 1340 c 1,86,87
 1079 1340 1079 1340 1008 1333 c 0,88,89
 900 1324 900 1324 844 1324 c 0,90,91
 825 1324 825 1324 813 1325 c 0,92,93
 762 1329 762 1329 734 1363 c 0,94,95
 702 1402 702 1402 702 1397 c 1,96,97
 702 1429 702 1429 729 1457 c 1,98,99
 827 1499 827 1499 950 1499 c 0,100,101
 986 1499 986 1499 1025 1495 c 1,102,103
 1197 1531 1197 1531 1318 1607.5 c 128,-1,104
 1439 1684 1439 1684 1474 1790 c 1,105,106
 1489 1815 1489 1815 1489 1837 c 0,107,108
 1489 1910 1489 1910 1318 1946 c 0,109,110
 1222 1970 1222 1970 952 2002 c 1,111,112
 787 2002 787 2002 644 1974 c 1,113,114
 574 1890 574 1890 549 1281 c 128,-1,115
 524 672 524 672 480 539 c 1,68,69
EndSplineSet
EndChar

StartChar: C
Encoding: 67 67 39
Width: 2150
GlyphClass: 2
Flags: W
LayerCount: 2
Fore
SplineSet
123 1025 m 0,0,1
 123 1076 123 1076 132 1130 c 0,2,3
 178 1404 178 1404 425 1701 c 128,-1,4
 672 1998 672 1998 988 2162 c 0,5,6
 1196 2268 1196 2268 1286 2277 c 0,7,8
 1295 2278 1295 2278 1305 2278 c 2,9,-1
 1466 2208 l 1,10,11
 1516 2168 1516 2168 1520 2075 c 0,12,13
 1520 2068 1520 2068 1520 2061 c 0,14,15
 1520 1981 1520 1981 1478 1966 c 0,16,17
 1466 1961 1466 1961 1446 1961 c 0,18,19
 1406 1961 1406 1961 1336 1982 c 0,20,21
 1269 2000 1269 2000 1200 2000 c 0,22,23
 1010 2000 1010 2000 801 1866 c 0,24,25
 516 1684 516 1684 360 1356 c 0,26,27
 284 1191 284 1191 284 1057 c 0,28,29
 284 793 284 793 578 644 c 0,30,31
 774 544 774 544 1063 544 c 0,32,33
 1167 544 1167 544 1284 557 c 0,34,35
 1724 606 1724 606 1762 774 c 0,36,37
 1778 852 1778 852 1843 875 c 0,38,39
 1868 884 1868 884 1892 884 c 0,40,41
 1931 884 1931 884 1968 861 c 0,42,43
 2028 824 2028 824 2028 746 c 0,44,45
 2028 598 2028 598 1708 480 c 0,46,47
 1568 430 1568 430 1462 416 c 128,-1,48
 1356 402 1356 402 1090 402 c 0,49,50
 800 406 800 406 713 418 c 128,-1,51
 626 430 626 430 516 488 c 0,52,53
 123 694 123 694 123 1025 c 0,0,1
EndSplineSet
EndChar

StartChar: D
Encoding: 68 68 40
Width: 1936
GlyphClass: 2
Flags: W
LayerCount: 2
Fore
SplineSet
119 2225 m 0,0,1
 119 2258 119 2258 126 2282 c 0,2,3
 138 2332 138 2332 157 2344 c 0,4,5
 165 2349 165 2349 178 2349 c 0,6,7
 199 2349 199 2349 234 2338 c 1,8,9
 312 2326 312 2326 348 2282 c 0,10,11
 388 2232 388 2232 558 2216 c 1,12,13
 738 2192 738 2192 1061 2030 c 128,-1,14
 1384 1868 1384 1868 1496 1744 c 0,15,16
 1708 1510 1708 1510 1794 1146 c 0,17,18
 1813 1067 1813 1067 1813 994 c 0,19,20
 1813 772 1813 772 1632 620 c 0,21,22
 1392 418 1392 418 922 410 c 0,23,24
 894 410 894 410 869 410 c 0,25,26
 677 410 677 410 590 436 c 0,27,28
 492 466 492 466 492 544 c 0,29,30
 492 630 492 630 542 630 c 0,31,32
 576 630 576 630 634 590 c 0,33,34
 696 549 696 549 860 549 c 0,35,36
 864 549 864 549 868 549 c 0,37,38
 918 549 918 549 978 552 c 0,39,40
 1404 576 1404 576 1552 782 c 1,41,42
 1618 863 1618 863 1618 1037 c 0,43,44
 1618 1047 1618 1047 1618 1057 c 0,45,46
 1614 1246 1614 1246 1536 1392 c 0,47,48
 1478 1502 1478 1502 1325 1654 c 128,-1,49
 1172 1806 1172 1806 1044 1872 c 0,50,51
 930 1934 930 1934 727 1993 c 0,52,53
 548 2045 548 2045 482 2045 c 0,54,55
 473 2045 473 2045 466 2044 c 0,56,57
 416 2040 416 2040 411 2007 c 0,58,59
 410 1999 410 1999 410 1985 c 0,60,61
 410 1938 410 1938 422 1822 c 0,62,63
 446 1646 446 1646 446 1082 c 0,64,65
 446 730 446 730 436 631 c 128,-1,66
 426 532 426 532 386 488 c 0,67,68
 336 430 336 430 274 420 c 0,69,70
 263 418 263 418 254 418 c 0,71,72
 209 418 209 418 196 458 c 0,73,74
 192 467 192 467 192 487 c 0,75,76
 192 527 192 527 208 610 c 0,77,78
 250 806 250 806 250 1122 c 0,79,80
 250 1215 250 1215 246 1319 c 0,81,82
 230 1774 230 1774 156 2036 c 1,83,84
 119 2152 119 2152 119 2225 c 0,0,1
EndSplineSet
EndChar

StartChar: E
Encoding: 69 69 41
Width: 1814
GlyphClass: 2
Flags: W
LayerCount: 2
Fore
SplineSet
125 863 m 0,0,1
 125 901 125 901 126 942 c 0,2,3
 130 1102 130 1102 202 1434 c 128,-1,4
 274 1766 274 1766 274 1912 c 0,5,6
 274 2080 274 2080 348 2121 c 128,-1,7
 422 2162 422 2162 782 2184 c 1,8,9
 1142 2200 1142 2200 1156 2212 c 0,10,11
 1158 2214 1158 2214 1168 2214 c 0,12,13
 1201 2214 1201 2214 1325 2193 c 0,14,15
 1486 2166 1486 2166 1544 2150 c 0,16,17
 1598 2134 1598 2134 1618 2087 c 0,18,19
 1628 2063 1628 2063 1628 2038 c 128,-1,20
 1628 2013 1628 2013 1618 1986 c 0,21,22
 1607 1950 1607 1950 1572 1950 c 0,23,24
 1555 1950 1555 1950 1532 1958 c 0,25,26
 1269 2040 1269 2040 1042 2040 c 0,27,28
 858 2040 858 2040 696 1986 c 1,29,-1
 494 1945 l 1,30,31
 500 1936 500 1936 500 1912 c 0,32,33
 500 1797 500 1797 364 1337 c 0,34,35
 352 1287 352 1287 368 1281 c 0,36,37
 372 1279 372 1279 382 1279 c 0,38,39
 408 1279 408 1279 470 1291 c 1,40,41
 579 1292 579 1292 673 1292 c 0,42,43
 1192 1292 1192 1292 1217 1250 c 1,44,45
 1244 1229 1244 1229 1244 1193 c 0,46,47
 1244 1172 1244 1172 1234 1144 c 0,48,49
 1221 1108 1221 1108 1126 1109 c 0,50,51
 1031 1109 1031 1109 854 1144 c 1,52,53
 841 1139 841 1139 767 1139 c 0,54,55
 725 1138 725 1138 663 1140 c 0,56,57
 648 1140 648 1140 633 1141 c 0,58,59
 482 1141 482 1141 384 1099 c 0,60,61
 314 1069 314 1069 314 902 c 0,62,63
 314 811 314 811 335 678 c 1,64,65
 355 484 355 484 670 484 c 0,66,67
 673 484 673 484 676 484 c 0,68,69
 711 476 711 476 763 476 c 0,70,71
 869 476 869 476 1048 509 c 0,72,73
 1314 558 1314 558 1474 626 c 1,74,75
 1634 699 1634 699 1716 699 c 0,76,77
 1766 699 1766 699 1786 672 c 0,78,79
 1793 660 1793 660 1793 648 c 0,80,81
 1793 612 1793 612 1732 571 c 0,82,83
 1650 516 1650 516 1512 488 c 0,84,85
 1414 468 1414 468 1196 398 c 0,86,87
 1032 344 1032 344 721 344 c 128,-1,88
 410 344 410 344 328 398 c 0,89,90
 196 484 196 484 157 592 c 0,91,92
 125 682 125 682 125 863 c 0,0,1
EndSplineSet
EndChar

StartChar: F
Encoding: 70 70 42
Width: 1670
GlyphClass: 2
Flags: W
LayerCount: 2
Fore
SplineSet
105 1961 m 0,0,1
 105 2011 105 2011 170 2055 c 0,2,3
 254 2112 254 2112 323 2114 c 1,4,5
 879 2244 879 2244 1491 2280 c 0,6,7
 1508 2285 1508 2285 1527 2285 c 0,8,9
 1580 2285 1580 2285 1646 2245 c 0,10,11
 1667 2233 1667 2233 1667 2209 c 0,12,13
 1667 2177 1667 2177 1630 2124 c 1,14,15
 1572 2096 1572 2096 1238.5 2072 c 128,-1,16
 905 2048 905 2048 861 2036 c 1,17,18
 682 2012 682 2012 622 1962 c 0,19,20
 574 1922 574 1922 573 1742 c 0,21,22
 573 1698 573 1698 576 1645 c 1,23,-1
 567 1422 l 1,24,-1
 646 1445 l 1,25,26
 830 1481 830 1481 971.5 1498.5 c 128,-1,27
 1113 1516 1113 1516 1183 1516 c 128,-1,28
 1253 1516 1253 1516 1276 1501 c 128,-1,29
 1299 1486 1299 1486 1299 1450 c 0,30,31
 1299 1404 1299 1404 1225 1374 c 128,-1,32
 1151 1344 1151 1344 917 1290 c 0,33,34
 687 1240 687 1240 580 1207 c 1,35,36
 553 1180 553 1180 553 1002 c 0,37,38
 553 943 553 943 556 867 c 0,39,40
 558 817 558 817 558 774 c 0,41,42
 558 593 558 593 531 507 c 0,43,44
 498 401 498 401 420 401 c 0,45,46
 374 401 374 401 366 442 c 0,47,48
 362 460 362 460 362 511 c 0,49,50
 362 575 362 575 368 691 c 0,51,52
 371 760 371 760 371 816 c 0,53,54
 371 971 371 971 347 1033 c 1,55,56
 352 1066 352 1066 352 1091 c 0,57,58
 352 1176 352 1176 292 1176 c 0,59,60
 214 1176 214 1176 187 1193 c 1,61,62
 173 1210 173 1210 173 1229 c 0,63,64
 173 1261 173 1261 212 1300 c 0,65,66
 274 1362 274 1362 319 1368 c 1,67,68
 366 1384 366 1384 378 1400 c 0,69,70
 386 1411 386 1411 386 1506 c 0,71,72
 386 1552 386 1552 384 1617 c 1,73,74
 391 1780 391 1780 391 1855 c 0,75,76
 391 1905 391 1905 388 1916 c 1,77,-1
 302 1896 l 1,78,79
 233 1874 233 1874 207 1874 c 0,80,81
 192 1874 192 1874 192 1882 c 0,82,83
 192 1886 192 1886 196 1891 c 1,84,85
 126 1891 126 1891 110 1932 c 0,86,87
 105 1947 105 1947 105 1961 c 0,0,1
EndSplineSet
EndChar

StartChar: G
Encoding: 71 71 43
Width: 1870
GlyphClass: 2
Flags: W
LayerCount: 2
Fore
SplineSet
122 884 m 0,0,1
 122 1002 122 1002 196 1214 c 128,-1,2
 270 1426 270 1426 360 1552 c 1,3,4
 512 1778 512 1778 776 1987 c 128,-1,5
 1040 2196 1040 2196 1262 2260 c 0,6,7
 1325 2280 1325 2280 1382 2280 c 0,8,9
 1481 2280 1481 2280 1564 2220 c 0,10,11
 1624 2173 1624 2173 1624 2129 c 0,12,13
 1624 2096 1624 2096 1590 2064 c 0,14,15
 1578 2052 1578 2052 1552 2040 c 0,16,17
 1524 2027 1524 2027 1497 2027 c 0,18,19
 1456 2027 1456 2027 1418 2056 c 0,20,21
 1352 2101 1352 2101 1286 2101 c 1,22,-1
 1270 2100 l 2,23,24
 1196 2094 1196 2094 1052 2024 c 0,25,26
 786 1892 786 1892 565 1573 c 128,-1,27
 344 1254 344 1254 328 984 c 0,28,29
 326 956 326 956 326 930 c 0,30,31
 326 531 326 531 782 492 c 0,32,33
 830 488 830 488 876 488 c 0,34,35
 1201 488 1201 488 1410 688 c 0,36,37
 1484 754 1484 754 1502 801 c 128,-1,38
 1520 848 1520 848 1520 954 c 0,39,40
 1520 1068 1520 1068 1534 1093 c 128,-1,41
 1548 1118 1548 1118 1618 1134 c 0,42,43
 1651 1140 1651 1140 1675 1140 c 0,44,45
 1727 1140 1727 1140 1741 1112 c 0,46,47
 1750 1095 1750 1095 1750 1056 c 0,48,49
 1750 1001 1750 1001 1732 902 c 0,50,51
 1696 680 1696 680 1696 484 c 0,52,53
 1696 316 1696 316 1684 279 c 128,-1,54
 1672 242 1672 242 1614 234 c 0,55,56
 1601 232 1601 232 1589 232 c 0,57,58
 1518 232 1518 232 1485 312 c 0,59,60
 1455 384 1455 384 1455 481 c 0,61,62
 1455 512 1455 512 1458 544 c 1,63,-1
 1286 462 l 1,64,65
 1016 340 1016 340 735 338 c 0,66,67
 730 338 730 338 726 338 c 0,68,69
 452 338 452 338 300 458 c 0,70,71
 124 594 124 594 122 884 c 0,0,1
EndSplineSet
EndChar

StartChar: H
Encoding: 72 72 44
Width: 1412
GlyphClass: 2
Flags: W
LayerCount: 2
Fore
SplineSet
119 853 m 0,0,1
 119 902 119 902 172 962 c 1,2,3
 222 1012 222 1012 290 1610 c 0,4,5
 340 2036 340 2036 360 2126 c 128,-1,6
 380 2216 380 2216 438 2236 c 0,7,8
 470 2247 470 2247 493 2247 c 0,9,10
 545 2247 545 2247 558 2192 c 0,11,12
 562 2173 562 2173 562 2139 c 0,13,14
 562 1993 562 1993 492 1572 c 2,15,-1
 418 1118 l 1,16,17
 425 1118 425 1118 432 1118 c 0,18,19
 523 1118 523 1118 708 1164 c 0,20,21
 806 1188 806 1188 862.5 1217 c 128,-1,22
 919 1246 919 1246 935 1304 c 0,23,24
 1045 1757 1045 1757 1045 1962 c 0,25,26
 1045 2028 1045 2028 1034 2069 c 1,27,28
 1034 2091 1034 2091 1032 2106 c 0,29,30
 1028 2138 1028 2138 1028 2164 c 0,31,32
 1028 2244 1028 2244 1064 2278 c 0,33,34
 1109 2323 1109 2323 1166 2323 c 0,35,36
 1167 2323 1167 2323 1169 2323 c 0,37,38
 1228 2322 1228 2322 1266 2278 c 1,39,40
 1289 2242 1289 2242 1289 2188 c 0,41,42
 1289 2168 1289 2168 1286 2146 c 0,43,44
 1274 2064 1274 2064 1188 1680 c 0,45,46
 1114 1364 1114 1364 1074 902 c 0,47,48
 1038 460 1038 460 1004 426 c 1,49,50
 976 391 976 391 934 391 c 0,51,52
 921 391 921 391 906 394 c 0,53,54
 856 398 856 398 848 447 c 0,55,56
 844 471 844 471 844 542 c 128,-1,57
 844 613 844 613 848 730 c 1,58,-1
 903 1062 l 1,59,-1
 664 992 l 2,60,61
 452 926 452 926 414 870 c 128,-1,62
 376 814 376 814 376 552 c 0,63,64
 376 258 376 258 324 192 c 0,65,66
 276 136 276 136 237 136 c 0,67,68
 236 136 236 136 234 136 c 0,69,70
 172 136 172 136 156 209 c 0,71,72
 148 245 148 245 148 314 c 128,-1,73
 148 383 148 383 156 484 c 0,74,75
 165 605 165 605 165 677 c 0,76,77
 165 765 165 765 152 782 c 0,78,79
 119 815 119 815 119 853 c 0,0,1
EndSplineSet
EndChar

StartChar: I
Encoding: 73 73 45
Width: 634
GlyphClass: 2
Flags: W
LayerCount: 2
Fore
SplineSet
127 491 m 0,0,1
 127 497 127 497 127 502 c 0,2,3
 127 623 127 623 147 813 c 0,4,5
 168 1012 168 1012 193 1208 c 128,-1,6
 218 1404 218 1404 244 1595 c 128,-1,7
 270 1786 270 1786 274 1844 c 0,8,9
 306 2200 306 2200 372 2266 c 0,10,11
 423 2321 423 2321 442 2321 c 0,12,13
 443 2321 443 2321 444 2321 c 0,14,15
 462 2318 462 2318 492 2260 c 0,16,17
 508 2229 508 2229 508 2196.5 c 128,-1,18
 508 2164 508 2164 492 2130 c 0,19,20
 456 2064 456 2064 380 1524 c 128,-1,21
 304 984 304 984 294 754 c 0,22,23
 286 554 286 554 252 453 c 0,24,25
 225 371 225 371 179 371 c 0,26,27
 168 371 168 371 156 376 c 0,28,29
 154 376 154 376 153 376 c 0,30,31
 128 376 128 376 127 491 c 0,0,1
EndSplineSet
EndChar

StartChar: J
Encoding: 74 74 46
Width: 1387
GlyphClass: 2
Flags: W
LayerCount: 2
Fore
SplineSet
-109 549 m 0,0,1
 -109 561 -109 561 -107 574 c 0,2,3
 -95 656 -95 656 -33 656 c 0,4,5
 33 656 33 656 33 614 c 0,6,7
 33 560 33 560 129 501 c 0,8,9
 219 446 219 446 293 446 c 0,10,11
 298 446 298 446 303 446 c 0,12,13
 393 450 393 450 539 530 c 128,-1,14
 685 610 685 610 729 684 c 0,15,16
 791 786 791 786 928 1374 c 0,17,18
 1045 1874 1045 1874 1045 1997 c 0,19,20
 1045 2018 1045 2018 1041 2028 c 0,21,22
 1024 2071 1024 2071 927 2071 c 0,23,24
 839 2071 839 2071 666 2067 c 1,25,26
 556 2043 556 2043 531 2024 c 0,27,28
 517 2013 517 2013 517 1977 c 0,29,30
 517 1950 517 1950 525 1908 c 1,31,32
 525 1830 525 1830 482 1804 c 0,33,34
 464 1793 464 1793 441 1793 c 0,35,36
 410 1793 410 1793 369 1814 c 0,37,38
 319 1842 319 1842 305 1902 c 0,39,40
 301 1917 301 1917 301 1930 c 0,41,42
 301 1968 301 1968 333 1986 c 1,43,44
 376 1991 376 1991 400 2169 c 1,45,46
 923 2214 923 2214 1051 2214 c 0,47,48
 1081 2214 1081 2214 1089 2212 c 1,49,50
 1109 2232 1109 2232 1133 2232 c 0,51,52
 1171 2232 1171 2232 1219 2186 c 0,53,54
 1270 2138 1270 2138 1270 2098 c 0,55,56
 1270 2076 1270 2076 1253 2056 c 0,57,58
 1203 1990 1203 1990 1045 1294 c 0,59,60
 919 742 919 742 857 638 c 0,61,62
 779 506 779 506 640 425 c 128,-1,63
 501 344 501 344 333 332 c 0,64,65
 277 328 277 328 235 328 c 0,66,67
 183 328 183 328 153 334 c 0,68,69
 99 344 99 344 13 402 c 0,70,71
 -65 456 -65 456 -90 488 c 0,72,73
 -109 512 -109 512 -109 549 c 0,0,1
EndSplineSet
EndChar

StartChar: K
Encoding: 75 75 47
Width: 1776
GlyphClass: 2
Flags: W
LayerCount: 2
Fore
SplineSet
122 329 m 0,0,1
 122 338 122 338 126 348 c 0,2,3
 228 590 228 590 242 1634 c 0,4,5
 246 2110 246 2110 294 2150 c 0,6,7
 323 2179 323 2179 355 2179 c 0,8,9
 368 2179 368 2179 382 2174 c 0,10,11
 430 2158 430 2158 434 2106 c 0,12,13
 437 2061 437 2061 437 2001 c 0,14,15
 437 1821 437 1821 410 1508 c 0,16,17
 399 1412 399 1412 399 1369 c 0,18,19
 399 1347 399 1347 402 1339 c 0,20,21
 407 1324 407 1324 428 1324 c 0,22,23
 443 1324 443 1324 466 1332 c 0,24,25
 544 1356 544 1356 1004 1822 c 0,26,27
 1304 2126 1304 2126 1404 2210 c 0,28,29
 1495 2287 1495 2287 1553 2287 c 0,30,31
 1559 2287 1559 2287 1564 2286 c 0,32,33
 1630 2278 1630 2278 1649 2245 c 0,34,35
 1657 2232 1657 2232 1657 2217 c 0,36,37
 1657 2195 1657 2195 1639 2169 c 0,38,39
 1610 2126 1610 2126 1540 2084 c 0,40,41
 1434 2026 1434 2026 1327 1933 c 128,-1,42
 1220 1840 1220 1840 942 1556 c 0,43,44
 750 1360 750 1360 705 1296 c 0,45,46
 674 1252 674 1252 674 1219 c 0,47,48
 674 1204 674 1204 680 1192 c 0,49,50
 700 1156 700 1156 938 949 c 128,-1,51
 1176 742 1176 742 1414 552 c 0,52,53
 1472 508 1472 508 1472 459 c 0,54,55
 1472 443 1472 443 1466 426 c 0,56,57
 1450 376 1450 376 1419 360 c 0,58,59
 1406 353 1406 353 1388 353 c 0,60,61
 1365 353 1365 353 1335 365 c 0,62,63
 1282 386 1282 386 1206 439 c 128,-1,64
 1130 492 1130 492 1024 582 c 0,65,66
 434 1086 434 1086 422 1086 c 0,67,68
 398 1086 398 1086 348 438 c 1,69,70
 344 328 344 328 309 291 c 0,71,72
 286 267 286 267 244 267 c 0,73,74
 221 267 221 267 192 274 c 0,75,76
 122 290 122 290 122 329 c 0,0,1
EndSplineSet
EndChar

StartChar: L
Encoding: 76 76 48
Width: 1495
GlyphClass: 2
Flags: W
LayerCount: 2
Fore
SplineSet
118 565 m 1,0,1
 118 667 118 667 168 962 c 0,2,3
 184 1072 184 1072 192 1134 c 0,4,5
 238 1388 238 1388 238 1806 c 0,6,7
 238 1856 238 1856 238 1913 c 128,-1,8
 238 1970 238 1970 236 2005 c 128,-1,9
 234 2040 234 2040 234 2077 c 128,-1,10
 234 2114 234 2114 236 2134 c 128,-1,11
 238 2154 238 2154 242 2177 c 128,-1,12
 246 2200 246 2200 252 2210 c 128,-1,13
 258 2220 258 2220 268 2232 c 128,-1,14
 278 2244 278 2244 293 2248 c 128,-1,15
 308 2252 308 2252 328 2256 c 0,16,17
 330 2256 330 2256 332 2256 c 0,18,19
 353 2256 353 2256 401 2224 c 0,20,21
 447 2193 447 2193 447 2175 c 0,22,23
 447 2172 447 2172 446 2170 c 0,24,25
 438 2096 438 2096 423 1709.5 c 128,-1,26
 408 1323 408 1323 392 1217 c 0,27,28
 354 995 354 995 318 689 c 1,29,30
 346 602 346 602 400 568 c 0,31,32
 436 545 436 545 551 545 c 0,33,34
 728 545 728 545 1091 599 c 0,35,36
 1253 621 1253 621 1311 621 c 0,37,38
 1316 621 1316 621 1320 621 c 0,39,40
 1373 619 1373 619 1438 598 c 1,41,42
 1472 568 1472 568 1472 551 c 128,-1,43
 1472 534 1472 534 1430 500 c 1,44,45
 1352 446 1352 446 1224 446 c 1,46,47
 524 343 524 343 265 343 c 0,48,49
 246 343 246 343 230 344 c 1,50,51
 130 398 130 398 130 469 c 0,52,53
 130 477 130 477 131 486 c 0,54,55
 130 497 130 497 118 565 c 1,0,1
EndSplineSet
EndChar

StartChar: M
Encoding: 77 77 49
Width: 2014
GlyphClass: 2
Flags: W
LayerCount: 2
Fore
SplineSet
122 364 m 0,0,1
 122 414 122 414 122 476 c 0,2,3
 130 656 130 656 161 820 c 128,-1,4
 192 984 192 984 328 1532 c 0,5,6
 430 1938 430 1938 481 2067 c 128,-1,7
 532 2196 532 2196 594 2196 c 0,8,9
 657 2196 657 2196 657 2100 c 0,10,11
 657 2047 657 2047 638 1966 c 0,12,13
 606 1808 606 1808 606 1583 c 0,14,15
 606 1558 606 1558 606 1532 c 0,16,17
 610 1274 610 1274 656 1164 c 0,18,19
 702 1050 702 1050 785 957 c 128,-1,20
 868 864 868 864 926 864 c 0,21,22
 1078 864 1078 864 1266 1190 c 128,-1,23
 1454 1516 1454 1516 1560 1970 c 0,24,25
 1598 2134 1598 2134 1626 2134 c 1,26,27
 1638 2138 1638 2138 1657 2183 c 128,-1,28
 1676 2228 1676 2228 1720 2228 c 0,29,30
 1774 2228 1774 2228 1774 2184 c 0,31,32
 1774 2181 1774 2181 1774 2177 c 0,33,34
 1774 2124 1774 2124 1720 1930 c 0,35,36
 1688 1808 1688 1808 1688 1531 c 128,-1,37
 1688 1254 1688 1254 1716 1052 c 1,38,39
 1756 822 1756 822 1830 582 c 0,40,41
 1892 382 1892 382 1892 297 c 128,-1,42
 1892 212 1892 212 1827 212 c 128,-1,43
 1762 212 1762 212 1663 550 c 128,-1,44
 1564 888 1564 888 1556 1134 c 0,45,46
 1552 1326 1552 1326 1524 1332 c 0,47,48
 1523 1332 1523 1332 1521 1332 c 0,49,50
 1501 1332 1501 1332 1470 1278 c 0,51,52
 1454 1254 1454 1254 1434 1208 c 0,53,54
 1364 1056 1364 1056 1200 882 c 128,-1,55
 1036 708 1036 708 946 688 c 0,56,57
 913 679 913 679 880 679 c 0,58,59
 774 679 774 679 669 768 c 0,60,61
 532 884 532 884 476 1090 c 1,62,63
 466 1373 466 1373 445 1373 c 0,64,65
 443 1373 443 1373 414 1256 c 1,66,67
 389 1256 389 1256 328 880 c 0,68,69
 292 654 292 654 290 558 c 0,70,71
 290 414 290 414 320 402 c 1,72,73
 351 380 351 380 351 340 c 0,74,75
 351 328 351 328 348 314 c 0,76,77
 336 254 336 254 282 218 c 0,78,79
 239 188 239 188 207 188 c 0,80,81
 131 188 131 188 122 364 c 0,0,1
EndSplineSet
EndChar

StartChar: N
Encoding: 78 78 50
Width: 1682
GlyphClass: 2
Flags: W
LayerCount: 2
Fore
SplineSet
122 340 m 0,0,1
 122 380 122 380 136 476 c 1,2,3
 156 672 156 672 174 825 c 128,-1,4
 192 978 192 978 198 1032 c 128,-1,5
 204 1086 204 1086 211 1196 c 128,-1,6
 218 1306 218 1306 226 1520 c 0,7,8
 242 1966 242 1966 319 1966 c 2,9,10
 319 1966 319 1966 320 1966 c 0,11,12
 332 1966 332 1966 340 1958 c 0,13,14
 364 1946 364 1946 528 1618 c 0,15,16
 758 1156 758 1156 979 760 c 128,-1,17
 1200 364 1200 364 1236 360 c 0,18,19
 1264 356 1264 356 1281 395 c 128,-1,20
 1298 434 1298 434 1318 536 c 0,21,22
 1368 770 1368 770 1397 1147 c 0,23,24
 1420 1442 1420 1442 1420 1685 c 0,25,26
 1420 1752 1420 1752 1418 1814 c 0,27,28
 1416 1905 1416 1905 1416 1977 c 0,29,30
 1416 2193 1416 2193 1434 2240 c 1,31,32
 1454 2280 1454 2280 1497 2289 c 0,33,34
 1506 2291 1506 2291 1515 2291 c 0,35,36
 1545 2291 1545 2291 1560 2266 c 0,37,38
 1562 2263 1562 2263 1562 2221 c 0,39,40
 1562 2158 1562 2158 1558 2008 c 0,41,42
 1552 1758 1552 1758 1534 1428 c 128,-1,43
 1516 1098 1516 1098 1500 906 c 0,44,45
 1442 176 1442 176 1262 168 c 0,46,47
 1259 168 1259 168 1257 168 c 0,48,49
 1118 168 1118 168 898 582 c 0,50,51
 423 1469 423 1469 373 1469 c 0,52,53
 370 1469 370 1469 368 1466 c 2,54,-1
 344 1180 l 1,55,56
 324 890 324 890 299 607 c 128,-1,57
 274 324 274 324 262 328 c 1,58,59
 246 290 246 290 176 290 c 0,60,61
 130 290 130 290 124 319 c 0,62,63
 122 326 122 326 122 340 c 0,0,1
EndSplineSet
EndChar

StartChar: O
Encoding: 79 79 51
Width: 1936
GlyphClass: 2
Flags: W
LayerCount: 2
Fore
SplineSet
125 872 m 0,0,1
 125 954 125 954 139 1049 c 0,2,3
 176 1294 176 1294 300 1532 c 1,4,5
 382 1700 382 1700 435 1757 c 128,-1,6
 488 1814 488 1814 558 1814 c 0,7,8
 631 1814 631 1814 631 1757 c 0,9,10
 631 1698 631 1698 558 1618 c 0,11,12
 448 1496 448 1496 369 1217 c 0,13,14
 316 1029 316 1029 316 898 c 0,15,16
 316 840 316 840 328 786 c 0,17,18
 346 706 346 706 430 608 c 0,19,20
 516 508 516 508 606 462 c 0,21,22
 710 409 710 409 829 408 c 0,23,24
 974 408 974 408 1141 487 c 0,25,26
 1447 631 1447 631 1564 910 c 0,27,28
 1601 998 1601 998 1642 1236 c 0,29,30
 1660 1339 1660 1339 1660 1450 c 0,31,32
 1660 1608 1660 1608 1616 1736 c 0,33,34
 1543 1948 1543 1948 1364 2040 c 0,35,36
 1241 2103 1241 2103 1133 2103 c 0,37,38
 1029 2103 1029 2103 910 2008 c 0,39,40
 808 1927 808 1927 801 1919 c 0,41,42
 702 1798 702 1798 588 1654 c 0,43,44
 588 1654 588 1654 472 1636 c 0,45,46
 472 1636 472 1636 414 1730 c 0,47,48
 414 1730 414 1730 491 1815 c 0,49,50
 601 1987 601 1987 880 2134 c 0,51,52
 1002 2198 1002 2198 1159 2198 c 0,53,54
 1245 2198 1245 2198 1343 2179 c 0,55,56
 1626 2125 1626 2125 1696 1986 c 0,57,58
 1712 1954 1712 1954 1741 1907 c 128,-1,59
 1770 1860 1770 1860 1778 1839 c 128,-1,60
 1786 1818 1786 1818 1798 1769 c 128,-1,61
 1810 1720 1810 1720 1812 1653 c 0,62,63
 1815 1548 1815 1548 1814 1470 c 0,64,65
 1808 1039 1808 1039 1673 797 c 0,66,67
 1541 561 1541 561 1208 398 c 0,68,69
 1042 317 1042 317 975 297 c 0,70,71
 909 277 909 277 813 277 c 0,72,73
 796 277 796 277 778 278 c 0,74,75
 560 282 560 282 391 385 c 128,-1,76
 222 488 222 488 160 652 c 0,77,78
 125 745 125 745 125 872 c 0,0,1
EndSplineSet
EndChar

StartChar: P
Encoding: 80 80 52
Width: 1826
GlyphClass: 2
Flags: W
LayerCount: 2
Fore
SplineSet
61 1918 m 0,0,1
 61 1960 61 1960 118 2006 c 0,2,3
 180 2057 180 2057 224 2057 c 0,4,5
 229 2057 229 2057 234 2056 c 0,6,7
 320 2068 320 2068 350 2106 c 1,8,9
 398 2157 398 2157 446 2157 c 0,10,11
 461 2157 461 2157 476 2152 c 0,12,13
 536 2131 536 2131 724 2131 c 0,14,15
 791 2131 791 2131 874 2134 c 1,16,17
 1484 2084 1484 2084 1626 1942 c 0,18,19
 1701 1864 1701 1864 1701 1793 c 0,20,21
 1701 1775 1701 1775 1696 1758 c 0,22,23
 1618 1438 1618 1438 842 1246 c 1,24,-1
 520 1192 l 1,25,-1
 480 836 l 2,26,27
 444 516 444 516 415 420 c 128,-1,28
 386 324 386 324 320 324 c 128,-1,29
 254 324 254 324 238 387 c 0,30,31
 232 410 232 410 232 445 c 0,32,33
 232 507 232 507 250 606 c 0,34,35
 286 798 286 798 336 1618 c 0,36,37
 341 1716 341 1716 341 1781 c 0,38,39
 341 1912 341 1912 320 1912 c 0,40,41
 280 1912 280 1912 192 1847 c 1,42,43
 86 1849 86 1849 64 1899 c 0,44,45
 61 1908 61 1908 61 1918 c 0,0,1
491 1352 m 1,46,47
 533 1348 533 1348 620 1336 c 1,48,49
 897 1361 897 1361 1308 1573 c 1,50,51
 1378 1628 1378 1628 1471 1683 c 1,52,53
 1494 1728 1494 1728 1518 1759 c 1,54,55
 1518 1787 1518 1787 1504 1810 c 0,56,57
 1464 1868 1464 1868 1312 1916 c 0,58,59
 1194 1956 1194 1956 903 1971 c 0,60,61
 810 1976 810 1976 745 1976 c 1,62,63
 530 1958 530 1958 515 1936 c 1,64,65
 491 1857 491 1857 491 1469 c 0,66,67
 491 1414 491 1414 491 1352 c 1,46,47
EndSplineSet
EndChar

StartChar: Q
Encoding: 81 81 53
Width: 2010
GlyphClass: 2
Flags: W
LayerCount: 2
Fore
SplineSet
128 1037 m 0,0,1
 128 1358 128 1358 380 1704 c 1,2,3
 576 1966 576 1966 712 2079 c 128,-1,4
 848 2192 848 2192 1016 2228 c 0,5,6
 1092 2247 1092 2247 1164 2247 c 0,7,8
 1328 2247 1328 2247 1478 2150 c 0,9,10
 1642 2048 1642 2048 1765 1794 c 128,-1,11
 1888 1540 1888 1540 1888 1310 c 0,12,13
 1888 1192 1888 1192 1794 965 c 128,-1,14
 1700 738 1700 738 1626 676 c 0,15,16
 1579 638 1579 638 1579 608 c 0,17,18
 1579 601 1579 601 1581 594 c 0,19,20
 1594 558 1594 558 1700 462 c 0,21,22
 1831 342 1831 342 1831 295 c 0,23,24
 1831 266 1831 266 1780 266 c 0,25,26
 1777 266 1777 266 1774 266 c 0,27,28
 1754 270 1754 270 1724 274 c 0,29,30
 1614 298 1614 298 1418 446 c 1,31,-1
 1250 356 l 2,32,33
 1067 254 1067 254 882 254 c 0,34,35
 739 254 739 254 594 315 c 0,36,37
 262 454 262 454 160 812 c 0,38,39
 128 923 128 923 128 1037 c 0,0,1
273 1103 m 0,40,41
 273 1061 273 1061 278 1016 c 0,42,43
 302 816 302 816 407 666 c 128,-1,44
 512 516 512 516 676 450 c 0,45,46
 749 421 749 421 852 421 c 0,47,48
 940 421 940 421 1049 442 c 0,49,50
 1286 488 1286 488 1286 566 c 0,51,52
 1286 602 1286 602 1188 816 c 0,53,54
 1122 952 1122 952 1110 1002 c 0,55,56
 1106 1021 1106 1021 1106 1040 c 0,57,58
 1106 1071 1106 1071 1118 1102 c 0,59,60
 1157 1184 1157 1184 1209 1184 c 0,61,62
 1224 1184 1224 1184 1241 1177 c 1,63,64
 1273 1131 1273 1131 1291 1001 c 1,65,66
 1289 985 1289 985 1289 968 c 0,67,68
 1289 874 1289 874 1348 786 c 0,69,70
 1406 700 1406 700 1451 700 c 0,71,72
 1461 700 1461 700 1470 704 c 1,73,74
 1490 704 1490 704 1602 868 c 1,75,76
 1731 1069 1731 1069 1731 1294 c 0,77,78
 1731 1404 1731 1404 1700 1520 c 0,79,80
 1664 1672 1664 1672 1549 1837 c 128,-1,81
 1434 2002 1434 2002 1336 2052 c 1,82,83
 1226 2103 1226 2103 1106 2103 c 0,84,85
 1043 2103 1043 2103 977 2089 c 0,86,87
 786 2048 786 2048 644 1904 c 1,88,89
 576 1815 576 1815 560 1775 c 1,90,91
 560 1752 560 1752 574 1728 c 1,92,93
 578 1701 578 1701 575 1671 c 1,94,95
 563 1648 563 1648 484 1560 c 1,96,97
 273 1386 273 1386 273 1103 c 0,40,41
EndSplineSet
EndChar

StartChar: R
Encoding: 82 82 54
Width: 1896
GlyphClass: 2
Flags: W
LayerCount: 2
Fore
SplineSet
31 1909 m 0,0,1
 31 1943 31 1943 60 1979 c 0,2,3
 110 2040 110 2040 200 2040 c 0,4,5
 262 2040 262 2040 285 2064 c 128,-1,6
 308 2088 308 2088 336 2192 c 0,7,8
 349 2232 349 2232 390 2232 c 0,9,10
 401 2232 401 2232 414 2229 c 0,11,12
 476 2216 476 2216 484 2162 c 0,13,14
 488 2116 488 2116 541 2107 c 128,-1,15
 594 2098 594 2098 828 2088 c 1,16,17
 1046 2084 1046 2084 1138 2068 c 128,-1,18
 1230 2052 1230 2052 1360 1994 c 0,19,20
 1598 1884 1598 1884 1645 1743 c 0,21,22
 1656 1710 1656 1710 1656 1678 c 0,23,24
 1656 1571 1656 1571 1536 1466 c 0,25,26
 1446 1384 1446 1384 1248 1282 c 128,-1,27
 1050 1180 1050 1180 980 1180 c 0,28,29
 831 1174 831 1174 831 1146 c 0,30,31
 832 1138 832 1138 844 1128 c 0,32,33
 900 1084 900 1084 993 1079 c 1,34,35
 1141 1079 1141 1079 1391.5 887.5 c 128,-1,36
 1642 696 1642 696 1736 500 c 0,37,38
 1775 415 1775 415 1775 388 c 0,39,40
 1775 362 1775 362 1746 336 c 0,41,42
 1730 320 1730 320 1710.5 320 c 128,-1,43
 1691 320 1691 320 1668 336 c 0,44,45
 1622 368 1622 368 1478 528 c 0,46,47
 1278 750 1278 750 1165 824 c 128,-1,48
 1052 898 1052 898 816 954 c 2,49,-1
 570 1012 l 1,50,-1
 590 672 l 2,51,52
 597 548 597 548 597 464 c 0,53,54
 597 358 597 358 586 312 c 0,55,56
 566 230 566 230 476 230 c 0,57,58
 436 230 436 230 425 279 c 128,-1,59
 414 328 414 328 414 524 c 0,60,61
 414 742 414 742 361 1061 c 128,-1,62
 308 1380 308 1380 300 1552 c 1,63,-1
 278 1844 l 1,64,65
 262 1844 262 1844 217 1835 c 128,-1,66
 172 1826 172 1826 145 1824 c 128,-1,67
 118 1822 118 1822 88 1829 c 128,-1,68
 58 1836 58 1836 46 1860 c 0,69,70
 31 1884 31 1884 31 1909 c 0,0,1
476 1712 m 0,71,72
 476 1560 476 1560 500 1405 c 128,-1,73
 524 1250 524 1250 550 1220 c 0,74,75
 557 1215 557 1215 566 1215 c 0,76,77
 572 1215 572 1215 578 1215 c 0,78,79
 638 1215 638 1215 662 1234 c 0,80,81
 690 1262 690 1262 840 1290 c 1,82,83
 1098 1318 1098 1318 1284 1431 c 0,84,85
 1455 1535 1455 1535 1455 1643 c 0,86,87
 1455 1652 1455 1652 1454 1662 c 0,88,89
 1442 1736 1442 1736 1266 1826 c 128,-1,90
 1090 1916 1090 1916 856 1930 c 0,91,92
 757 1936 757 1936 687 1936 c 0,93,94
 560 1936 560 1936 527 1917 c 0,95,96
 476 1888 476 1888 476 1712 c 0,71,72
EndSplineSet
EndChar

StartChar: S
Encoding: 83 83 55
Width: 1654
GlyphClass: 2
Flags: W
LayerCount: 2
Fore
SplineSet
-65 648 m 0,0,1
 -65 679 -65 679 -48 712 c 0,2,3
 -21 770 -21 770 6 770 c 0,4,5
 38 770 38 770 70 692 c 0,6,7
 94 626 94 626 146 602 c 128,-1,8
 198 578 198 578 410 528 c 0,9,10
 623 478 623 478 803 478 c 0,11,12
 1023 478 1023 478 1196 552 c 0,13,14
 1402 641 1402 641 1402 780 c 0,15,16
 1402 807 1402 807 1394 836 c 0,17,18
 1382 890 1382 890 1340 938 c 0,19,20
 1258 1040 1258 1040 1119 1116 c 128,-1,21
 980 1192 980 1192 722 1270 c 0,22,23
 390 1372 390 1372 281 1497 c 0,24,25
 210 1579 210 1579 210 1700 c 0,26,27
 210 1764 210 1764 230 1840 c 0,28,29
 254 1930 254 1930 346 2038 c 128,-1,30
 438 2146 438 2146 516 2174 c 0,31,32
 575 2193 575 2193 709 2193 c 0,33,34
 716 2193 716 2193 723 2193 c 0,35,36
 868 2192 868 2192 1000 2162 c 0,37,38
 1164 2126 1164 2126 1274 2026 c 0,39,40
 1355 1953 1355 1953 1355 1891 c 0,41,42
 1355 1869 1355 1869 1344 1848 c 0,43,44
 1311 1788 1311 1788 1258 1788 c 0,45,46
 1253 1788 1253 1788 1248 1788 c 0,47,48
 1188 1794 1188 1794 1140 1864 c 0,49,50
 1066 1974 1066 1974 865 2021 c 0,51,52
 781 2041 781 2041 710 2041 c 0,53,54
 610 2041 610 2041 536 2002 c 0,55,56
 396 1932 396 1932 364 1789 c 0,57,58
 356 1754 356 1754 356 1722 c 0,59,60
 356 1623 356 1623 430 1552 c 1,61,62
 492 1482 492 1482 692 1422 c 0,63,64
 982 1336 982 1336 1145 1254 c 128,-1,65
 1308 1172 1308 1172 1406 1060 c 0,66,67
 1484 970 1484 970 1508 917 c 128,-1,68
 1532 864 1532 864 1532 782 c 0,69,70
 1532 646 1532 646 1460 563 c 128,-1,71
 1388 480 1388 480 1222 418 c 0,72,73
 1108 372 1108 372 1015 362 c 0,74,75
 973 357 973 357 908 357 c 0,76,77
 831 357 831 357 722 364 c 0,78,79
 452 372 452 372 259 422 c 128,-1,80
 66 472 66 472 -14 547 c 0,81,82
 -65 595 -65 595 -65 648 c 0,0,1
EndSplineSet
EndChar

StartChar: T
Encoding: 84 84 56
Width: 1413
GlyphClass: 2
Flags: W
LayerCount: 2
Fore
SplineSet
40 1942 m 0,0,1
 40 1958 40 1958 66 1986 c 0,2,3
 94 2018 94 2018 303 2035 c 128,-1,4
 512 2052 512 2052 758 2056 c 128,-1,5
 1004 2060 1004 2060 1052 2068 c 0,6,7
 1164 2086 1164 2086 1237 2086 c 0,8,9
 1319 2086 1319 2086 1352 2063 c 1,10,11
 1368 2039 1368 2039 1368 2019 c 0,12,13
 1368 1967 1368 1967 1258 1941 c 1,14,15
 1120 1924 1120 1924 997 1924 c 0,16,17
 954 1924 954 1924 912 1926 c 0,18,19
 906 1926 906 1926 901 1926 c 0,20,21
 752 1926 752 1926 743 1720 c 0,22,23
 737 1603 737 1603 678.5 1238 c 128,-1,24
 620 873 620 873 604 601 c 0,25,26
 588 389 588 389 556 325.5 c 128,-1,27
 524 262 524 262 462 262 c 0,28,29
 418 262 418 262 418 364 c 1,30,31
 406 413 406 413 406 498 c 0,32,33
 406 712 406 712 482 1148 c 0,34,35
 571 1661 571 1661 571 1822 c 0,36,37
 571 1853 571 1853 568 1871 c 1,38,39
 557 1898 557 1898 489 1898 c 0,40,41
 433 1898 433 1898 340 1880 c 1,42,43
 40 1880 40 1880 40 1942 c 0,0,1
EndSplineSet
EndChar

StartChar: U
Encoding: 85 85 57
Width: 1290
GlyphClass: 2
Flags: W
LayerCount: 2
Fore
SplineSet
122 1095 m 0,0,1
 122 1404 122 1404 152 1676 c 0,2,3
 180 1938 180 1938 196 1999 c 128,-1,4
 212 2060 212 2060 258 2064 c 1,5,6
 298 2072 298 2072 319 2058 c 128,-1,7
 340 2044 340 2044 344 2003 c 0,8,9
 345 1991 345 1991 345 1978 c 0,10,11
 345 1944 345 1944 338 1899 c 0,12,13
 328 1836 328 1836 304 1732 c 0,14,15
 230 1441 230 1441 230 1088 c 0,16,17
 230 991 230 991 236 889 c 0,18,19
 262 418 262 418 376 418 c 0,20,21
 412 418 412 418 528 539 c 128,-1,22
 644 660 644 660 720 782 c 0,23,24
 806 918 806 918 843 1059 c 128,-1,25
 880 1200 880 1200 938 1622 c 0,26,27
 1004 2110 1004 2110 1024 2154 c 0,28,29
 1039 2196 1039 2196 1078 2196 c 0,30,31
 1081 2196 1081 2196 1085 2196 c 0,32,33
 1130 2192 1130 2192 1156 2142 c 0,34,35
 1170 2118 1170 2118 1170 2053 c 0,36,37
 1170 1859 1170 1859 1048 1306 c 0,38,39
 982 998 982 998 976 737 c 0,40,41
 975 713 975 713 975 690 c 0,42,43
 975 470 975 470 1028 406 c 0,44,45
 1044 388 1044 388 1044 366 c 0,46,47
 1044 340 1044 340 1020 308 c 0,48,49
 988 263 988 263 960 263 c 0,50,51
 917 263 917 263 884 372 c 0,52,53
 864 438 864 438 856 532 c 2,54,-1
 836 742 l 1,55,56
 750 558 750 558 574 394 c 0,57,58
 435 265 435 265 345 265 c 0,59,60
 321 265 321 265 300 274 c 0,61,62
 238 294 238 294 184 410 c 1,63,64
 134 528 134 528 124 930 c 0,65,66
 122 1014 122 1014 122 1095 c 0,0,1
EndSplineSet
EndChar

StartChar: V
Encoding: 86 86 58
Width: 1448
GlyphClass: 2
Flags: W
LayerCount: 2
Fore
SplineSet
121 2152 m 0,0,1
 121 2179 121 2179 126 2200 c 0,2,3
 142 2254 142 2254 179 2254 c 0,4,5
 187 2254 187 2254 196 2252 c 0,6,7
 250 2244 250 2244 334 1915 c 128,-1,8
 418 1586 418 1586 454 1246 c 0,9,10
 512 672 512 672 582 672 c 0,11,12
 610 672 610 672 648 812 c 0,13,14
 684 944 684 944 790 1164 c 0,15,16
 1144 1904 1144 1904 1144 2053 c 0,17,18
 1144 2064 1144 2064 1142 2072 c 0,19,20
 1138 2089 1138 2089 1138 2105 c 0,21,22
 1138 2178 1138 2178 1212 2236 c 0,23,24
 1249 2265 1249 2265 1276 2265 c 0,25,26
 1310 2265 1310 2265 1328 2220 c 1,27,28
 1324 2150 1324 2150 1125 1722 c 128,-1,29
 926 1294 926 1294 918 1266 c 0,30,31
 894 1184 894 1184 832 1014 c 128,-1,32
 770 844 770 844 727 705 c 128,-1,33
 684 566 684 566 668 450 c 0,34,35
 639 227 639 227 584 227 c 0,36,37
 572 227 572 227 558 238 c 0,38,39
 436 344 436 344 300 1266 c 0,40,41
 226 1746 226 1746 168 1930 c 0,42,43
 121 2069 121 2069 121 2152 c 0,0,1
EndSplineSet
EndChar

StartChar: W
Encoding: 87 87 59
Width: 1748
GlyphClass: 2
Flags: W
LayerCount: 2
Fore
SplineSet
123 1883 m 0,0,1
 123 2047 123 2047 132 2072 c 0,2,3
 156 2128 156 2128 194 2128 c 0,4,5
 201 2128 201 2128 208 2126 c 0,6,7
 228 2122 228 2122 239 2099 c 128,-1,8
 250 2076 250 2076 260 1986 c 128,-1,9
 270 1896 270 1896 274 1736 c 128,-1,10
 278 1576 278 1576 286 1278 c 0,11,12
 290 1146 290 1146 292 1013 c 128,-1,13
 294 880 294 880 297 780 c 128,-1,14
 300 680 300 680 302 598 c 128,-1,15
 304 516 304 516 304 476 c 2,16,-1
 308 430 l 1,17,18
 317 417 317 417 328 417 c 0,19,20
 363 417 363 417 422 540 c 0,21,22
 426 556 426 556 434 574 c 0,23,24
 512 762 512 762 708 1486 c 0,25,26
 744 1622 744 1622 794 1690 c 0,27,28
 832 1741 832 1741 868 1741 c 0,29,30
 880 1741 880 1741 892 1736 c 0,31,32
 916 1728 916 1728 923 1716 c 128,-1,33
 930 1704 930 1704 928 1683 c 128,-1,34
 926 1662 926 1662 910 1618 c 0,35,36
 900 1586 900 1586 900 1510 c 0,37,38
 900 1369 900 1369 934 1074 c 1,39,40
 1000 566 1000 566 1036 562 c 0,41,42
 1052 562 1052 562 1078 626 c 0,43,44
 1188 904 1188 904 1321 1449 c 0,45,46
 1437 1923 1437 1923 1437 2044 c 0,47,48
 1437 2062 1437 2062 1434 2072 c 0,49,50
 1431 2088 1431 2088 1431 2104 c 0,51,52
 1431 2154 1431 2154 1458 2216 c 1,53,54
 1503 2295 1503 2295 1555 2295 c 0,55,56
 1570 2295 1570 2295 1585 2289 c 0,57,58
 1629 2271 1629 2271 1629 2220 c 0,59,60
 1629 2191 1629 2191 1614 2150 c 0,61,62
 1598 2096 1598 2096 1467 1593 c 128,-1,63
 1336 1090 1336 1090 1314 1036 c 0,64,65
 1302 1008 1302 1008 1284 942 c 128,-1,66
 1266 876 1266 876 1237 782 c 128,-1,67
 1208 688 1208 688 1188 630 c 0,68,69
 1079 273 1079 273 971 273 c 0,70,71
 966 273 966 273 962 274 c 0,72,73
 946 278 946 278 930 290 c 0,74,75
 864 352 864 352 806 922 c 0,76,77
 782 1164 782 1164 750 1164 c 0,78,79
 730 1164 730 1164 700 1048 c 0,80,81
 610 680 610 680 493 438 c 128,-1,82
 376 196 376 196 286 196 c 0,83,84
 220 196 220 196 200 234 c 1,85,86
 172 274 172 274 141 1143 c 0,87,88
 123 1651 123 1651 123 1883 c 0,0,1
EndSplineSet
EndChar

StartChar: X
Encoding: 88 88 60
Width: 1879
GlyphClass: 2
Flags: W
LayerCount: 2
Fore
SplineSet
-93 152 m 0,0,1
 -93 216 -93 216 -5 304 c 0,2,3
 167 476 167 476 479 861 c 128,-1,4
 791 1246 791 1246 847 1314 c 1,5,6
 547 1662 547 1662 421 1782 c 0,7,8
 351 1844 351 1844 325 1899 c 0,9,10
 311 1929 311 1929 311 1954 c 0,11,12
 311 1974 311 1974 320 1989 c 0,13,14
 341 2024 341 2024 401 2032 c 0,15,16
 407 2033 407 2033 414 2033 c 0,17,18
 459 2033 459 2033 512 1985 c 0,19,20
 573 1930 573 1930 717 1754 c 0,21,22
 947 1474 947 1474 973 1474 c 0,23,24
 974 1474 974 1474 975 1474 c 0,25,26
 1131 1630 1131 1630 1295 1806 c 0,27,28
 1517 2048 1517 2048 1600 2101 c 0,29,30
 1636 2124 1636 2124 1666 2124 c 0,31,32
 1706 2124 1706 2124 1737 2084 c 0,33,34
 1761 2054 1761 2054 1761 2020 c 0,35,36
 1761 1998 1761 1998 1751 1975 c 0,37,38
 1725 1916 1725 1916 1635 1868 c 1,39,40
 1509 1794 1509 1794 1045 1332 c 1,41,-1
 1229 1040 l 2,42,43
 1441 708 1441 708 1511 612 c 128,-1,44
 1581 516 1581 516 1609 516 c 0,45,46
 1633 516 1633 516 1638 483 c 0,47,48
 1639 475 1639 475 1639 466 c 0,49,50
 1639 440 1639 440 1628 413 c 0,51,52
 1613 376 1613 376 1589 360 c 0,53,54
 1556 341 1556 341 1524 341 c 0,55,56
 1440 341 1440 341 1369 476 c 0,57,58
 1259 694 1259 694 1096 939 c 0,59,60
 938 1176 938 1176 911 1176 c 0,61,62
 910 1176 910 1176 909 1176 c 0,63,64
 859 1160 859 1160 557 770 c 128,-1,65
 255 380 255 380 169 226 c 0,66,67
 123 148 123 148 70 105 c 0,68,69
 23 67 23 67 -17 67 c 0,70,71
 -23 67 -23 67 -28 68 c 0,72,73
 -73 74 -73 74 -91 132 c 0,74,75
 -93 141 -93 141 -93 152 c 0,0,1
EndSplineSet
EndChar

StartChar: Y
Encoding: 89 89 61
Width: 1432
GlyphClass: 2
Flags: W
LayerCount: 2
Fore
SplineSet
122 2070 m 0,0,1
 122 2091 122 2091 160 2122 c 0,2,3
 219 2166 219 2166 244 2166 c 0,4,5
 245 2166 245 2166 246 2166 c 0,6,7
 286 2166 286 2166 329 2099 c 128,-1,8
 372 2032 372 2032 390 1950 c 0,9,10
 406 1856 406 1856 529 1598 c 128,-1,11
 652 1340 652 1340 680 1340 c 0,12,13
 704 1340 704 1340 782 1490 c 0,14,15
 852 1616 852 1616 1012 1922 c 1,16,17
 1162 2196 1162 2196 1228 2196 c 0,18,19
 1310 2196 1310 2196 1310 2138 c 128,-1,20
 1310 2080 1310 2080 1232 1998 c 0,21,22
 1134 1896 1134 1896 958 1591 c 128,-1,23
 782 1286 782 1286 762 1192 c 1,24,25
 746 1086 746 1086 716 1086 c 0,26,27
 696 1086 696 1086 532 729 c 128,-1,28
 368 372 368 372 368 331 c 128,-1,29
 368 290 368 290 319 258 c 0,30,31
 299 245 299 245 281 245 c 0,32,33
 254 245 254 245 230 274 c 0,34,35
 181 323 181 323 181 356 c 0,36,37
 181 360 181 360 182 363 c 0,38,39
 188 398 188 398 258 462 c 0,40,41
 332 528 332 528 451 784 c 0,42,43
 566 1032 566 1032 566 1116 c 0,44,45
 566 1119 566 1119 566 1122 c 0,46,47
 562 1184 562 1184 439 1448 c 128,-1,48
 316 1712 316 1712 188 1930 c 1,49,50
 122 2052 122 2052 122 2070 c 0,0,1
EndSplineSet
EndChar

StartChar: Z
Encoding: 90 90 62
Width: 2162
GlyphClass: 2
Flags: W
LayerCount: 2
Fore
SplineSet
124 380 m 0,0,1
 124 394 124 394 130 409 c 0,2,3
 148 454 148 454 254 594 c 0,4,5
 570 1016 570 1016 1012 1444 c 128,-1,6
 1454 1872 1454 1872 1622 1926 c 0,7,8
 1696 1950 1696 1950 1696 1974 c 0,9,10
 1693 2001 1693 2001 1634 2001 c 0,11,12
 1604 2001 1604 2001 1560 1994 c 0,13,14
 1502 1986 1502 1986 1165 1958 c 128,-1,15
 828 1930 828 1930 716 1908 c 0,16,17
 639 1895 639 1895 585 1895 c 0,18,19
 522 1895 522 1895 488 1912 c 0,20,21
 426 1936 426 1936 422 1998 c 0,22,23
 422 2003 422 2003 422 2007 c 0,24,25
 422 2063 422 2063 467 2101 c 0,26,27
 496 2125 496 2125 531 2125 c 0,28,29
 555 2125 555 2125 582 2114 c 0,30,31
 643 2088 643 2088 961 2088 c 0,32,33
 1196 2088 1196 2088 1572 2102 c 0,34,35
 1639 2104 1639 2104 1696 2104 c 0,36,37
 1988 2104 1988 2104 1998 2052 c 0,38,39
 1999 2048 1999 2048 1999 2043 c 0,40,41
 1999 2016 1999 2016 1958 1970 c 0,42,43
 1904 1908 1904 1908 1732 1830 c 0,44,45
 1380 1674 1380 1674 884 1134 c 0,46,47
 367 566 367 566 367 472 c 0,48,49
 367 463 367 463 372 458 c 1,50,51
 395 455 395 455 443 455 c 0,52,53
 584 455 584 455 941 481 c 0,54,55
 1420 516 1420 516 1474 516 c 0,56,57
 1724 516 1724 516 1830 570 c 0,58,59
 1892 599 1892 599 1934 599 c 0,60,61
 1971 599 1971 599 1994 578 c 0,62,63
 2040 542 2040 542 2042 480 c 0,64,65
 2042 477 2042 477 2042 475 c 0,66,67
 2042 417 2042 417 1998 402 c 1,68,69
 1892 390 1892 390 1274 369 c 128,-1,70
 656 348 656 348 520 328 c 0,71,72
 302 300 302 300 241 300 c 128,-1,73
 180 300 180 300 148 332 c 0,74,75
 124 353 124 353 124 380 c 0,0,1
EndSplineSet
EndChar

StartChar: asciicircum
Encoding: 94 94 63
Width: 1268
GlyphClass: 2
Flags: W
LayerCount: 2
Fore
SplineSet
129 1559 m 128,-1,1
 144 1602 144 1602 188 1634 c 0,2,3
 282 1700 282 1700 424 1839 c 128,-1,4
 566 1978 566 1978 574 2012 c 0,5,6
 586 2102 586 2102 631 2128 c 128,-1,7
 676 2154 676 2154 731 2109 c 128,-1,8
 786 2064 786 2064 828 1958 c 1,9,10
 878 1844 878 1844 1024 1646 c 1,11,12
 1242 1372 1242 1372 1090 1372 c 1,13,14
 1074 1368 1074 1368 1006 1448 c 128,-1,15
 938 1528 938 1528 864 1626 c 128,-1,16
 790 1724 790 1724 725 1804 c 128,-1,17
 660 1884 660 1884 644 1880 c 1,18,19
 570 1880 570 1880 372 1586 c 0,20,21
 266 1430 266 1430 200 1442 c 1,22,23
 150 1446 150 1446 132 1481 c 128,-1,0
 114 1516 114 1516 129 1559 c 128,-1,1
EndSplineSet
EndChar

StartChar: underscore
Encoding: 95 95 64
Width: 1498
GlyphClass: 2
Flags: W
LayerCount: 2
Fore
SplineSet
122 8 m 0,0,1
 122 58 122 58 204 66 c 128,-1,2
 286 74 286 74 750 66 c 0,3,4
 1200 62 1200 62 1288 49 c 128,-1,5
 1376 36 1376 36 1376 -8 c 0,6,7
 1376 -48 1376 -48 1360 -58 c 0,8,9
 1314 -78 1314 -78 484 -66 c 1,10,11
 230 -58 230 -58 176 -48 c 128,-1,12
 122 -38 122 -38 122 8 c 0,0,1
EndSplineSet
EndChar

StartChar: grave
Encoding: 96 96 65
Width: 928
GlyphClass: 2
Flags: W
LayerCount: 2
Fore
SplineSet
132 1999 m 128,-1,1
 112 2028 112 2028 140 2098 c 0,2,3
 176 2196 176 2196 260 2165 c 128,-1,4
 344 2134 344 2134 458 1982 c 1,5,6
 614 1786 614 1786 700 1688 c 0,7,8
 848 1516 848 1516 790 1496 c 0,9,10
 720 1476 720 1476 536 1658 c 0,11,12
 356 1838 356 1838 258 1900 c 0,13,0
 152 1970 152 1970 132 1999 c 128,-1,1
EndSplineSet
EndChar

StartChar: a
Encoding: 97 97 66
Width: 1444
GlyphClass: 2
Flags: W
LayerCount: 2
Fore
SplineSet
125 636 m 0,0,1
 125 762 125 762 181 930 c 0,2,3
 247 1117 247 1117 363 1177 c 1,4,5
 523 1224 523 1224 650 1213 c 1,6,7
 806 1213 806 1213 868 1168 c 0,8,9
 934 1120 934 1120 969 1120 c 0,10,11
 1008 1120 1008 1120 1008 1180 c 0,12,13
 1008 1340 1008 1340 1086 1340 c 0,14,15
 1184 1340 1184 1340 1184 1181 c 0,16,17
 1184 1149 1184 1149 1180 1110 c 0,18,19
 1178 1090 1178 1090 1179 1068 c 0,20,21
 1178 854 1178 854 1318 406 c 1,22,23
 1314 354 1314 354 1257 357 c 0,24,25
 1218 357 1218 357 1187 409 c 0,26,27
 1148 475 1148 475 1129 561.5 c 128,-1,28
 1110 648 1110 648 1098 660 c 0,29,30
 1094 663 1094 663 1089 663 c 0,31,32
 1058 663 1058 663 970 570 c 1,33,34
 892 480 892 480 725 402 c 128,-1,35
 558 324 558 324 442 324 c 0,36,37
 352 324 352 324 252 391 c 128,-1,38
 152 458 152 458 136 532 c 0,39,40
 125 580 125 580 125 636 c 0,0,1
239 694 m 0,41,42
 239 622 239 622 277 553 c 0,43,44
 332 454 332 454 414 446 c 0,45,46
 439 445 439 445 463 445 c 0,47,48
 718 449 718 449 862 614 c 1,49,50
 994 744 994 744 1007 838 c 1,51,52
 1003 907 1003 907 1003 925 c 1,53,54
 988 981 988 981 928 1020 c 1,55,56
 882 1074 882 1074 804 1092 c 128,-1,57
 726 1110 726 1110 654 1118 c 1,58,59
 567 1115 567 1115 507 1098 c 0,60,61
 402 1070 402 1070 395 1036 c 1,62,63
 355 1036 355 1036 310.5 934 c 128,-1,64
 266 832 266 832 246 758 c 0,65,66
 239 726 239 726 239 694 c 0,41,42
EndSplineSet
EndChar

StartChar: b
Encoding: 98 98 67
Width: 1512
GlyphClass: 2
Flags: W
LayerCount: 2
Fore
SplineSet
43 302 m 128,-1,1
 43 313 43 313 80 352 c 0,2,3
 130 410 130 410 166 516 c 0,4,5
 194 606 194 606 258 1208 c 128,-1,6
 322 1810 322 1810 322 1978 c 0,7,8
 322 2126 322 2126 396 2174 c 0,9,10
 458 2218 458 2218 492 2218 c 0,11,12
 518 2218 518 2218 526 2192 c 0,13,14
 533 2171 533 2171 533 2119 c 0,15,16
 533 1981 533 1981 486 1626 c 1,17,18
 428 1239 428 1239 428 1129 c 0,19,20
 428 1099 428 1099 432 1090 c 0,21,22
 442 1074 442 1074 472.5 1074 c 128,-1,23
 503 1074 503 1074 554 1090 c 0,24,25
 664 1122 664 1122 866 1122 c 0,26,27
 888 1122 888 1122 912 1122 c 0,28,29
 1148 1118 1148 1118 1252 1078 c 0,30,31
 1396 1018 1396 1018 1397 914 c 0,32,33
 1397 855 1397 855 1350 782 c 0,34,35
 1202 552 1202 552 740 386 c 0,36,37
 716 374 716 374 686 364 c 0,38,39
 506 302 506 302 326 276 c 0,40,41
 232 262 232 262 170 262 c 0,42,43
 112 262 112 262 80 274 c 0,44,0
 43 291 43 291 43 302 c 128,-1,1
346 483 m 0,45,46
 346 434 346 434 358 422 c 0,47,48
 368 409 368 409 409 409 c 0,49,50
 419 409 419 409 432 410 c 0,51,52
 588 422 588 422 793 504 c 128,-1,53
 998 586 998 586 1088 672 c 0,54,55
 1190 766 1190 766 1206 821 c 0,56,57
 1210 833 1210 833 1210 845 c 0,58,59
 1210 887 1210 887 1166 926 c 0,60,61
 1120 962 1120 962 917 975 c 0,62,63
 856 979 856 979 806 979 c 0,64,65
 692 979 692 979 644 958 c 0,66,67
 608 946 608 946 569 911.5 c 128,-1,68
 530 877 530 877 472 873 c 1,69,70
 449 894 449 894 432 894 c 0,71,72
 414 894 414 894 404 870 c 0,73,74
 384 824 384 824 370 700 c 1,75,76
 346 553 346 553 346 483 c 0,45,46
EndSplineSet
EndChar

StartChar: c
Encoding: 99 99 68
Width: 1290
GlyphClass: 2
Flags: W
LayerCount: 2
Fore
SplineSet
122 582 m 0,0,1
 122 712 122 712 222 840 c 0,2,3
 296 938 296 938 477 1047 c 128,-1,4
 658 1156 658 1156 806 1192 c 0,5,6
 910 1219 910 1219 980 1219 c 0,7,8
 1113 1219 1113 1219 1126 1122 c 0,9,10
 1128 1109 1128 1109 1128 1098 c 0,11,12
 1128 1049 1128 1049 1085 1036 c 0,13,14
 1071 1032 1071 1032 1054 1032 c 0,15,16
 1007 1032 1007 1032 938 1064 c 0,17,18
 887 1089 887 1089 828 1089 c 0,19,20
 759 1089 759 1089 678 1055 c 0,21,22
 528 992 528 992 406 840 c 0,23,24
 319 736 319 736 318 646 c 0,25,26
 318 567 318 567 386 500 c 0,27,28
 464 422 464 422 584 420 c 0,29,30
 587 420 587 420 591 420 c 0,31,32
 710 420 710 420 922 488 c 0,33,34
 1075 536 1075 536 1134 536 c 0,35,36
 1169 536 1169 536 1169 518 c 0,37,38
 1169 515 1169 515 1168 512 c 0,39,40
 1160 496 1160 496 1122 466 c 0,41,42
 1012 384 1012 384 703 342 c 0,43,44
 559 322 559 322 455 322 c 0,45,46
 336 322 336 322 270 348 c 0,47,48
 138 402 138 402 124 549 c 0,49,50
 122 565 122 565 122 582 c 0,0,1
EndSplineSet
EndChar

StartChar: d
Encoding: 100 100 69
Width: 1416
GlyphClass: 2
Flags: W
LayerCount: 2
Fore
SplineSet
122 717 m 0,0,1
 122 725 122 725 122 733 c 0,2,3
 126 926 126 926 354 1147 c 128,-1,4
 582 1368 582 1368 786 1372 c 1,5,-1
 934 1372 l 1,6,7
 970 1524 970 1524 1036 1882 c 128,-1,8
 1102 2240 1102 2240 1156 2420 c 0,9,10
 1170 2458 1170 2458 1232 2458 c 0,11,12
 1268 2458 1268 2458 1281 2437 c 128,-1,13
 1294 2416 1294 2416 1294 2352 c 0,14,15
 1294 2242 1294 2242 1266 2220 c 1,16,17
 1234 2204 1234 2204 1204 2040 c 0,18,19
 1106 1564 1106 1564 1088 1423 c 0,20,21
 1081 1368 1081 1368 1081 1326 c 0,22,23
 1081 1261 1081 1261 1098 1228 c 0,24,25
 1130 1170 1130 1170 1134 1060 c 0,26,27
 1134 1046 1134 1046 1134 1034 c 0,28,29
 1134 948 1134 948 1110 934 c 0,30,31
 1100 927 1100 927 1099 898 c 0,32,33
 1099 851 1099 851 1129 746 c 0,34,35
 1176 578 1176 578 1220 544 c 0,36,37
 1252 520 1252 520 1257 487 c 128,-1,38
 1262 454 1262 454 1239 436 c 128,-1,39
 1216 418 1216 418 1180 430 c 0,40,41
 1118 450 1118 450 1048 518 c 128,-1,42
 978 586 978 586 978 622 c 0,43,44
 978 665 978 665 954 665 c 0,45,46
 946 665 946 665 934 660 c 0,47,48
 910 644 910 644 888 602 c 0,49,50
 848 528 848 528 686 420 c 128,-1,51
 524 312 524 312 450 308 c 0,52,53
 445 308 445 308 440 308 c 0,54,55
 299 308 299 308 210 422 c 0,56,57
 122 535 122 535 122 717 c 0,0,1
257 756 m 0,58,59
 257 643 257 643 320 544 c 1,60,61
 356 478 356 478 389 460 c 128,-1,62
 422 442 422 442 492 442 c 1,63,64
 506 438 506 438 521 438 c 0,65,66
 568 438 568 438 625 477 c 0,67,68
 700 528 700 528 809 637 c 128,-1,69
 918 746 918 746 922 750 c 0,70,71
 930 890 930 890 930 990 c 0,72,73
 930 1173 930 1173 902 1220 c 0,74,75
 874 1270 874 1270 761 1278 c 0,76,77
 740 1279 740 1279 721 1279 c 0,78,79
 636 1279 636 1279 582 1250 c 0,80,81
 364 1132 364 1132 288 922 c 0,82,83
 257 835 257 835 257 756 c 0,58,59
EndSplineSet
EndChar

StartChar: e
Encoding: 101 101 70
Width: 1252
GlyphClass: 2
Flags: W
LayerCount: 2
Fore
SplineSet
122 720 m 0,0,1
 122 884 122 884 280 1048 c 128,-1,2
 438 1212 438 1212 672 1294 c 0,3,4
 828 1352 828 1352 872 1352 c 0,5,6
 876 1352 876 1352 879 1352 c 0,7,8
 931 1352 931 1352 1012 1301 c 0,9,10
 1098 1246 1098 1246 1110 1200 c 0,11,12
 1114 1185 1114 1185 1114 1169 c 0,13,14
 1114 1052 1114 1052 903 891 c 0,15,16
 664 708 664 708 442 684 c 1,17,18
 400 695 400 695 374 695 c 0,19,20
 338 695 338 695 331 674 c 0,21,22
 329 669 329 669 326 628 c 0,23,24
 326 591 326 591 390 520 c 0,25,26
 456 442 456 442 623 442 c 128,-1,27
 790 442 790 442 926 488 c 0,28,29
 1044 524 1044 524 1085 528 c 128,-1,30
 1126 532 1126 532 1130 504 c 1,31,32
 1130 450 1130 450 952 397 c 128,-1,33
 774 344 774 344 594 340 c 0,34,35
 582 340 582 340 571 340 c 0,36,37
 328 340 328 340 227 420 c 0,38,39
 122 504 122 504 122 720 c 0,0,1
356 895 m 0,40,41
 356 886 356 886 360 880 c 0,42,43
 391 854 391 854 450 854 c 0,44,45
 493 854 493 854 551 868 c 0,46,47
 688 902 688 902 821 991 c 0,48,49
 937 1068 937 1068 937 1125 c 0,50,51
 937 1134 937 1134 934 1142 c 0,52,53
 918 1188 918 1188 803 1190 c 0,54,55
 798 1190 798 1190 793 1190 c 0,56,57
 684 1190 684 1190 602 1146 c 0,58,59
 512 1100 512 1100 426 1007 c 0,60,61
 356 932 356 932 356 895 c 0,40,41
EndSplineSet
EndChar

StartChar: f
Encoding: 102 102 71
Width: 1157
GlyphClass: 2
Flags: W
LayerCount: 2
Fore
SplineSet
-18 -140 m 0,0,1
 -26 -94 -26 -94 202 193 c 128,-1,2
 430 480 430 480 580 638 c 1,3,-1
 580 1044 l 1,4,5
 482 962 482 962 339 880 c 0,6,7
 234 820 234 820 184 820 c 0,8,9
 165 820 165 820 154 828 c 1,10,11
 90 839 90 839 90 867 c 0,12,13
 90 913 90 913 258 1004 c 0,14,15
 430 1098 430 1098 487 1149 c 128,-1,16
 544 1200 544 1200 571 1276 c 128,-1,17
 598 1352 598 1352 630 1564 c 0,18,19
 676 1868 676 1868 708 1983 c 0,20,21
 739 2093 739 2093 818 2216 c 0,22,23
 893 2332 893 2332 938 2330 c 0,24,25
 1099 2324 1099 2324 1162 2204 c 0,26,27
 1205 2122 1205 2122 1205 2030 c 0,28,29
 1205 1956 1205 1956 1177 1876 c 0,30,31
 1111 1688 1111 1688 884 1392 c 0,32,33
 754 1223 754 1223 733 1173 c 0,34,35
 708 1114 708 1114 708 974 c 1,36,37
 698 870 698 870 698 823 c 0,38,39
 698 784 698 784 705 784 c 2,40,41
 705 784 705 784 706 784 c 0,42,43
 716 784 716 784 766 844 c 1,44,45
 766 844 766 844 830 919 c 0,46,47
 830 919 830 919 956 1030 c 0,48,49
 956 1030 956 1030 956 1030 c 0,50,51
 956 1030 956 1030 1065 1138 c 0,52,53
 1065 1138 1065 1138 1097 1161 c 0,54,55
 1133 1163 1133 1163 1141 1157 c 0,56,57
 1205 1100 1205 1100 1173 1067 c 0,58,-1
 990 934 l 0,59,60
 786 719 786 719 743 639 c 0,61,62
 694 547 694 547 676 376 c 0,63,64
 657 189 657 189 604 4 c 0,65,66
 549 -187 549 -187 494 -278 c 0,67,68
 446 -357 446 -357 360 -394 c 1,69,70
 308 -421 308 -421 279 -421 c 0,71,72
 274 -421 274 -421 269 -420 c 0,73,74
 243 -415 243 -415 168 -352 c 0,75,76
 -7 -206 -7 -206 -18 -140 c 0,0,1
138 -115 m 128,-1,78
 138 -172 138 -172 194 -227 c 128,-1,79
 250 -282 250 -282 302 -282 c 0,80,81
 368 -282 368 -282 448 -104 c 128,-1,82
 528 74 528 74 560 290 c 0,83,84
 571 339 571 339 571 371 c 1,85,86
 584 428 584 428 584 455 c 0,87,88
 584 461 584 461 583 465 c 0,89,90
 582 470 582 470 578 470 c 0,91,92
 567 470 567 470 531 432 c 1,93,94
 479 394 479 394 331 192 c 1,95,77
 138 -58 138 -58 138 -115 c 128,-1,78
715 1429 m 1,96,97
 703 1400 703 1400 703 1390 c 0,98,99
 703 1386 703 1386 706 1386 c 0,100,101
 713 1386 713 1386 734 1410 c 0,102,103
 738 1410 738 1410 748 1426 c 1,104,105
 818 1465 818 1465 966 1688 c 1,106,107
 1028 1790 1028 1790 1056 1876 c 0,108,109
 1104 2008 1104 2008 1104 2041 c 256,110,111
 1104 2074 1104 2074 1068 2114 c 0,112,113
 1014 2174 1014 2174 974 2174 c 0,114,115
 928 2174 928 2174 867 2035 c 128,-1,116
 806 1896 806 1896 774 1732 c 0,117,118
 734 1502 734 1502 724 1474 c 0,119,120
 715 1441 715 1441 715 1429 c 1,96,97
EndSplineSet
EndChar

StartChar: g
Encoding: 103 103 72
Width: 1064
GlyphClass: 2
Flags: W
LayerCount: 2
Fore
SplineSet
123 -146 m 0,0,1
 123 -105 123 -105 136 -62 c 0,2,3
 164 40 164 40 191 81 c 128,-1,4
 218 122 218 122 300 172 c 0,5,6
 366 215 366 215 391 215 c 0,7,8
 407 215 407 215 407 199 c 0,9,10
 407 196 407 196 406 192 c 0,11,12
 402 160 402 160 340 90 c 0,13,14
 260 -2 260 -2 260 -103 c 0,15,16
 260 -110 260 -110 260 -117 c 0,17,18
 266 -226 266 -226 360 -294 c 0,19,20
 418 -340 418 -340 447 -342 c 0,21,22
 449 -342 449 -342 450 -342 c 0,23,24
 479 -342 479 -342 528 -312 c 1,25,26
 598 -284 598 -284 696 -160 c 0,27,28
 754 -82 754 -82 766 -12 c 128,-1,29
 778 58 778 58 778 320 c 0,30,31
 778 688 778 688 758 708 c 0,32,33
 753 715 753 715 742 715 c 0,34,35
 716 715 716 715 656 676 c 0,36,37
 582 626 582 626 446 618 c 0,38,39
 439 618 439 618 432 618 c 0,40,41
 207 618 207 618 176 876 c 0,42,43
 171 912 171 912 171 940 c 0,44,45
 171 983 171 983 182 1009 c 0,46,47
 200 1052 200 1052 300 1156 c 0,48,49
 390 1254 390 1254 469 1287.5 c 128,-1,50
 548 1321 548 1321 654 1333 c 1,51,52
 772 1279 772 1279 789 1279 c 0,53,54
 792 1279 792 1279 792 1281 c 0,55,56
 792 1282 792 1282 790 1285 c 0,57,58
 789 1293 789 1293 789 1302 c 0,59,60
 789 1360 789 1360 846 1436 c 1,61,62
 882 1436 882 1436 935 1385 c 1,63,64
 938 1370 938 1370 938 1330 c 0,65,66
 938 1285 938 1285 934 1208 c 0,67,68
 923 1078 923 1078 923 881 c 0,69,70
 923 652 923 652 938 332 c 0,71,72
 938 320 938 320 938 308 c 0,73,74
 938 181 938 181 901 32 c 0,75,76
 860 -132 860 -132 798 -218 c 0,77,78
 740 -300 740 -300 616 -386 c 128,-1,79
 492 -472 492 -472 434 -472 c 0,80,81
 290 -472 290 -472 192 -338 c 0,82,83
 123 -244 123 -244 123 -146 c 0,0,1
323 914 m 0,84,85
 323 833 323 833 360 794 c 0,86,87
 400 754 400 754 475 754 c 0,88,89
 494 754 494 754 516 757 c 0,90,91
 622 770 622 770 684 832 c 1,92,93
 778 905 778 905 778 1007 c 0,94,95
 778 1080 778 1080 712 1160 c 1,96,97
 696 1196 696 1196 590 1196 c 0,98,99
 520 1196 520 1196 493 1182 c 128,-1,100
 466 1168 466 1168 450 1122 c 0,101,102
 422 1048 422 1048 372 1032 c 0,103,104
 326 1016 326 1016 323 926 c 0,105,106
 323 920 323 920 323 914 c 0,84,85
EndSplineSet
EndChar

StartChar: h
Encoding: 104 104 73
Width: 1104
GlyphClass: 2
Flags: W
LayerCount: 2
Fore
SplineSet
127 366 m 0,0,1
 127 396 127 396 140 430 c 0,2,3
 186 544 186 544 226 1001 c 128,-1,4
 266 1458 266 1458 274 1896 c 0,5,6
 286 2494 286 2494 324 2536 c 0,7,8
 358 2573 358 2573 387 2573 c 0,9,10
 422 2573 422 2573 451 2519 c 0,11,12
 469 2486 469 2486 469 2354 c 0,13,14
 469 2091 469 2091 398 1434 c 0,15,16
 378 1250 378 1250 363 1104 c 128,-1,17
 348 958 348 958 344 889 c 0,18,19
 342 855 342 855 342 837.5 c 128,-1,20
 342 820 342 820 344 820 c 0,21,22
 356 820 356 820 562 1040 c 0,23,24
 730 1216 730 1216 807 1261 c 0,25,26
 846 1284 846 1284 879 1284 c 0,27,28
 911 1284 911 1284 938 1262 c 0,29,30
 982 1227 982 1227 982 1156 c 0,31,32
 982 1146 982 1146 981 1135 c 0,33,34
 974 1048 974 1048 906 840 c 0,35,36
 828 614 828 614 828 458 c 0,37,38
 828 310 828 310 774 310 c 0,39,40
 742 310 742 310 692 360 c 0,41,42
 663 389 663 389 663 454 c 0,43,44
 663 564 663 564 746 778 c 0,45,46
 815 963 815 963 815 1031 c 0,47,48
 815 1059 815 1059 803 1067 c 0,49,50
 798 1070 798 1070 791 1070 c 0,51,52
 740 1070 740 1070 574 892 c 0,53,54
 324 618 324 618 324 438 c 0,55,56
 326 431 326 431 326 424 c 0,57,58
 326 378 326 378 258 312 c 0,59,60
 216 268 216 268 186 268 c 0,61,62
 161 268 161 268 144 300 c 0,63,64
 127 331 127 331 127 366 c 0,0,1
EndSplineSet
EndChar

StartChar: i
Encoding: 105 105 74
Width: 736
GlyphClass: 2
Flags: W
LayerCount: 2
Fore
SplineSet
121 466 m 0,0,1
 121 559 121 559 164 704 c 0,2,3
 209 843 209 843 209 895 c 0,4,5
 208 951 208 951 183 931 c 1,6,7
 142 944 142 944 143 957 c 0,8,9
 143 1014 143 1014 262 1130 c 0,10,11
 278 1148 278 1148 294 1164 c 0,12,13
 428 1283 428 1283 468 1283 c 0,14,15
 472 1283 472 1283 476 1282 c 0,16,17
 520 1268 520 1268 520 1222 c 0,18,19
 520 1162 520 1162 446 1048 c 0,20,21
 294 818 294 818 270 594 c 0,22,23
 268 573 268 573 268 555 c 0,24,25
 268 484 268 484 304 484 c 2,26,27
 304 484 304 484 305 484 c 0,28,29
 308 484 308 484 312 484 c 0,30,31
 320 484 320 484 328 488 c 0,32,33
 501 558 501 558 558 558 c 0,34,35
 587 558 587 558 587 541 c 0,36,37
 587 539 587 539 586 536 c 0,38,39
 574 482 574 482 340 356 c 0,40,41
 269 316 269 316 220 316 c 0,42,43
 136 316 136 316 122 438 c 0,44,45
 121 452 121 452 121 466 c 0,0,1
386 1643 m 0,46,47
 386 1667 386 1667 406 1692 c 0,48,49
 434 1724 434 1724 483 1730 c 0,50,51
 492 1731 492 1731 501 1731 c 0,52,53
 540 1731 540 1731 573 1710 c 0,54,55
 610 1686 610 1686 610 1639 c 0,56,57
 610 1634 610 1634 610 1630 c 0,58,59
 613 1611 613 1611 613 1596 c 0,60,61
 613 1546 613 1546 582 1540 c 0,62,63
 568 1539 568 1539 555 1539 c 0,64,65
 472 1539 472 1539 420 1583 c 0,66,67
 386 1612 386 1612 386 1643 c 0,46,47
EndSplineSet
EndChar

StartChar: j
Encoding: 106 106 75
Width: 743
GlyphClass: 2
Flags: W
LayerCount: 2
Fore
SplineSet
-95 -251 m 0,0,1
 -95 -234 -95 -234 -75 -208 c 0,2,3
 -47 -176 -47 -176 -29 -174 c 0,4,5
 -28 -174 -28 -174 -27 -174 c 0,6,7
 -9 -174 -9 -174 31 -204 c 0,8,9
 100 -253 100 -253 184 -253 c 0,10,11
 235 -253 235 -253 291 -235 c 0,12,13
 441 -188 441 -188 493 -62 c 0,14,15
 517 -7 517 -7 517 67 c 0,16,17
 517 135 517 135 497 218 c 0,18,19
 489 268 489 268 459 423 c 128,-1,20
 429 578 429 578 411 648 c 1,21,22
 379 812 379 812 361 857 c 1,23,24
 362 867 362 867 362 875 c 0,25,26
 362 915 362 915 341 915 c 0,27,28
 335 915 335 915 309 892 c 1,29,30
 299 890 299 890 288 890 c 0,31,32
 246 890 246 890 211 930 c 0,33,34
 187 958 187 958 191 981 c 128,-1,35
 195 1004 195 1004 235 1048 c 0,36,37
 305 1126 305 1126 325 1212 c 0,38,39
 333 1236 333 1236 340 1271 c 128,-1,40
 347 1306 347 1306 351 1319 c 128,-1,41
 355 1332 355 1332 373 1342 c 128,-1,42
 391 1352 391 1352 425 1348 c 0,43,44
 472 1342 472 1342 472 1212 c 0,45,46
 472 1180 472 1180 469 1142 c 0,47,48
 468 1120 468 1120 468 1095 c 0,49,50
 468 915 468 915 543 552 c 1,51,52
 619 160 619 160 619 19 c 0,53,54
 619 15 619 15 619 12 c 0,55,56
 617 -126 617 -126 527 -230 c 0,57,58
 413 -362 413 -362 251 -386 c 0,59,60
 218 -391 218 -391 187 -391 c 0,61,62
 63 -391 63 -391 -39 -316 c 0,63,64
 -85 -280 -85 -280 -93 -261 c 0,65,66
 -95 -257 -95 -257 -95 -251 c 0,0,1
197 1647 m 0,67,68
 197 1672 197 1672 211 1700 c 0,69,70
 241 1758 241 1758 290 1758 c 0,71,72
 337 1758 337 1758 403 1704 c 0,73,74
 449 1668 449 1668 455 1647 c 0,75,76
 456 1643 456 1643 456 1638 c 0,77,78
 456 1620 456 1620 437 1594 c 1,79,80
 383 1544 383 1544 320 1542 c 0,81,82
 318 1542 318 1542 315 1542 c 0,83,84
 255 1542 255 1542 218 1589 c 0,85,86
 197 1616 197 1616 197 1647 c 0,67,68
EndSplineSet
EndChar

StartChar: k
Encoding: 107 107 76
Width: 1138
GlyphClass: 2
Flags: W
LayerCount: 2
Fore
SplineSet
128 347.5 m 128,-1,1
 128 371 128 371 144 402 c 0,2,3
 172 460 172 460 174 601 c 0,4,5
 174 610 174 610 174 619 c 0,6,7
 174 745 174 745 147 787 c 0,8,9
 136 804 136 804 136 829 c 0,10,11
 136 867 136 867 164 922 c 1,12,13
 188 980 188 980 205 1068 c 128,-1,14
 222 1156 222 1156 228 1227 c 128,-1,15
 234 1298 234 1298 242 1423 c 128,-1,16
 250 1548 250 1548 254 1606 c 0,17,18
 294 2176 294 2176 336 2228 c 0,19,20
 355 2250 355 2250 384 2250 c 0,21,22
 397 2250 397 2250 411 2246 c 0,23,24
 458 2232 458 2232 458 2192 c 1,25,26
 422 2070 422 2070 385 1715 c 128,-1,27
 348 1360 348 1360 336 1290 c 0,28,29
 316 1170 316 1170 316 1128 c 0,30,31
 316 1110 316 1110 320 1106 c 0,32,33
 328 1094 328 1094 363 1108 c 128,-1,34
 398 1122 398 1122 449 1157 c 128,-1,35
 500 1192 500 1192 545 1227 c 128,-1,36
 590 1262 590 1262 639 1299 c 128,-1,37
 688 1336 688 1336 696 1344 c 0,38,39
 716 1360 716 1360 832 1458 c 0,40,41
 922 1532 922 1532 957 1538 c 0,42,43
 961 1539 961 1539 965 1539 c 0,44,45
 994 1539 994 1539 1008 1496 c 0,46,47
 1016 1476 1016 1476 1016 1457 c 0,48,49
 1016 1376 1016 1376 876 1314 c 1,50,51
 766 1260 766 1260 540 1106 c 1,52,53
 331 957 331 957 331 871 c 0,54,55
 331 862 331 862 333 854 c 0,56,57
 356 766 356 766 668 606 c 0,58,59
 902 484 902 484 902 430 c 0,60,61
 902 402 902 402 891 396 c 128,-1,62
 880 390 880 390 832 390 c 0,63,64
 812 390 812 390 798 390 c 0,65,66
 744 390 744 390 529.5 512 c 128,-1,67
 315 634 315 634 303 638 c 1,68,69
 281 638 281 638 281 523 c 0,70,71
 281 494 281 494 282 458 c 1,72,73
 274 396 274 396 250 352 c 128,-1,74
 226 308 226 308 197 297 c 0,75,76
 187 293 187 293 178 293 c 0,77,78
 160 293 160 293 144 308 c 0,79,0
 128 324 128 324 128 347.5 c 128,-1,1
EndSplineSet
EndChar

StartChar: l
Encoding: 108 108 77
Width: 909
GlyphClass: 2
Flags: W
LayerCount: 2
Fore
SplineSet
-38 677 m 0,0,1
 -38 698 -38 698 -26 724 c 0,2,3
 -6 756 -6 756 22 742 c 0,4,5
 35 735 35 735 51 735 c 0,6,7
 79 735 79 735 116 758 c 1,8,9
 156 778 156 778 167 829 c 128,-1,10
 178 880 178 880 178 1064 c 0,11,12
 178 1470 178 1470 286 1818 c 128,-1,13
 394 2166 394 2166 550 2248 c 0,14,15
 633 2296 633 2296 672 2296 c 0,16,17
 674 2296 674 2296 675 2296 c 0,18,19
 714 2294 714 2294 780 2240 c 0,20,21
 830 2200 830 2200 844 2155 c 0,22,23
 855 2120 855 2120 855 2042 c 0,24,25
 855 2020 855 2020 854 1994 c 0,26,27
 842 1576 842 1576 432 926 c 1,28,29
 368 804 368 804 322 735 c 1,30,31
 346 671 346 671 348 674 c 1,32,33
 395 582 395 582 455 536 c 1,34,35
 503 484 503 484 551 484 c 1,36,-1
 627 516 l 1,37,38
 652 516 652 516 678 520 c 0,39,40
 713 526 713 526 737 526 c 0,41,42
 789 526 789 526 789 498 c 0,43,44
 789 495 789 495 788 492 c 0,45,46
 776 430 776 430 644 352 c 0,47,48
 582 316 582 316 554 316 c 0,49,50
 496 316 496 316 396 400 c 128,-1,51
 296 484 296 484 256 566 c 0,52,53
 220 632 220 632 203 638 c 0,54,55
 199 639 199 639 193 639 c 0,56,57
 171 639 171 639 116 622 c 0,58,59
 67 606 67 606 34.5 606 c 128,-1,60
 2 606 2 606 -14 622 c 0,61,62
 -38 646 -38 646 -38 677 c 0,0,1
304 1160 m 1,63,64
 297 1055 297 1055 297 996 c 0,65,66
 297 926 297 926 307 924 c 0,67,68
 315 924 315 924 350 1012 c 1,69,70
 404 1066 404 1066 572 1400 c 0,71,72
 708 1662 708 1662 740 1818 c 0,73,74
 751 1873 751 1873 751 1923 c 0,75,76
 751 2012 751 2012 714 2080 c 0,77,78
 681 2139 681 2139 634 2139 c 0,79,80
 616 2139 616 2139 595 2130 c 0,81,82
 522 2098 522 2098 456 1970 c 0,83,84
 402 1868 402 1868 353 1600 c 128,-1,85
 304 1332 304 1332 304 1160 c 1,63,64
EndSplineSet
EndChar

StartChar: m
Encoding: 109 109 78
Width: 1502
GlyphClass: 2
Flags: W
LayerCount: 2
Fore
SplineSet
120 453 m 0,0,1
 120 500 120 500 144 548 c 0,2,3
 156 580 156 580 178 933 c 128,-1,4
 200 1286 200 1286 222 1324 c 0,5,6
 243 1358 243 1358 265 1358 c 0,7,8
 297 1358 297 1358 332 1290 c 0,9,10
 353 1252 353 1252 353 1150 c 0,11,12
 353 1030 353 1030 324 820 c 1,13,-1
 552 1056 l 2,14,15
 778 1288 778 1288 855 1288 c 0,16,17
 884 1288 884 1288 892 1254 c 0,18,19
 898 1232 898 1232 898 1208 c 0,20,21
 898 1106 898 1106 864 1000 c 0,22,23
 839 910 839 910 838 870 c 0,24,25
 838 836 838 836 856 836 c 0,26,27
 872 836 872 836 906 898 c 0,28,29
 934 952 934 952 983 1015 c 128,-1,30
 1032 1078 1032 1078 1096 1151 c 128,-1,31
 1160 1224 1160 1224 1184 1254 c 0,32,33
 1240 1320 1240 1320 1294 1320 c 0,34,35
 1304 1320 1304 1320 1314 1318 c 0,36,37
 1364 1310 1364 1310 1374 1276 c 0,38,39
 1381 1252 1381 1252 1381 1173 c 0,40,41
 1381 1142 1381 1142 1380 1102 c 0,42,43
 1376 902 1376 902 1315 648 c 128,-1,44
 1254 394 1254 394 1208 394 c 0,45,46
 1168 394 1168 394 1168 527 c 128,-1,47
 1168 660 1168 660 1208 860 c 0,48,49
 1241 1021 1241 1021 1241 1083 c 0,50,51
 1241 1122 1241 1122 1228 1122 c 0,52,53
 1227 1122 1227 1122 1226 1122 c 0,54,55
 1193 1122 1193 1122 1090 970 c 0,56,57
 1062 930 1062 930 1028 880 c 0,58,59
 824 576 824 576 812 500 c 0,60,61
 796 410 796 410 742 360 c 0,62,63
 714 336 714 336 699 330 c 0,64,65
 693 328 693 328 688 328 c 0,66,67
 680 328 680 328 674 334 c 0,68,69
 664 344 664 344 648 376 c 0,70,71
 632 406 632 406 632 470 c 0,72,73
 632 567 632 567 668 742 c 0,74,75
 713 968 713 968 713 1040 c 0,76,77
 713 1073 713 1073 704 1074 c 0,78,79
 684 1074 684 1074 606 988 c 0,80,81
 528 906 528 906 414 709 c 128,-1,82
 300 512 300 512 300 466 c 0,83,84
 300 426 300 426 261 387 c 128,-1,85
 222 348 222 348 184 348 c 0,86,87
 138 348 138 348 124 414 c 0,88,89
 120 433 120 433 120 453 c 0,0,1
EndSplineSet
EndChar

StartChar: n
Encoding: 110 110 79
Width: 974
GlyphClass: 2
Flags: W
LayerCount: 2
Fore
SplineSet
124 403 m 0,0,1
 124 515 124 515 164 962 c 0,2,3
 168 976 168 976 168 995 c 128,-1,4
 168 1014 168 1014 164 1038 c 0,5,6
 156 1086 156 1086 146 1141 c 128,-1,7
 136 1196 136 1196 127 1243 c 0,8,9
 124 1261 124 1261 124 1276 c 0,10,11
 124 1302 124 1302 133 1323 c 0,12,13
 148 1356 148 1356 184 1356 c 0,14,15
 298 1356 298 1356 308 1040 c 1,16,17
 287 853 287 853 287 796 c 0,18,19
 287 772 287 772 291 771 c 2,20,21
 291 771 291 771 292 771 c 0,22,23
 301 771 301 771 352 898 c 1,24,25
 488 1090 488 1090 547 1155 c 128,-1,26
 606 1220 606 1220 660 1250 c 0,27,28
 723 1281 723 1281 767 1281 c 0,29,30
 829 1281 829 1281 852 1220 c 0,31,32
 852 1217 852 1217 852 1213 c 0,33,34
 852 1150 852 1150 797 851 c 0,35,36
 738 532 738 532 738 488 c 0,37,38
 738 366 738 366 676 352 c 1,39,40
 640 348 640 348 631 377 c 128,-1,41
 622 406 622 406 622 524 c 0,42,43
 622 610 622 610 661 831 c 128,-1,44
 700 1052 700 1052 700 1098 c 1,45,46
 695 1102 695 1102 688 1102 c 0,47,48
 668 1102 668 1102 635 1067 c 0,49,50
 590 1020 590 1020 526 918 c 128,-1,51
 462 816 462 816 394 672 c 0,52,53
 238 348 238 348 172 348 c 0,54,55
 132 348 132 348 126 368 c 0,56,57
 124 376 124 376 124 403 c 0,0,1
EndSplineSet
EndChar

StartChar: o
Encoding: 111 111 80
Width: 915
GlyphClass: 2
Flags: W
LayerCount: 2
Fore
SplineSet
68 618 m 0,0,1
 68 657 68 657 73 704 c 0,2,3
 93 912 93 912 155 1072 c 128,-1,4
 217 1232 217 1232 287 1258 c 0,5,6
 376 1291 376 1291 459 1291 c 0,7,8
 551 1291 551 1291 635 1250 c 0,9,10
 795 1172 795 1172 830 1020 c 0,11,12
 839 981 839 981 839 941 c 0,13,14
 839 825 839 825 763 700 c 1,15,16
 689 594 689 594 525 502 c 128,-1,17
 361 410 361 410 251 410 c 0,18,19
 137 410 137 410 97 475 c 0,20,21
 68 521 68 521 68 618 c 0,0,1
179 654 m 0,22,23
 179 584 179 584 209 540 c 0,24,25
 225 514 225 514 264 514 c 0,26,27
 323 514 323 514 434 573 c 0,28,29
 619 672 619 672 685 790 c 0,30,31
 721 861 721 861 721 936 c 0,32,33
 721 964 721 964 716 993 c 0,34,35
 697 1098 697 1098 619 1146 c 0,36,37
 573 1174 573 1174 524 1187 c 0,38,39
 494 1195 494 1195 470 1195 c 0,40,41
 456 1195 456 1195 444 1192 c 0,42,43
 413 1184 413 1184 413 1156 c 0,44,45
 413 1116 413 1116 345 1052 c 0,46,47
 247 962 247 962 201 792 c 0,48,49
 180 714 180 714 179 654 c 0,22,23
EndSplineSet
EndChar

StartChar: p
Encoding: 112 112 81
Width: 1002
GlyphClass: 2
Flags: W
LayerCount: 2
Fore
SplineSet
121 -497 m 0,0,1
 121 -455 121 -455 140 -394 c 1,2,3
 160 -358 160 -358 183 503 c 128,-1,4
 206 1364 206 1364 218 1400 c 0,5,6
 237 1452 237 1452 266 1452 c 0,7,8
 282 1452 282 1452 300 1438 c 0,9,10
 344 1407 344 1407 344 1338 c 0,11,12
 344 1335 344 1335 344 1332 c 0,13,14
 344 1230 344 1230 369 1215 c 0,15,16
 375 1211 375 1211 386 1211 c 0,17,18
 418 1211 418 1211 492 1246 c 0,19,20
 606 1294 606 1294 693 1294 c 0,21,22
 747 1294 747 1294 791 1276 c 0,23,24
 880 1239 880 1239 880 1148 c 0,25,26
 880 1121 880 1121 872 1090 c 0,27,28
 848 968 848 968 690 783 c 128,-1,29
 532 598 532 598 386 520 c 0,30,31
 324 488 324 488 312 422 c 128,-1,32
 300 356 300 356 282 12 c 0,33,34
 262 -454 262 -454 208 -512 c 0,35,36
 171 -553 171 -553 149.5 -553 c 128,-1,37
 128 -553 128 -553 122 -512 c 0,38,39
 121 -505 121 -505 121 -497 c 0,0,1
331 692 m 1,40,41
 357 638 357 638 383 638 c 0,42,43
 420 638 420 638 593 808 c 128,-1,44
 766 978 766 978 766 1016 c 0,45,46
 766 1074 766 1074 716 1114 c 1,47,48
 671 1159 671 1159 617 1159 c 0,49,50
 504 1157 504 1157 409 1072 c 0,51,52
 339 1010 339 1010 339 965 c 2,53,-1
 340 953 l 1,54,55
 340 904 340 904 336 790 c 0,56,57
 331 732 331 732 331 692 c 1,40,41
EndSplineSet
EndChar

StartChar: q
Encoding: 113 113 82
Width: 1018
GlyphClass: 2
Flags: W
LayerCount: 2
Fore
SplineSet
121 616 m 0,0,1
 121 657 121 657 132 704 c 0,2,3
 172 892 172 892 322 1036 c 0,4,5
 451 1159 451 1159 564 1159 c 0,6,7
 583 1159 583 1159 602 1156 c 0,8,9
 624 1148 624 1148 645 1148 c 0,10,11
 696 1148 696 1148 744 1195 c 0,12,13
 812 1262 812 1262 848 1262 c 128,-1,14
 884 1262 884 1262 891 1245 c 0,15,16
 894 1238 894 1238 894 1225 c 0,17,18
 894 1207 894 1207 888 1176 c 0,19,20
 848 958 848 958 797 747 c 128,-1,21
 746 536 746 536 723 397 c 128,-1,22
 700 258 700 258 680 -32 c 0,23,24
 640 -544 640 -544 598 -552 c 0,25,26
 596 -553 596 -553 594 -553 c 0,27,28
 587 -553 587 -553 574 -540 c 0,29,30
 551 -521 551 -521 551 -259 c 0,31,32
 551 -248 551 -248 551 -237 c 0,33,34
 552 46 552 46 582 278 c 0,35,36
 592 356 592 356 592 402 c 0,37,38
 592 452 592 452 580 463 c 0,39,40
 574 468 574 468 562 468 c 0,41,42
 526 468 526 468 430 422 c 0,43,44
 370 392 370 392 317 392 c 0,45,46
 248 392 248 392 192 444 c 0,47,48
 121 510 121 510 121 616 c 0,0,1
272 685 m 0,49,50
 272 669 272 669 274 652 c 0,51,52
 278 586 278 586 299 567 c 128,-1,53
 320 548 320 548 386 540 c 0,54,55
 396 539 396 539 406 539 c 0,56,57
 450 539 450 539 480 555 c 1,58,59
 553 567 553 567 603 623 c 1,60,61
 670 690 670 690 670 785 c 0,62,63
 670 813 670 813 664 843 c 1,64,65
 670 860 670 860 670 873 c 128,-1,66
 670 886 670 886 664 894 c 1,67,68
 669 918 669 918 669 937 c 0,69,70
 669 998 669 998 618 1001 c 1,71,72
 594 1009 594 1009 561 1004 c 0,73,74
 554 1006 554 1006 548.5 1006 c 128,-1,75
 543 1006 543 1006 538 1004 c 0,76,77
 528 1000 528 1000 520 994 c 128,-1,78
 512 988 512 988 494 973 c 128,-1,79
 476 958 476 958 450 946 c 0,80,81
 272 843 272 843 272 685 c 0,49,50
EndSplineSet
EndChar

StartChar: r
Encoding: 114 114 83
Width: 854
GlyphClass: 2
Flags: W
LayerCount: 2
Fore
SplineSet
124 421 m 0,0,1
 124 475 124 475 144 562 c 0,2,3
 184 766 184 766 184 967 c 128,-1,4
 184 1168 184 1168 203 1229 c 128,-1,5
 222 1290 222 1290 278 1290 c 0,6,7
 294 1290 294 1290 305 1286 c 128,-1,8
 316 1282 316 1282 322 1272 c 128,-1,9
 328 1262 328 1262 332 1252 c 128,-1,10
 336 1242 336 1242 332 1220.5 c 128,-1,11
 328 1199 328 1199 319.5 1162.5 c 128,-1,12
 311 1126 311 1126 317 1107.5 c 128,-1,13
 323 1089 323 1089 347 1133 c 1,14,-1
 478 1253 l 1,15,16
 592 1320 592 1320 645 1336 c 1,17,18
 664 1337 664 1337 685 1345 c 1,19,20
 720 1345 720 1345 762 1336 c 1,21,22
 814 1316 814 1316 814 1295 c 0,23,24
 814 1269 814 1269 730 1242 c 0,25,26
 714 1234 714 1234 688 1228 c 0,27,28
 548 1192 548 1192 471 1073 c 128,-1,29
 394 954 394 954 348 708 c 0,30,31
 278 323 278 323 186 323 c 0,32,33
 181 323 181 323 176 324 c 0,34,35
 160 328 160 328 148 340 c 0,36,37
 124 361 124 361 124 421 c 0,0,1
EndSplineSet
EndChar

StartChar: s
Encoding: 115 115 84
Width: 1122
GlyphClass: 2
Flags: W
LayerCount: 2
Fore
SplineSet
-66 504 m 0,0,1
 -66 562 -66 562 4 578 c 0,2,3
 36 587 36 587 59 587 c 0,4,5
 122 587 122 587 124 524 c 0,6,7
 124 484 124 484 263 463 c 0,8,9
 342 451 342 451 429 451 c 0,10,11
 495 451 495 451 566 458 c 0,12,13
 742 474 742 474 809 516 c 0,14,15
 847 540 847 540 847 567 c 0,16,17
 847 587 847 587 825 609 c 0,18,19
 774 660 774 660 610 716 c 0,20,21
 560 732 560 732 430 780 c 128,-1,22
 300 828 300 828 258 840 c 0,23,24
 180 868 180 868 152 893 c 128,-1,25
 124 918 124 918 124 962 c 0,26,27
 124 1036 124 1036 172 1086 c 0,28,29
 234 1148 234 1148 500 1196 c 0,30,31
 638 1222 638 1222 678 1222 c 0,32,33
 681 1222 681 1222 683 1222 c 0,34,35
 718 1220 718 1220 762 1176 c 0,36,37
 817 1127 817 1127 817 1086 c 0,38,39
 817 1042 817 1042 754 1008 c 0,40,41
 733 999 733 999 714 999 c 0,42,43
 675 999 675 999 640 1036 c 1,44,45
 624 1068 624 1068 580 1079 c 0,46,47
 555 1085 555 1085 527 1085 c 0,48,49
 507 1085 507 1085 485 1082 c 0,50,51
 434 1074 434 1074 385 1055 c 128,-1,52
 336 1036 336 1036 308 1013 c 128,-1,53
 280 990 280 990 284 974 c 1,54,55
 284 954 284 954 578 852 c 1,56,57
 1005 713 1005 713 1005 580 c 0,58,59
 1005 526 1005 526 934 472 c 0,60,61
 906 452 906 452 864 430 c 0,62,63
 728 360 728 360 438 360 c 0,64,65
 -66 360 -66 360 -66 504 c 0,0,1
EndSplineSet
EndChar

StartChar: t
Encoding: 116 116 85
Width: 1064
GlyphClass: 2
Flags: W
LayerCount: 2
Fore
SplineSet
21 1033 m 1,0,1
 45 1057 45 1057 119 1083 c 0,2,3
 235 1119 235 1119 274 1132 c 2,4,-1
 364 1156 l 2,5,6
 406 1164 406 1164 504 1536 c 0,7,8
 540 1676 540 1676 592 1852 c 128,-1,9
 644 2028 644 2028 699 2216 c 128,-1,10
 754 2404 754 2404 778 2482 c 0,11,12
 789 2518 789 2518 844 2518 c 0,13,14
 850 2518 850 2518 856 2518 c 0,15,16
 922 2514 922 2514 938 2470 c 0,17,18
 941 2459 941 2459 941 2444 c 0,19,20
 941 2389 941 2389 894 2290 c 0,21,22
 828 2158 828 2158 683.5 1724.5 c 128,-1,23
 539 1291 539 1291 535 1205 c 0,24,25
 535 1197 535 1197 546 1197 c 0,26,27
 564 1197 564 1197 612 1220 c 1,28,29
 638 1220 638 1220 680 1228 c 0,30,31
 733 1239 733 1239 770 1239 c 0,32,33
 828 1239 828 1239 848 1212 c 0,34,35
 864 1192 864 1192 840 1172 c 0,36,37
 804 1144 804 1144 676 1106 c 1,38,39
 554 1074 554 1074 515 1006 c 128,-1,40
 476 938 476 938 460 720 c 1,41,42
 448 612 448 612 448 559 c 0,43,44
 448 539 448 539 450 526 c 0,45,46
 450 522 450 522 450 519 c 0,47,48
 450 486 450 486 482 462 c 0,49,50
 507 446 507 446 551 438 c 1,51,52
 602 464 602 464 670 498 c 1,53,54
 736 546 736 546 771 546 c 0,55,56
 784 546 784 546 793 539 c 1,57,58
 805 539 805 539 820 520 c 0,59,60
 824 512 824 512 824 488 c 0,61,62
 824 456 824 456 666 355 c 128,-1,63
 508 254 508 254 456 254 c 0,64,65
 410 254 410 254 348 324 c 0,66,67
 302 370 302 370 295 418 c 0,68,69
 292 436 292 436 292 467 c 0,70,71
 292 521 292 521 300 614 c 0,72,73
 312 782 312 782 340 902 c 0,74,75
 347 932 347 932 347 949 c 0,76,77
 347 967 347 967 339 968 c 1,78,79
 333 1006 333 1006 327 993 c 0,80,81
 324 994 324 994 319 994 c 0,82,83
 296 994 296 994 221 968 c 0,84,85
 165 950 165 950 159 936 c 1,86,87
 144 947 144 947 102 927 c 1,88,89
 71 933 71 933 54 958 c 0,90,91
 21 999 21 999 21 1033 c 1,0,1
EndSplineSet
EndChar

StartChar: u
Encoding: 117 117 86
Width: 1118
GlyphClass: 2
Flags: W
LayerCount: 2
Fore
SplineSet
123 518 m 0,0,1
 123 628 123 628 164 798 c 0,2,3
 226 1056 226 1056 269 1142 c 128,-1,4
 312 1228 312 1228 376 1228 c 0,5,6
 463 1228 463 1228 463 1165 c 0,7,8
 463 1109 463 1109 394 1004 c 0,9,10
 328 902 328 902 270 695 c 0,11,12
 233 565 233 565 233 503 c 0,13,14
 233 467 233 467 246 454 c 0,15,16
 256 444 256 444 273 444 c 0,17,18
 341 444 341 444 512 612 c 0,19,20
 724 820 724 820 754 942 c 0,21,22
 832 1262 832 1262 930 1262 c 0,23,24
 992 1262 992 1262 996 1180 c 0,25,26
 996 1174 996 1174 996 1169 c 0,27,28
 996 1091 996 1091 946 992 c 0,29,30
 880 866 880 866 848 666 c 0,31,32
 831 559 831 559 831 471 c 0,33,34
 831 394 831 394 844 332 c 0,35,36
 846 324 846 324 846 316 c 0,37,38
 846 287 846 287 821 269 c 0,39,40
 801 254 801 254 775 254 c 0,41,42
 762 254 762 254 747 258 c 0,43,44
 704 270 704 270 680 312 c 0,45,46
 659 351 659 351 659 415 c 0,47,48
 659 426 659 426 660 437 c 0,49,50
 664 516 664 516 696 566 c 0,51,52
 724 612 724 612 688 590 c 1,53,54
 652 574 652 574 566 500 c 0,55,56
 361 319 361 319 249 319 c 0,57,58
 211 319 211 319 183 340 c 0,59,60
 123 385 123 385 123 518 c 0,0,1
EndSplineSet
EndChar

StartChar: v
Encoding: 118 118 87
Width: 907
GlyphClass: 2
Flags: W
LayerCount: 2
Fore
SplineSet
121 410 m 0,0,1
 121 467 121 467 136 552 c 0,2,3
 168 756 168 756 168 984 c 1,4,5
 176 1286 176 1286 251 1286 c 0,6,7
 252 1286 252 1286 254 1286 c 0,8,9
 278 1286 278 1286 311 1253 c 128,-1,10
 344 1220 344 1220 346 1165 c 0,11,12
 346 1161 346 1161 346 1156 c 0,13,14
 346 1097 346 1097 324 942 c 0,15,16
 299 766 299 766 299 704 c 0,17,18
 299 677 299 677 304 672 c 1,19,20
 304 672 304 672 305 672 c 0,21,22
 319 672 319 672 498 891 c 0,23,24
 684 1118 684 1118 734 1196 c 0,25,26
 738 1204 738 1204 766 1251 c 128,-1,27
 794 1298 794 1298 809 1317 c 128,-1,28
 824 1336 824 1336 852 1356 c 0,29,30
 875 1373 875 1373 903 1373 c 0,31,32
 909 1373 909 1373 914 1372 c 0,33,34
 954 1356 954 1356 970 1356 c 0,35,36
 983 1356 983 1356 983 1344 c 0,37,38
 983 1292 983 1292 754 1016 c 1,39,40
 546 774 546 774 390 540 c 1,41,42
 231 309 231 309 166 309 c 0,43,44
 129 309 129 309 122 386 c 0,45,46
 121 397 121 397 121 410 c 0,0,1
EndSplineSet
EndChar

StartChar: w
Encoding: 119 119 88
Width: 1530
GlyphClass: 2
Flags: W
LayerCount: 2
Fore
SplineSet
122 418 m 0,0,1
 122 425 122 425 122 432 c 0,2,3
 122 526 122 526 168 758 c 0,4,5
 223 1049 223 1049 223 1091 c 0,6,7
 223 1096 223 1096 222 1098 c 0,8,9
 218 1106 218 1106 218 1114 c 0,10,11
 218 1142 218 1142 257 1183 c 128,-1,12
 296 1224 296 1224 326 1224 c 0,13,14
 335 1224 335 1224 344 1220 c 0,15,16
 384 1205 384 1205 384 1133 c 0,17,18
 384 1073 384 1073 356 974 c 0,19,20
 332 888 332 888 313 774 c 128,-1,21
 294 660 294 660 290 590 c 0,22,23
 289 574 289 574 289 562 c 0,24,25
 289 518 289 518 300 512 c 1,26,27
 328 524 328 524 496 741 c 128,-1,28
 664 958 664 958 724 1064 c 0,29,30
 807 1203 807 1203 861 1203 c 0,31,32
 887 1203 887 1203 906 1172 c 0,33,34
 909 1167 909 1167 909 1158 c 0,35,36
 909 1113 909 1113 840 978 c 0,37,38
 794 892 794 892 766 768 c 128,-1,39
 738 644 738 644 736 564 c 0,40,41
 736 559 736 559 736 554 c 0,42,43
 736 484 736 484 762 472 c 1,44,45
 840 472 840 472 1041 775 c 128,-1,46
 1242 1078 1242 1078 1242 1192 c 0,47,48
 1242 1258 1242 1258 1303 1303 c 0,49,50
 1333 1325 1333 1325 1360 1325 c 128,-1,51
 1387 1325 1387 1325 1410 1302 c 0,52,53
 1412 1300 1412 1300 1412 1294 c 0,54,55
 1412 1248 1412 1248 1266 970 c 0,56,57
 1130 712 1130 712 946 493 c 0,58,59
 775 289 775 289 695 289 c 0,60,61
 689 289 689 289 684 290 c 0,62,63
 638 298 638 298 610 405 c 0,64,65
 592 473 592 473 592 539 c 0,66,67
 592 577 592 577 598 614 c 0,68,69
 610 676 610 676 602 676 c 0,70,71
 590 676 590 676 496 566 c 0,72,73
 352 394 352 394 289 340 c 0,74,75
 242 300 242 300 209 300 c 0,76,77
 198 300 198 300 188 304 c 0,78,79
 126 328 126 328 122 418 c 0,0,1
EndSplineSet
EndChar

StartChar: x
Encoding: 120 120 89
Width: 1248
GlyphClass: 2
Flags: W
LayerCount: 2
Fore
SplineSet
122 254 m 1,0,1
 126 332 126 332 454 806 c 1,2,-1
 300 974 l 2,3,4
 174 1114 174 1114 159 1151 c 0,5,6
 156 1159 156 1159 156 1167 c 0,7,8
 156 1199 156 1199 200 1242 c 0,9,10
 245 1287 245 1287 281 1287 c 0,11,12
 292 1287 292 1287 301 1283 c 0,13,14
 344 1266 344 1266 402 1150 c 0,15,16
 460 1040 460 1040 484 1001 c 128,-1,17
 508 962 508 962 553 958 c 0,18,19
 557 958 557 958 561 958 c 0,20,21
 601 958 601 958 639 993 c 0,22,23
 680 1032 680 1032 778 1138 c 0,24,25
 990 1362 990 1362 1074 1362 c 0,26,27
 1100 1362 1100 1362 1114 1340 c 0,28,29
 1126 1322 1126 1322 1126 1290 c 0,30,31
 1126 1228 1126 1228 1056 1200 c 0,32,33
 990 1172 990 1172 864 1051 c 128,-1,34
 738 930 738 930 652 828 c 1,35,36
 668 816 668 816 731 760 c 128,-1,37
 794 704 794 704 841 663 c 128,-1,38
 888 622 888 622 944 569 c 128,-1,39
 1000 516 1000 516 1030 473 c 128,-1,40
 1060 430 1060 430 1060 406 c 0,41,42
 1060 344 1060 344 1021 344 c 0,43,44
 953 344 953 344 766 536 c 0,45,46
 578 724 578 724 558 724 c 0,47,48
 530 724 530 724 386 505 c 128,-1,49
 242 286 242 286 242 242 c 0,50,51
 242 206 242 206 215 195 c 0,52,53
 204 191 204 191 194 191 c 0,54,55
 177 191 177 191 160 201 c 0,56,57
 132 218 132 218 122 254 c 1,0,1
EndSplineSet
EndChar

StartChar: y
Encoding: 121 121 90
Width: 875
GlyphClass: 2
Flags: W
LayerCount: 2
Fore
SplineSet
-20 -275 m 0,0,1
 -20 -241 -20 -241 -11 -204 c 0,2,3
 9 -94 9 -94 41 -94 c 1,4,5
 69 -98 69 -98 69 -184 c 0,6,7
 69 -294 69 -294 123 -321 c 0,8,9
 142 -331 142 -331 172 -331 c 0,10,11
 224 -331 224 -331 307 -300 c 0,12,13
 650 -165 650 -165 650 351 c 0,14,15
 650 445 650 445 639 552 c 2,16,-1
 619 734 l 1,17,-1
 529 602 l 2,18,19
 431 458 431 458 369 432 c 0,20,21
 353 425 353 425 337 425 c 0,22,23
 290 425 290 425 243 480 c 0,24,25
 203 530 203 530 186 603 c 128,-1,26
 169 676 169 676 151 880 c 1,27,28
 142 1070 142 1070 142 1158 c 0,29,30
 142 1223 142 1223 147 1232 c 0,31,32
 155 1248 155 1248 190 1255 c 0,33,34
 212 1259 212 1259 233 1259 c 0,35,36
 245 1259 245 1259 256 1258 c 0,37,38
 287 1254 287 1254 287 1236 c 0,39,40
 295 1052 295 1052 316 843 c 128,-1,41
 337 634 337 634 353 618 c 0,42,43
 357 615 357 615 362 615 c 0,44,45
 394 615 394 615 475 724 c 0,46,47
 573 864 573 864 573 1024 c 0,48,49
 573 1200 573 1200 607 1290 c 0,50,51
 623 1336 623 1336 646 1360 c 0,52,53
 666 1381 666 1381 683 1381 c 0,54,55
 686 1381 686 1381 689 1380 c 0,56,57
 739 1368 739 1368 755 778 c 0,58,59
 758 655 758 655 758 551 c 0,60,61
 758 230 758 230 730 94 c 0,62,63
 693 -86 693 -86 545 -258 c 0,64,65
 364 -472 364 -472 168 -472 c 0,66,67
 165 -472 165 -472 161 -472 c 0,68,69
 5 -464 5 -464 -17 -312 c 0,70,71
 -20 -294 -20 -294 -20 -275 c 0,0,1
EndSplineSet
EndChar

StartChar: z
Encoding: 122 122 91
Width: 1354
GlyphClass: 2
Flags: W
LayerCount: 2
Fore
SplineSet
124 459 m 0,0,1
 124 501 124 501 140 544 c 0,2,3
 168 618 168 618 348 764 c 128,-1,4
 528 910 528 910 734 1028 c 0,5,6
 919 1135 919 1135 919 1161 c 0,7,8
 919 1163 919 1163 918 1164 c 0,9,10
 910 1175 910 1175 873 1175 c 0,11,12
 831 1175 831 1175 750 1161 c 0,13,14
 598 1134 598 1134 446 1086 c 0,15,16
 365 1059 365 1059 312 1059 c 0,17,18
 204 1059 204 1059 204 1168 c 0,19,20
 204 1218 204 1218 288 1242 c 128,-1,21
 372 1266 372 1266 626 1290 c 0,22,23
 898 1312 898 1312 1031 1312 c 0,24,25
 1064 1312 1064 1312 1089 1311 c 0,26,27
 1212 1304 1212 1304 1212 1250 c 0,28,29
 1212 1204 1212 1204 1112 1116 c 128,-1,30
 1012 1028 1012 1028 848 938 c 1,31,32
 402 676 402 676 348 578 c 0,33,34
 332 550 332 550 340 543 c 128,-1,35
 348 536 348 536 381 549 c 128,-1,36
 414 562 414 562 748 631 c 128,-1,37
 1082 700 1082 700 1094 704 c 0,38,39
 1106 707 1106 707 1119 707 c 0,40,41
 1157 707 1157 707 1196 680 c 0,42,43
 1230 657 1230 657 1230 637 c 128,-1,44
 1230 617 1230 617 1180 552 c 0,45,46
 1130 490 1130 490 1074 490 c 0,47,48
 1052 490 1052 490 1028 500 c 0,49,50
 998 511 998 511 947 511 c 0,51,52
 782 511 782 511 394 398 c 0,53,54
 234 348 234 348 184 348 c 0,55,56
 144 348 144 348 129 412 c 0,57,58
 124 435 124 435 124 459 c 0,0,1
EndSplineSet
EndChar

StartChar: braceleft
Encoding: 123 123 92
Width: 924
GlyphClass: 2
Flags: W
LayerCount: 2
Fore
SplineSet
122 1135 m 128,-1,1
 126 1180 126 1180 208 1220 c 0,2,3
 274 1252 274 1252 301 1341 c 128,-1,4
 328 1430 328 1430 348 1672 c 1,5,6
 364 1922 364 1922 405 2046 c 128,-1,7
 446 2170 446 2170 536 2260 c 0,8,9
 614 2338 614 2338 651 2353 c 128,-1,10
 688 2368 688 2368 754 2343 c 128,-1,11
 820 2318 820 2318 803 2267 c 128,-1,12
 786 2216 786 2216 704 2192 c 0,13,14
 578 2152 578 2152 533 2043 c 128,-1,15
 488 1934 488 1934 458 1606 c 0,16,17
 422 1216 422 1216 394 1180 c 0,18,19
 362 1144 362 1144 402 1000 c 1,20,21
 438 852 438 852 398 552 c 0,22,23
 358 270 358 270 378 149 c 128,-1,24
 398 28 398 28 492 -24 c 0,25,26
 550 -56 550 -56 570 -87 c 128,-1,27
 590 -118 590 -118 571 -141 c 128,-1,28
 552 -164 552 -164 500 -176 c 0,29,30
 414 -200 414 -200 336 -114 c 1,31,32
 270 -48 270 -48 260 74 c 128,-1,33
 250 196 250 196 270 700 c 0,34,35
 278 876 278 876 270 919 c 128,-1,36
 262 962 262 962 196 1020 c 0,37,0
 118 1090 118 1090 122 1135 c 128,-1,1
EndSplineSet
EndChar

StartChar: bar
Encoding: 124 124 93
Width: 462
GlyphClass: 2
Flags: W
LayerCount: 2
Fore
SplineSet
126 196 m 1,0,1
 110 228 110 228 160 372 c 0,2,3
 192 466 192 466 194 552 c 128,-1,4
 196 638 196 638 172 860 c 0,5,6
 136 1216 136 1216 140 1886 c 128,-1,7
 144 2556 144 2556 180 2584 c 1,8,9
 258 2634 258 2634 309 2593 c 128,-1,10
 360 2552 360 2552 328 2470 c 0,11,12
 292 2384 292 2384 275 2023 c 128,-1,13
 258 1662 258 1662 274 1356 c 1,14,15
 344 296 344 296 316 218 c 0,16,17
 300 172 300 172 226 164 c 128,-1,18
 152 156 152 156 126 196 c 1,0,1
EndSplineSet
EndChar

StartChar: braceright
Encoding: 125 125 94
Width: 728
GlyphClass: 2
Flags: W
LayerCount: 2
Fore
SplineSet
132 2166 m 128,-1,1
 112 2186 112 2186 140 2240 c 0,2,3
 172 2310 172 2310 268 2304 c 128,-1,4
 364 2298 364 2298 442 2220 c 0,5,6
 500 2162 500 2162 510 2091 c 128,-1,7
 520 2020 520 2020 512 1688 c 0,8,9
 504 1384 504 1384 512 1296 c 128,-1,10
 520 1208 520 1208 558 1168 c 0,11,12
 640 1070 640 1070 570 934 c 1,13,14
 538 910 538 910 521 504 c 128,-1,15
 504 98 504 98 496 70 c 0,16,17
 438 -126 438 -126 376 -164 c 1,18,19
 290 -226 290 -226 270 -152 c 128,-1,20
 250 -78 250 -78 328 0 c 0,21,22
 378 50 378 50 388 175 c 128,-1,23
 398 300 398 300 390 786 c 0,24,25
 386 1114 386 1114 390 1748 c 0,26,27
 390 2060 390 2060 364 2084 c 0,28,29
 332 2116 332 2116 250 2130 c 0,30,0
 152 2146 152 2146 132 2166 c 128,-1,1
EndSplineSet
EndChar

StartChar: asciitilde
Encoding: 126 126 95
Width: 1436
GlyphClass: 2
Flags: W
LayerCount: 2
Fore
SplineSet
122 922 m 0,0,1
 122 988 122 988 186 1043 c 128,-1,2
 250 1098 250 1098 406 1168 c 0,3,4
 480 1204 480 1204 544 1180 c 0,5,6
 590 1164 590 1164 614 1129 c 128,-1,7
 638 1094 638 1094 684 988 c 1,8,9
 720 890 720 890 802 888 c 128,-1,10
 884 886 884 886 1060 980 c 0,11,12
 1268 1086 1268 1086 1302 1054 c 0,13,14
 1338 1018 1338 1018 1258 958 c 0,15,16
 1192 904 1192 904 989 821 c 128,-1,17
 786 738 786 738 729 738 c 128,-1,18
 672 738 672 738 586 824 c 128,-1,19
 500 910 500 910 500 966 c 0,20,21
 500 1060 500 1060 422 980 c 0,22,23
 398 956 398 956 360 910 c 0,24,25
 262 796 262 796 192 816 c 0,26,27
 122 840 122 840 122 922 c 0,0,1
EndSplineSet
EndChar

StartChar: cent
Encoding: 162 162 97
Width: 1310
GlyphClass: 2
Flags: W
LayerCount: 2
Fore
SplineSet
126 902 m 0,0,1
 126 1054 126 1054 268 1213 c 128,-1,2
 410 1372 410 1372 574 1400 c 0,3,4
 652 1416 652 1416 682 1462 c 128,-1,5
 712 1508 712 1508 786 1712 c 0,6,7
 900 2032 900 2032 918 2072 c 0,8,9
 934 2118 934 2118 963 2134 c 128,-1,10
 992 2150 992 2150 1016 2136 c 128,-1,11
 1040 2122 1040 2122 1040 2076 c 0,12,13
 1040 2018 1040 2018 992 1930 c 0,14,15
 910 1786 910 1786 840 1585 c 128,-1,16
 770 1384 770 1384 790 1352 c 0,17,18
 806 1328 806 1328 817 1282 c 128,-1,19
 828 1236 828 1236 813 1198 c 128,-1,20
 798 1160 798 1160 754 1172 c 0,21,22
 714 1180 714 1180 683 1137 c 128,-1,23
 652 1094 652 1094 594 934 c 0,24,25
 500 688 500 688 516 672 c 0,26,27
 544 644 544 644 718 699 c 128,-1,28
 892 754 892 754 1000 824 c 1,29,30
 1140 922 1140 922 1172 888 c 0,31,32
 1218 842 1218 842 1131 755 c 128,-1,33
 1044 668 1044 668 891 592 c 128,-1,34
 738 516 738 516 602 504 c 2,35,-1
 430 488 l 1,36,37
 294 78 294 78 254 -172 c 1,38,39
 200 -462 200 -462 168 -462 c 0,40,41
 164 -462 164 -462 156 -458 c 0,42,43
 110 -426 110 -426 135 -283 c 128,-1,44
 160 -140 160 -140 290 294 c 1,45,-1
 352 512 l 1,46,47
 126 680 126 680 126 902 c 0,0,1
254 946 m 0,48,49
 254 876 254 876 299 800 c 128,-1,50
 344 724 344 724 390 724 c 1,51,52
 406 716 406 716 461 837 c 128,-1,53
 516 958 516 958 555 1089 c 128,-1,54
 594 1220 594 1220 574 1236 c 1,55,56
 516 1268 516 1268 385 1164 c 128,-1,57
 254 1060 254 1060 254 946 c 0,48,49
EndSplineSet
EndChar

StartChar: sterling
Encoding: 163 163 98
Width: 1622
GlyphClass: 2
Flags: W
LayerCount: 2
Fore
SplineSet
148 442 m 0,0,1
 86 556 86 556 166 638 c 128,-1,2
 246 720 246 720 446 746 c 0,3,4
 572 762 572 762 614 789 c 128,-1,5
 656 816 656 816 656 884 c 0,6,7
 656 916 656 916 619 925 c 128,-1,8
 582 934 582 934 450 922 c 0,9,10
 286 910 286 910 239 940 c 128,-1,11
 192 970 192 970 242 1056 c 0,12,13
 262 1088 262 1088 307 1099 c 128,-1,14
 352 1110 352 1110 476 1106 c 2,15,-1
 684 1098 l 1,16,17
 692 1160 692 1160 738 1544 c 0,18,19
 754 1666 754 1666 830 1806 c 128,-1,20
 906 1946 906 1946 992 2016 c 0,21,22
 1110 2110 1110 2110 1206 2022 c 128,-1,23
 1302 1934 1302 1934 1212 1810 c 0,24,25
 1184 1770 1184 1770 1163 1768 c 128,-1,26
 1142 1766 1142 1766 1102 1790 c 1,27,28
 1032 1822 1032 1822 1020 1818 c 128,-1,29
 1008 1814 1008 1814 938 1728 c 0,30,31
 852 1626 852 1626 832 1134 c 1,32,33
 980 1130 980 1130 1242 1164 c 0,34,35
 1460 1192 1460 1192 1500 1138 c 0,36,37
 1512 1122 1512 1122 1486 1102 c 0,38,39
 1440 1062 1440 1062 1269 1018 c 128,-1,40
 1098 974 1098 974 984 974 c 0,41,42
 848 974 848 974 821 958 c 128,-1,43
 794 942 794 942 770 844 c 0,44,45
 754 786 754 786 772 766 c 128,-1,46
 790 746 790 746 884 720 c 1,47,48
 946 708 946 708 1091 649 c 128,-1,49
 1236 590 1236 590 1348 582 c 0,50,51
 1512 570 1512 570 1500 528 c 0,52,53
 1492 504 1492 504 1430 480 c 1,54,55
 1218 378 1218 378 938 520 c 0,56,57
 786 598 786 598 721 594 c 128,-1,58
 656 590 656 590 590 500 c 0,59,60
 488 356 488 356 353 338 c 128,-1,61
 218 320 218 320 148 442 c 0,0,1
254 504 m 128,-1,63
 274 442 274 442 368 442 c 0,64,65
 392 442 392 442 460 508 c 128,-1,66
 528 574 528 574 528 598 c 0,67,68
 528 626 528 626 459 626 c 128,-1,69
 390 626 390 626 320 598 c 0,70,62
 234 566 234 566 254 504 c 128,-1,63
EndSplineSet
EndChar

StartChar: section
Encoding: 167 167 99
Width: 1436
GlyphClass: 2
Flags: W
LayerCount: 2
Fore
SplineSet
122 1146 m 0,0,1
 122 1208 122 1208 254 1332 c 0,2,3
 352 1422 352 1422 358 1444 c 128,-1,4
 364 1466 364 1466 316 1500 c 0,5,6
 250 1550 250 1550 250 1658 c 0,7,8
 250 1780 250 1780 461 1961 c 128,-1,9
 672 2142 672 2142 856 2170 c 0,10,11
 906 2174 906 2174 924 2161 c 128,-1,12
 942 2148 942 2148 942 2098 c 0,13,14
 942 2036 942 2036 899 1991 c 128,-1,15
 856 1946 856 1946 820 1966 c 0,16,17
 784 1990 784 1990 675 1935 c 128,-1,18
 566 1880 566 1880 508 1810 c 0,19,20
 442 1728 442 1728 442 1698 c 128,-1,21
 442 1668 442 1668 512 1622 c 0,22,23
 586 1576 586 1576 680 1610 c 0,24,25
 762 1638 762 1638 1012 1612 c 128,-1,26
 1262 1586 1262 1586 1299 1549 c 128,-1,27
 1336 1512 1336 1512 1299 1420 c 128,-1,28
 1262 1328 1262 1328 1168 1228 c 0,29,30
 1062 1118 1062 1118 1082 1106 c 0,31,32
 1090 1102 1090 1102 1118 1102 c 0,33,34
 1188 1102 1188 1102 1224 1036 c 0,35,36
 1248 996 1248 996 1218 949 c 128,-1,37
 1188 902 1188 902 1044 762 c 0,38,39
 880 598 880 598 618 410 c 128,-1,40
 356 222 356 222 294 222 c 0,41,42
 200 222 200 222 290 308 c 0,43,44
 336 354 336 354 418 402 c 0,45,46
 468 430 468 430 527 477 c 128,-1,47
 586 524 586 524 662 596 c 128,-1,48
 738 668 738 668 783 711 c 128,-1,49
 828 754 828 754 916 844 c 128,-1,50
 1004 934 1004 934 1020 950 c 1,51,-1
 816 930 l 1,52,53
 124 856 124 856 122 1146 c 0,0,1
344 1180 m 0,54,55
 344 1074 344 1074 622 1074 c 0,56,57
 720 1074 720 1074 776 1094 c 128,-1,58
 832 1114 832 1114 918 1180 c 0,59,60
 1098 1320 1098 1320 1098 1422 c 0,61,62
 1098 1446 1098 1446 918 1444 c 128,-1,63
 738 1442 738 1442 648 1417 c 128,-1,64
 558 1392 558 1392 451 1308 c 128,-1,65
 344 1224 344 1224 344 1180 c 0,54,55
EndSplineSet
EndChar

StartChar: copyright
Encoding: 169 169 100
Width: 2026
GlyphClass: 2
Flags: W
LayerCount: 2
Fore
SplineSet
122 1118 m 0,0,1
 122 1372 122 1372 196 1512 c 0,2,3
 376 1856 376 1856 606 1974 c 0,4,5
 750 2044 750 2044 871 2021 c 128,-1,6
 992 1998 992 1998 992 1900 c 0,7,8
 992 1850 992 1850 1094 1876 c 0,9,10
 1418 1946 1418 1946 1661 1790 c 128,-1,11
 1904 1634 1904 1634 1904 1356 c 0,12,13
 1904 1212 1904 1212 1777 1028 c 128,-1,14
 1650 844 1650 844 1474 734 c 0,15,16
 1184 546 1184 546 850 492 c 128,-1,17
 516 438 516 438 356 548 c 0,18,19
 230 634 230 634 176 763 c 128,-1,20
 122 892 122 892 122 1118 c 0,0,1
285 1012 m 128,-1,22
 324 816 324 816 472 724 c 0,23,24
 680 592 680 592 1086 730 c 1,25,26
 1512 870 1512 870 1669 1092 c 128,-1,27
 1826 1314 1826 1314 1668 1552 c 1,28,29
 1582 1666 1582 1666 1482 1724 c 0,30,31
 1396 1770 1396 1770 1206 1782 c 128,-1,32
 1016 1794 1016 1794 950 1762 c 1,33,34
 890 1728 890 1728 836 1778 c 0,35,36
 718 1880 718 1880 570 1778 c 128,-1,37
 422 1676 422 1676 332 1434 c 0,38,21
 246 1208 246 1208 285 1012 c 128,-1,22
582 1236 m 0,39,40
 582 1314 582 1314 674 1437 c 128,-1,41
 766 1560 766 1560 864 1610 c 0,42,43
 1064 1716 1064 1716 1150 1618 c 0,44,45
 1196 1560 1196 1560 1157 1513 c 128,-1,46
 1118 1466 1118 1466 1032 1474 c 1,47,48
 892 1494 892 1494 808 1363 c 128,-1,49
 724 1232 724 1232 806 1110 c 1,50,51
 852 1070 852 1070 954 1076 c 128,-1,52
 1056 1082 1056 1082 1164 1134 c 0,53,54
 1324 1212 1324 1212 1384 1160 c 1,55,56
 1434 1102 1434 1102 1314 1016 c 1,57,58
 1014 816 1014 816 758 910 c 0,59,60
 696 934 696 934 639 1042 c 128,-1,61
 582 1150 582 1150 582 1236 c 0,39,40
EndSplineSet
EndChar

StartChar: guillemotleft
Encoding: 171 171 101
Width: 1494
GlyphClass: 2
Flags: W
LayerCount: 2
Fore
SplineSet
123 798 m 128,-1,1
 110 884 110 884 348 1106 c 1,2,3
 574 1324 574 1324 622 1314 c 0,4,5
 704 1302 704 1302 668 1232 c 0,6,7
 644 1186 644 1186 586 1156 c 0,8,9
 468 1086 468 1086 371 989 c 128,-1,10
 274 892 274 892 274 847 c 128,-1,11
 274 802 274 802 325 774 c 128,-1,12
 376 746 376 746 614 648 c 0,13,14
 680 620 680 620 719 597 c 128,-1,15
 758 574 758 574 776 551 c 128,-1,16
 794 528 794 528 790 510 c 128,-1,17
 786 492 786 492 762 472 c 0,18,19
 730 448 730 448 709 451 c 128,-1,20
 688 454 688 454 644 496 c 0,21,22
 574 558 574 558 418 614 c 0,23,0
 136 712 136 712 123 798 c 128,-1,1
727 927 m 128,-1,25
 746 966 746 966 805 1015 c 128,-1,26
 864 1064 864 1064 978 1142 c 0,27,28
 1384 1416 1384 1416 1372 1282 c 0,29,30
 1372 1278 1372 1278 1372 1270 c 0,31,32
 1356 1216 1356 1216 1282 1196 c 1,33,34
 1208 1184 1208 1184 1036 1056 c 0,35,36
 892 950 892 950 905 911 c 128,-1,37
 918 872 918 872 1118 806 c 0,38,39
 1314 740 1314 740 1340 684 c 1,40,41
 1334 668 1334 668 1302 664 c 1,42,43
 1252 664 1252 664 1087 713 c 128,-1,44
 922 762 922 762 820 806 c 0,45,46
 754 834 754 834 731 861 c 128,-1,24
 708 888 708 888 727 927 c 128,-1,25
EndSplineSet
EndChar

StartChar: uni00AD
Encoding: 173 173 102
Width: 1240
GlyphClass: 2
Flags: W
LayerCount: 2
Fore
SplineSet
123 1195 m 128,-1,1
 122 1210 122 1210 160 1238 c 0,2,3
 214 1274 214 1274 364 1246 c 0,4,5
 536 1214 536 1214 820 1226 c 0,6,7
 1004 1230 1004 1230 1061 1224 c 128,-1,8
 1118 1218 1118 1218 1118 1189 c 128,-1,9
 1118 1160 1118 1160 1059 1152 c 128,-1,10
 1000 1144 1000 1144 802 1140 c 1,11,12
 494 1140 494 1140 340 1116 c 0,13,14
 250 1100 250 1100 215 1106 c 128,-1,15
 180 1112 180 1112 152 1144 c 0,16,0
 124 1180 124 1180 123 1195 c 128,-1,1
EndSplineSet
EndChar

StartChar: degree
Encoding: 176 176 103
Width: 978
GlyphClass: 2
Flags: W
LayerCount: 2
Fore
SplineSet
126 1966 m 128,-1,1
 116 2134 116 2134 140 2180 c 0,2,3
 168 2238 168 2238 305 2241 c 128,-1,4
 442 2244 442 2244 574 2192 c 0,5,6
 778 2106 778 2106 838 1971 c 128,-1,7
 898 1836 898 1836 799 1711 c 128,-1,8
 700 1586 700 1586 480 1528 c 0,9,10
 402 1508 402 1508 303 1563 c 128,-1,11
 204 1618 204 1618 172 1700 c 0,12,0
 136 1798 136 1798 126 1966 c 128,-1,1
312 1974 m 0,13,14
 226 1830 226 1830 332 1732 c 128,-1,15
 438 1634 438 1634 578 1700 c 0,16,17
 722 1766 722 1766 724 1854 c 128,-1,18
 726 1942 726 1942 578 2028 c 0,19,20
 476 2090 476 2090 420 2075 c 128,-1,21
 364 2060 364 2060 312 1974 c 0,13,14
EndSplineSet
EndChar

StartChar: plusminus
Encoding: 177 177 104
Width: 1408
GlyphClass: 2
Flags: W
LayerCount: 2
Fore
SplineSet
126 786 m 0,0,1
 134 818 134 818 149 835 c 128,-1,2
 164 852 164 852 227 870 c 128,-1,3
 290 888 290 888 391 899 c 128,-1,4
 492 910 492 910 700 930 c 0,5,6
 1150 976 1150 976 1168 992 c 0,7,8
 1196 1020 1196 1020 1241 998 c 128,-1,9
 1286 976 1286 976 1286 930 c 0,10,11
 1286 894 1286 894 1261 881 c 128,-1,12
 1236 868 1236 868 1160 860 c 0,13,14
 964 848 964 848 699 809 c 128,-1,15
 434 770 434 770 344 738 c 0,16,17
 230 698 230 698 170 709 c 128,-1,18
 110 720 110 720 126 786 c 0,0,1
144 1422 m 0,19,20
 140 1442 140 1442 156 1470 c 0,21,22
 192 1524 192 1524 312 1532 c 0,23,24
 508 1540 508 1540 530 1556 c 128,-1,25
 552 1572 552 1572 536 1700 c 0,26,27
 520 1806 520 1806 530 1839 c 128,-1,28
 540 1872 540 1872 586 1892 c 1,29,30
 640 1900 640 1900 668 1908 c 128,-1,31
 696 1916 696 1916 710 1888 c 128,-1,32
 724 1860 724 1860 729 1841 c 128,-1,33
 734 1822 734 1822 738 1771 c 128,-1,34
 742 1720 742 1720 750 1688 c 2,35,-1
 770 1564 l 1,36,37
 816 1572 816 1572 996 1589 c 128,-1,38
 1176 1606 1176 1606 1208 1614 c 0,39,40
 1244 1626 1244 1626 1262 1568 c 1,41,42
 1270 1528 1270 1528 1182 1491 c 128,-1,43
 1094 1454 1094 1454 1004 1458 c 0,44,45
 992 1458 992 1458 897 1454 c 128,-1,46
 802 1450 802 1450 758 1454 c 1,47,-1
 790 1008 l 1,48,49
 642 1008 642 1008 616 1036 c 128,-1,50
 590 1064 590 1064 566 1278 c 0,51,52
 558 1376 558 1376 529 1388 c 128,-1,53
 500 1400 500 1400 340 1372 c 0,54,55
 156 1344 156 1344 144 1422 c 0,19,20
EndSplineSet
EndChar

StartChar: mu
Encoding: 181 181 105
Width: 1146
GlyphClass: 2
Flags: W
LayerCount: 2
Fore
SplineSet
118 -204 m 0,0,1
 118 -172 118 -172 126 -132 c 0,2,3
 130 -104 130 -104 157 224 c 128,-1,4
 184 552 184 552 219 897 c 128,-1,5
 254 1242 254 1242 282 1348 c 1,6,7
 336 1418 336 1418 442 1344 c 0,8,9
 482 1312 482 1312 485 1293 c 128,-1,10
 488 1274 488 1274 450 1204 c 0,11,12
 352 1004 352 1004 446 820 c 0,13,14
 492 738 492 738 518 729 c 128,-1,15
 544 720 544 720 602 774 c 0,16,17
 696 868 696 868 730 1086 c 0,18,19
 754 1234 754 1234 786 1295 c 128,-1,20
 818 1356 818 1356 872 1356 c 0,21,22
 938 1356 938 1356 950 1313 c 128,-1,23
 962 1270 962 1270 930 1126 c 0,24,25
 890 946 890 946 946 798 c 0,26,27
 1008 642 1008 642 1020 558 c 0,28,29
 1036 468 1036 468 992 472 c 0,30,31
 930 476 930 476 848 622 c 2,32,-1
 770 758 l 1,33,-1
 664 664 l 1,34,35
 476 504 476 504 372 606 c 0,36,37
 336 642 336 642 336 630 c 0,38,39
 336 626 336 626 304 188 c 1,40,41
 280 -230 280 -230 222 -274 c 0,42,43
 112 -352 112 -352 118 -204 c 0,0,1
EndSplineSet
EndChar

StartChar: guillemotright
Encoding: 187 187 106
Width: 1654
GlyphClass: 2
Flags: W
LayerCount: 2
Fore
SplineSet
127 1209 m 128,-1,1
 122 1262 122 1262 134 1276 c 128,-1,2
 146 1290 146 1290 196 1290 c 0,3,4
 274 1290 274 1290 332 1232 c 1,5,6
 348 1204 348 1204 590 1085 c 128,-1,7
 832 966 832 966 844 930 c 1,8,9
 844 852 844 852 570 712 c 0,10,11
 418 634 418 634 372 566 c 1,12,13
 356 530 356 530 309 513 c 128,-1,14
 262 496 262 496 223 504 c 128,-1,15
 184 512 184 512 184 544 c 0,16,17
 184 626 184 626 466 782 c 1,18,19
 638 872 638 872 638 902 c 0,20,21
 638 934 638 934 390 1028 c 0,22,23
 222 1094 222 1094 177 1125 c 128,-1,0
 132 1156 132 1156 127 1209 c 128,-1,1
802 1302 m 1,24,25
 814 1324 814 1324 868 1324 c 0,26,27
 926 1324 926 1324 1217 1176 c 128,-1,28
 1508 1028 1508 1028 1524 992 c 0,29,30
 1564 894 1564 894 1274 742 c 0,31,32
 1102 648 1102 648 1048 594 c 0,33,34
 986 536 986 536 938 570 c 0,35,36
 910 590 910 590 916 604 c 128,-1,37
 922 618 922 618 974 672 c 0,38,39
 994 692 994 692 1159 799 c 128,-1,40
 1324 906 1324 906 1348 946 c 1,41,42
 1348 974 1348 974 1227 1034 c 128,-1,43
 1106 1094 1106 1094 946 1146 c 0,44,45
 712 1220 712 1220 802 1302 c 1,24,25
EndSplineSet
EndChar

StartChar: Agrave
Encoding: 192 192 107
Width: 1558
GlyphClass: 2
Flags: W
LayerCount: 2
Fore
SplineSet
630.5 2454.5 m 128,-1,1
 606 2471 606 2471 611 2527 c 0,2,3
 616 2606 616 2606 695.5 2602.5 c 128,-1,4
 775 2599 775 2599 912 2515 c 1,5,6
 1097 2410 1097 2410 1196 2359 c 0,7,8
 1367 2269 1367 2269 1323 2242 c 0,9,10
 1269 2212 1269 2212 1064 2301 c 0,11,12
 864 2390 864 2390 764 2412 c 0,13,0
 655 2438 655 2438 630.5 2454.5 c 128,-1,1
120 411 m 0,14,15
 120 477 120 477 192 652 c 0,16,17
 274 852 274 852 274 892 c 0,18,19
 274 974 274 974 340 1048 c 0,20,21
 376 1088 376 1088 604 1623 c 128,-1,22
 832 2158 832 2158 852 2192 c 0,23,24
 898 2260 898 2260 984 2260 c 0,25,26
 1078 2260 1078 2260 1125 2127 c 128,-1,27
 1172 1994 1172 1994 1200 1646 c 0,28,29
 1228 1266 1228 1266 1257 1168 c 128,-1,30
 1286 1070 1286 1070 1376 1060 c 0,31,32
 1520 1044 1520 1044 1548 970 c 0,33,34
 1551 961 1551 961 1551 953 c 0,35,36
 1551 910 1551 910 1478 902 c 0,37,38
 1458 898 1458 898 1434 898 c 0,39,40
 1356 898 1356 898 1342 883 c 0,41,42
 1334 875 1334 875 1334 855 c 0,43,44
 1334 838 1334 838 1340 812 c 0,45,46
 1360 698 1360 698 1372 472 c 0,47,48
 1376 407 1376 407 1376 355 c 0,49,50
 1376 252 1376 252 1360 206 c 0,51,52
 1336 136 1336 136 1258 136 c 0,53,54
 1218 136 1218 136 1207 172 c 128,-1,55
 1196 208 1196 208 1192 348 c 0,56,57
 1180 786 1180 786 1150 856 c 0,58,59
 1137 893 1137 893 1039 893 c 0,60,61
 922 893 922 893 684 840 c 1,62,63
 500 804 500 804 467 783 c 128,-1,64
 434 762 434 762 418 672 c 1,65,66
 406 566 406 566 356 430 c 0,67,68
 328 352 328 352 303 330 c 128,-1,69
 278 308 278 308 222 308 c 0,70,71
 168 308 168 308 150 324 c 128,-1,72
 132 340 132 340 122 394 c 0,73,74
 120 401 120 401 120 411 c 0,14,15
556 1082 m 0,75,76
 556 1076 556 1076 558 1074 c 0,77,78
 578 1054 578 1054 840 1052 c 0,79,80
 852 1052 852 1052 880 1052 c 0,81,82
 1060 1052 1060 1052 1085 1085 c 0,83,84
 1094 1097 1094 1097 1094 1128 c 0,85,86
 1094 1187 1094 1187 1064 1314 c 0,87,88
 1056 1350 1056 1350 1052 1372 c 0,89,90
 1016 1536 1016 1536 1008 1708 c 0,91,92
 1000 1986 1000 1986 946 2040 c 1,93,94
 930 2040 930 2040 798 1728 c 0,95,96
 556 1150 556 1150 556 1082 c 0,75,76
EndSplineSet
EndChar

StartChar: Aacute
Encoding: 193 193 108
Width: 1558
GlyphClass: 2
Flags: W
LayerCount: 2
Fore
SplineSet
1349.5 2572.5 m 128,-1,1
 1374 2589 1374 2589 1369 2645 c 0,2,3
 1364 2724 1364 2724 1284.5 2720.5 c 128,-1,4
 1205 2717 1205 2717 1068 2633 c 1,5,6
 883 2528 883 2528 784 2477 c 0,7,8
 613 2387 613 2387 657 2360 c 0,9,10
 711 2330 711 2330 916 2419 c 0,11,12
 1116 2508 1116 2508 1216 2530 c 0,13,0
 1325 2556 1325 2556 1349.5 2572.5 c 128,-1,1
120 411 m 0,14,15
 120 477 120 477 192 652 c 0,16,17
 274 852 274 852 274 892 c 0,18,19
 274 974 274 974 340 1048 c 0,20,21
 376 1088 376 1088 604 1623 c 128,-1,22
 832 2158 832 2158 852 2192 c 0,23,24
 898 2260 898 2260 984 2260 c 0,25,26
 1078 2260 1078 2260 1125 2127 c 128,-1,27
 1172 1994 1172 1994 1200 1646 c 0,28,29
 1228 1266 1228 1266 1257 1168 c 128,-1,30
 1286 1070 1286 1070 1376 1060 c 0,31,32
 1520 1044 1520 1044 1548 970 c 0,33,34
 1551 961 1551 961 1551 953 c 0,35,36
 1551 910 1551 910 1478 902 c 0,37,38
 1458 898 1458 898 1434 898 c 0,39,40
 1356 898 1356 898 1342 883 c 0,41,42
 1334 875 1334 875 1334 855 c 0,43,44
 1334 838 1334 838 1340 812 c 0,45,46
 1360 698 1360 698 1372 472 c 0,47,48
 1376 407 1376 407 1376 355 c 0,49,50
 1376 252 1376 252 1360 206 c 0,51,52
 1336 136 1336 136 1258 136 c 0,53,54
 1218 136 1218 136 1207 172 c 128,-1,55
 1196 208 1196 208 1192 348 c 0,56,57
 1180 786 1180 786 1150 856 c 0,58,59
 1137 893 1137 893 1039 893 c 0,60,61
 922 893 922 893 684 840 c 1,62,63
 500 804 500 804 467 783 c 128,-1,64
 434 762 434 762 418 672 c 1,65,66
 406 566 406 566 356 430 c 0,67,68
 328 352 328 352 303 330 c 128,-1,69
 278 308 278 308 222 308 c 0,70,71
 168 308 168 308 150 324 c 128,-1,72
 132 340 132 340 122 394 c 0,73,74
 120 401 120 401 120 411 c 0,14,15
556 1082 m 0,75,76
 556 1076 556 1076 558 1074 c 0,77,78
 578 1054 578 1054 840 1052 c 0,79,80
 852 1052 852 1052 880 1052 c 0,81,82
 1060 1052 1060 1052 1085 1085 c 0,83,84
 1094 1097 1094 1097 1094 1128 c 0,85,86
 1094 1187 1094 1187 1064 1314 c 0,87,88
 1056 1350 1056 1350 1052 1372 c 0,89,90
 1016 1536 1016 1536 1008 1708 c 0,91,92
 1000 1986 1000 1986 946 2040 c 1,93,94
 930 2040 930 2040 798 1728 c 0,95,96
 556 1150 556 1150 556 1082 c 0,75,76
EndSplineSet
EndChar

StartChar: Acircumflex
Encoding: 194 194 109
Width: 1558
GlyphClass: 2
Flags: W
LayerCount: 2
Fore
SplineSet
120 411 m 0,0,1
 120 477 120 477 192 652 c 0,2,3
 274 852 274 852 274 892 c 0,4,5
 274 974 274 974 340 1048 c 0,6,7
 376 1088 376 1088 604 1623 c 128,-1,8
 832 2158 832 2158 852 2192 c 0,9,10
 898 2260 898 2260 984 2260 c 0,11,12
 1078 2260 1078 2260 1125 2127 c 128,-1,13
 1172 1994 1172 1994 1200 1646 c 0,14,15
 1228 1266 1228 1266 1257 1168 c 128,-1,16
 1286 1070 1286 1070 1376 1060 c 0,17,18
 1520 1044 1520 1044 1548 970 c 0,19,20
 1551 961 1551 961 1551 953 c 0,21,22
 1551 910 1551 910 1478 902 c 0,23,24
 1458 898 1458 898 1434 898 c 0,25,26
 1356 898 1356 898 1342 883 c 0,27,28
 1334 875 1334 875 1334 855 c 0,29,30
 1334 838 1334 838 1340 812 c 0,31,32
 1360 698 1360 698 1372 472 c 0,33,34
 1376 407 1376 407 1376 355 c 0,35,36
 1376 252 1376 252 1360 206 c 0,37,38
 1336 136 1336 136 1258 136 c 0,39,40
 1218 136 1218 136 1207 172 c 128,-1,41
 1196 208 1196 208 1192 348 c 0,42,43
 1180 786 1180 786 1150 856 c 0,44,45
 1137 893 1137 893 1039 893 c 0,46,47
 922 893 922 893 684 840 c 1,48,49
 500 804 500 804 467 783 c 128,-1,50
 434 762 434 762 418 672 c 1,51,52
 406 566 406 566 356 430 c 0,53,54
 328 352 328 352 303 330 c 128,-1,55
 278 308 278 308 222 308 c 0,56,57
 168 308 168 308 150 324 c 128,-1,58
 132 340 132 340 122 394 c 0,59,60
 120 401 120 401 120 411 c 0,0,1
556 1082 m 0,61,62
 556 1076 556 1076 558 1074 c 0,63,64
 578 1054 578 1054 840 1052 c 0,65,66
 852 1052 852 1052 880 1052 c 0,67,68
 1060 1052 1060 1052 1085 1085 c 0,69,70
 1094 1097 1094 1097 1094 1128 c 0,71,72
 1094 1187 1094 1187 1064 1314 c 0,73,74
 1056 1350 1056 1350 1052 1372 c 0,75,76
 1016 1536 1016 1536 1008 1708 c 0,77,78
 1000 1986 1000 1986 946 2040 c 1,79,80
 930 2040 930 2040 798 1728 c 0,81,82
 556 1150 556 1150 556 1082 c 0,61,62
EndSplineSet
EndChar

StartChar: Atilde
Encoding: 195 195 110
Width: 1558
GlyphClass: 2
Flags: W
LayerCount: 2
Fore
SplineSet
120 411 m 0,0,1
 120 477 120 477 192 652 c 0,2,3
 274 852 274 852 274 892 c 0,4,5
 274 974 274 974 340 1048 c 0,6,7
 376 1088 376 1088 604 1623 c 128,-1,8
 832 2158 832 2158 852 2192 c 0,9,10
 898 2260 898 2260 984 2260 c 0,11,12
 1078 2260 1078 2260 1125 2127 c 128,-1,13
 1172 1994 1172 1994 1200 1646 c 0,14,15
 1228 1266 1228 1266 1257 1168 c 128,-1,16
 1286 1070 1286 1070 1376 1060 c 0,17,18
 1520 1044 1520 1044 1548 970 c 0,19,20
 1551 961 1551 961 1551 953 c 0,21,22
 1551 910 1551 910 1478 902 c 0,23,24
 1458 898 1458 898 1434 898 c 0,25,26
 1356 898 1356 898 1342 883 c 0,27,28
 1334 875 1334 875 1334 855 c 0,29,30
 1334 838 1334 838 1340 812 c 0,31,32
 1360 698 1360 698 1372 472 c 0,33,34
 1376 407 1376 407 1376 355 c 0,35,36
 1376 252 1376 252 1360 206 c 0,37,38
 1336 136 1336 136 1258 136 c 0,39,40
 1218 136 1218 136 1207 172 c 128,-1,41
 1196 208 1196 208 1192 348 c 0,42,43
 1180 786 1180 786 1150 856 c 0,44,45
 1137 893 1137 893 1039 893 c 0,46,47
 922 893 922 893 684 840 c 1,48,49
 500 804 500 804 467 783 c 128,-1,50
 434 762 434 762 418 672 c 1,51,52
 406 566 406 566 356 430 c 0,53,54
 328 352 328 352 303 330 c 128,-1,55
 278 308 278 308 222 308 c 0,56,57
 168 308 168 308 150 324 c 128,-1,58
 132 340 132 340 122 394 c 0,59,60
 120 401 120 401 120 411 c 0,0,1
556 1082 m 0,61,62
 556 1076 556 1076 558 1074 c 0,63,64
 578 1054 578 1054 840 1052 c 0,65,66
 852 1052 852 1052 880 1052 c 0,67,68
 1060 1052 1060 1052 1085 1085 c 0,69,70
 1094 1097 1094 1097 1094 1128 c 0,71,72
 1094 1187 1094 1187 1064 1314 c 0,73,74
 1056 1350 1056 1350 1052 1372 c 0,75,76
 1016 1536 1016 1536 1008 1708 c 0,77,78
 1000 1986 1000 1986 946 2040 c 1,79,80
 930 2040 930 2040 798 1728 c 0,81,82
 556 1150 556 1150 556 1082 c 0,61,62
EndSplineSet
EndChar

StartChar: Adieresis
Encoding: 196 196 111
Width: 1558
GlyphClass: 2
Flags: W
LayerCount: 2
Fore
SplineSet
1002 2487 m 0,0,1
 1002 2498 1002 2498 1030 2531 c 0,2,3
 1069 2578 1069 2578 1101 2573.5 c 128,-1,4
 1133 2569 1133 2569 1134 2569 c 0,5,6
 1186 2569 1186 2569 1210 2555 c 0,7,8
 1226 2545 1226 2545 1226 2483 c 0,9,10
 1226 2478 1226 2478 1226 2474 c 0,11,12
 1229 2455 1229 2455 1229 2440 c 0,13,14
 1229 2420 1229 2420 1186 2398 c 1,15,-1
 1128 2389 l 1,16,17
 1081 2389 1081 2389 1036 2427 c 0,18,19
 1002 2456 1002 2456 1002 2487 c 0,0,1
646 2475 m 0,20,21
 646 2499 646 2499 666 2524 c 0,22,23
 694 2556 694 2556 743 2562 c 0,24,25
 752 2563 752 2563 761 2563 c 0,26,27
 800 2563 800 2563 833 2542 c 0,28,29
 870 2518 870 2518 870 2471 c 0,30,31
 870 2466 870 2466 870 2462 c 0,32,33
 873 2443 873 2443 873 2428 c 0,34,35
 873 2378 873 2378 842 2372 c 0,36,37
 828 2371 828 2371 815 2371 c 0,38,39
 732 2371 732 2371 680 2415 c 0,40,41
 646 2444 646 2444 646 2475 c 0,20,21
120 411 m 0,42,43
 120 477 120 477 192 652 c 0,44,45
 274 852 274 852 274 892 c 0,46,47
 274 974 274 974 340 1048 c 0,48,49
 376 1088 376 1088 604 1623 c 128,-1,50
 832 2158 832 2158 852 2192 c 0,51,52
 898 2260 898 2260 984 2260 c 0,53,54
 1078 2260 1078 2260 1125 2127 c 128,-1,55
 1172 1994 1172 1994 1200 1646 c 0,56,57
 1228 1266 1228 1266 1257 1168 c 128,-1,58
 1286 1070 1286 1070 1376 1060 c 0,59,60
 1520 1044 1520 1044 1548 970 c 0,61,62
 1551 961 1551 961 1551 953 c 0,63,64
 1551 910 1551 910 1478 902 c 0,65,66
 1458 898 1458 898 1434 898 c 0,67,68
 1356 898 1356 898 1342 883 c 0,69,70
 1334 875 1334 875 1334 855 c 0,71,72
 1334 838 1334 838 1340 812 c 0,73,74
 1360 698 1360 698 1372 472 c 0,75,76
 1376 407 1376 407 1376 355 c 0,77,78
 1376 252 1376 252 1360 206 c 0,79,80
 1336 136 1336 136 1258 136 c 0,81,82
 1218 136 1218 136 1207 172 c 128,-1,83
 1196 208 1196 208 1192 348 c 0,84,85
 1180 786 1180 786 1150 856 c 0,86,87
 1137 893 1137 893 1039 893 c 0,88,89
 922 893 922 893 684 840 c 1,90,91
 500 804 500 804 467 783 c 128,-1,92
 434 762 434 762 418 672 c 1,93,94
 406 566 406 566 356 430 c 0,95,96
 328 352 328 352 303 330 c 128,-1,97
 278 308 278 308 222 308 c 0,98,99
 168 308 168 308 150 324 c 128,-1,100
 132 340 132 340 122 394 c 0,101,102
 120 401 120 401 120 411 c 0,42,43
556 1082 m 0,103,104
 556 1076 556 1076 558 1074 c 0,105,106
 578 1054 578 1054 840 1052 c 0,107,108
 852 1052 852 1052 880 1052 c 0,109,110
 1060 1052 1060 1052 1085 1085 c 0,111,112
 1094 1097 1094 1097 1094 1128 c 0,113,114
 1094 1187 1094 1187 1064 1314 c 0,115,116
 1056 1350 1056 1350 1052 1372 c 0,117,118
 1016 1536 1016 1536 1008 1708 c 0,119,120
 1000 1986 1000 1986 946 2040 c 1,121,122
 930 2040 930 2040 798 1728 c 0,123,124
 556 1150 556 1150 556 1082 c 0,103,104
EndSplineSet
EndChar

StartChar: Aring
Encoding: 197 197 112
Width: 1558
GlyphClass: 2
Flags: W
LayerCount: 2
Fore
SplineSet
798 819 m 0,0,1
 792 857 792 857 785 898 c 0,2,3
 760 1056 760 1056 755.5 1384.5 c 128,-1,4
 751 1713 751 1713 725 1858 c 0,5,6
 696 2024 696 2024 744 2065 c 0,7,8
 792 2105 792 2105 1058 2127 c 1,9,10
 1327 2143 1327 2143 1334 2155 c 0,11,12
 1335 2157 1335 2157 1343 2157 c 0,13,14
 1368 2157 1368 2157 1464 2136 c 0,15,16
 1597 2107 1597 2107 1636 2094 c 0,17,18
 1680 2078 1680 2078 1703 2031 c 0,19,20
 1714 2007 1714 2007 1719 1983 c 0,21,22
 1722 1963 1722 1963 1720 1931 c 0,23,24
 1718 1896 1718 1896 1692 1896 c 0,25,26
 1680 1896 1680 1896 1661 1903 c 0,27,28
 1449 1985 1449 1985 1279 1985 c 0,29,30
 1141 1985 1141 1985 1029 1931 c 1,31,-1
 885 1891 l 1,32,33
 890 1882 890 1882 895 1858 c 0,34,35
 914 1749 914 1749 894 1289 c 0,36,37
 892 1242 892 1242 907 1233 c 0,38,39
 910 1231 910 1231 918 1231 c 0,40,41
 937 1231 937 1231 982 1243 c 1,42,43
 1063 1244 1063 1244 1134 1244 c 0,44,45
 1523 1244 1523 1244 1549 1203 c 1,46,47
 1573 1182 1573 1182 1579 1146 c 0,48,49
 1583 1125 1583 1125 1581 1098 c 0,50,51
 1577 1062 1577 1062 1506 1063 c 0,52,53
 1434 1063 1434 1063 1296 1098 c 1,54,55
 1288 1094 1288 1094 1231 1093 c 0,56,57
 1200 1093 1200 1093 1153 1094 c 0,58,59
 1142 1094 1142 1094 1130 1095 c 0,60,61
 1017 1095 1017 1095 951 1053 c 0,62,63
 904 1023 904 1023 933 858 c 0,64,65
 949 768 949 768 988 636 c 1,66,67
 1063 341 1063 341 1162 341 c 0,68,69
 1164 341 1164 341 1167 341 c 0,70,71
 1194 333 1194 333 1233 333 c 0,72,73
 1303 333 1303 333 1314 337 c 0,74,75
 1408 374 1408 374 1502 410 c 1,76,77
 1610 482 1610 482 1671 482 c 0,78,79
 1710 482 1710 482 1728 455 c 0,80,81
 1736 443 1736 443 1737 431 c 0,82,83
 1744 396 1744 396 1705 355 c 0,84,85
 1671 318 1671 318 1555 273 c 0,86,87
 1476 242 1476 242 1444 227 c 0,88,89
 1365 191 1365 191 1148 191 c 0,90,91
 891 191 891 191 889 262 c 0,92,93
 882 507 882 507 870 551 c 0,94,95
 800 808 800 808 798 819 c 0,0,1
34 413 m 0,96,97
 34 479 34 479 88 652 c 0,98,99
 150 850 150 850 150 890 c 0,100,101
 150 971 150 971 199 1044 c 0,102,103
 226 1084 226 1084 397 1613 c 0,104,105
 571 2152 571 2152 583 2177 c 0,106,107
 616 2244 616 2244 682 2244 c 0,108,109
 752 2244 752 2244 788 2112 c 0,110,111
 825 1973 825 1973 844 1636 c 0,112,113
 870 1171 870 1171 887 1163 c 0,114,115
 911 1150 911 1150 886 1072 c 1,116,117
 886 1072 886 1072 898 1013 c 0,118,119
 901 998 901 998 900 996 c 2,120,121
 900 996 900 996 902 970 c 1,122,123
 892 954 892 954 883 938 c 1,124,125
 883 938 883 938 878 914 c 0,126,127
 869 888 869 888 898 871 c 0,128,129
 925 856 925 856 930 811 c 0,130,131
 970 499 970 499 973 474 c 0,132,133
 976 446 976 446 976 358 c 0,134,135
 976 256 976 256 964 211 c 0,136,137
 946 141 946 141 888 141 c 0,138,139
 858 141 858 141 849 177 c 0,140,141
 841 213 841 213 838 351 c 0,142,143
 829 780 829 780 806 854 c 0,144,145
 795 891 795 891 723 891 c 0,146,147
 636 891 636 891 457 838 c 1,148,149
 319 803 319 803 294 782 c 0,150,151
 270 761 270 761 258 672 c 0,152,153
 248 567 248 567 211 432 c 0,154,155
 190 355 190 355 171 333 c 0,156,157
 152 312 152 312 110 312 c 0,158,159
 70 312 70 312 56 327 c 0,160,161
 48 337 48 337 36 397 c 0,162,163
 34 404 34 404 34 413 c 0,96,97
361 1078 m 0,164,165
 361 1072 361 1072 362 1070 c 0,166,167
 378 1050 378 1050 574 1048 c 0,168,169
 583 1048 583 1048 604 1048 c 0,170,171
 739 1048 739 1048 758 1081 c 0,172,173
 764 1093 764 1093 764 1123 c 0,174,175
 764 1182 764 1182 742 1307 c 0,176,177
 736 1343 736 1343 733 1365 c 0,178,179
 706 1527 706 1527 700 1698 c 0,180,181
 694 1973 694 1973 654 2026 c 1,182,183
 642 2026 642 2026 542 1717 c 0,184,185
 361 1145 361 1145 361 1078 c 0,164,165
EndSplineSet
EndChar

StartChar: AE
Encoding: 198 198 113
Width: 1558
GlyphClass: 2
Flags: W
LayerCount: 2
Fore
SplineSet
120 411 m 0,0,1
 120 477 120 477 192 652 c 0,2,3
 274 852 274 852 274 892 c 0,4,5
 274 974 274 974 340 1048 c 0,6,7
 376 1088 376 1088 604 1623 c 128,-1,8
 832 2158 832 2158 852 2192 c 0,9,10
 898 2260 898 2260 984 2260 c 0,11,12
 1078 2260 1078 2260 1125 2127 c 128,-1,13
 1172 1994 1172 1994 1200 1646 c 0,14,15
 1228 1266 1228 1266 1257 1168 c 128,-1,16
 1286 1070 1286 1070 1376 1060 c 0,17,18
 1520 1044 1520 1044 1548 970 c 0,19,20
 1551 961 1551 961 1551 953 c 0,21,22
 1551 910 1551 910 1478 902 c 0,23,24
 1458 898 1458 898 1434 898 c 0,25,26
 1356 898 1356 898 1342 883 c 0,27,28
 1334 875 1334 875 1334 855 c 0,29,30
 1334 838 1334 838 1340 812 c 0,31,32
 1360 698 1360 698 1372 472 c 0,33,34
 1376 407 1376 407 1376 355 c 0,35,36
 1376 252 1376 252 1360 206 c 0,37,38
 1336 136 1336 136 1258 136 c 0,39,40
 1218 136 1218 136 1207 172 c 128,-1,41
 1196 208 1196 208 1192 348 c 0,42,43
 1180 786 1180 786 1150 856 c 0,44,45
 1137 893 1137 893 1039 893 c 0,46,47
 922 893 922 893 684 840 c 1,48,49
 500 804 500 804 467 783 c 128,-1,50
 434 762 434 762 418 672 c 1,51,52
 406 566 406 566 356 430 c 0,53,54
 328 352 328 352 303 330 c 128,-1,55
 278 308 278 308 222 308 c 0,56,57
 168 308 168 308 150 324 c 128,-1,58
 132 340 132 340 122 394 c 0,59,60
 120 401 120 401 120 411 c 0,0,1
556 1082 m 0,61,62
 556 1076 556 1076 558 1074 c 0,63,64
 578 1054 578 1054 840 1052 c 0,65,66
 852 1052 852 1052 880 1052 c 0,67,68
 1060 1052 1060 1052 1085 1085 c 0,69,70
 1094 1097 1094 1097 1094 1128 c 0,71,72
 1094 1187 1094 1187 1064 1314 c 0,73,74
 1056 1350 1056 1350 1052 1372 c 0,75,76
 1016 1536 1016 1536 1008 1708 c 0,77,78
 1000 1986 1000 1986 946 2040 c 1,79,80
 930 2040 930 2040 798 1728 c 0,81,82
 556 1150 556 1150 556 1082 c 0,61,62
EndSplineSet
EndChar

StartChar: Ccedilla
Encoding: 199 199 114
Width: 2150
GlyphClass: 2
Flags: W
LayerCount: 2
Fore
SplineSet
1015 270 m 0,0,1
 1013 266 1013 266 1064 285 c 1,2,3
 1106 305 1106 305 1184 305 c 0,4,5
 1233 305 1233 305 1249 301 c 0,6,7
 1271 295 1271 295 1276 284 c 0,8,9
 1365 66 1365 66 1216 -16 c 1,10,11
 1216 -16 1216 -16 1105 -59 c 1,12,13
 1105 -59 1105 -59 1027 -84 c 0,14,15
 932 -114 932 -114 863 -76 c 0,16,17
 847 -67 847 -67 856 -56 c 0,18,19
 864 -46 864 -46 869 -44 c 2,20,21
 869 -44 869 -44 994 -46 c 1,22,23
 994 -46 994 -46 1170 27 c 1,24,25
 1296 114 1296 114 1226 238 c 0,26,27
 1214 259 1214 259 1156 258 c 0,28,29
 1113 258 1113 258 1069 242 c 0,30,31
 1022 224 1022 224 992 198 c 0,32,33
 939 151 939 151 913 178 c 0,34,35
 901 191 901 191 926 229 c 0,36,37
 975 306 975 306 976 372 c 0,38,39
 976 397 976 397 997 415 c 0,40,41
 1020 435 1020 435 1031 439 c 0,42,43
 1042 442 1042 442 1057 434 c 1,44,-1
 1057 366 l 1,45,46
 1051 357 1051 357 1015 270 c 0,0,1
123 1025 m 0,47,48
 123 1076 123 1076 132 1130 c 0,49,50
 178 1404 178 1404 425 1701 c 128,-1,51
 672 1998 672 1998 988 2162 c 0,52,53
 1196 2268 1196 2268 1286 2277 c 0,54,55
 1295 2278 1295 2278 1305 2278 c 2,56,-1
 1466 2208 l 1,57,58
 1516 2168 1516 2168 1520 2075 c 0,59,60
 1520 2068 1520 2068 1520 2061 c 0,61,62
 1520 1981 1520 1981 1478 1966 c 0,63,64
 1466 1961 1466 1961 1446 1961 c 0,65,66
 1406 1961 1406 1961 1336 1982 c 0,67,68
 1269 2000 1269 2000 1200 2000 c 0,69,70
 1010 2000 1010 2000 801 1866 c 0,71,72
 516 1684 516 1684 360 1356 c 0,73,74
 284 1191 284 1191 284 1057 c 0,75,76
 284 793 284 793 578 644 c 0,77,78
 774 544 774 544 1063 544 c 0,79,80
 1167 544 1167 544 1284 557 c 0,81,82
 1724 606 1724 606 1762 774 c 0,83,84
 1778 852 1778 852 1843 875 c 0,85,86
 1868 884 1868 884 1892 884 c 0,87,88
 1931 884 1931 884 1968 861 c 0,89,90
 2028 824 2028 824 2028 746 c 0,91,92
 2028 598 2028 598 1708 480 c 0,93,94
 1568 430 1568 430 1462 416 c 128,-1,95
 1356 402 1356 402 1090 402 c 0,96,97
 800 406 800 406 713 418 c 128,-1,98
 626 430 626 430 516 488 c 0,99,100
 123 694 123 694 123 1025 c 0,47,48
EndSplineSet
EndChar

StartChar: Egrave
Encoding: 200 200 115
Width: 1814
GlyphClass: 2
Flags: W
LayerCount: 2
Fore
SplineSet
545.5 2523.5 m 128,-1,1
 521 2540 521 2540 526 2596 c 0,2,3
 531 2674 531 2674 610.5 2670.5 c 128,-1,4
 690 2667 690 2667 827 2584 c 1,5,6
 1012 2479 1012 2479 1111 2428 c 0,7,8
 1282 2338 1282 2338 1238 2310 c 0,9,10
 1184 2280 1184 2280 979 2370 c 0,11,12
 779 2458 779 2458 679 2481 c 0,13,0
 570 2507 570 2507 545.5 2523.5 c 128,-1,1
125 863 m 0,14,15
 125 901 125 901 126 942 c 0,16,17
 130 1102 130 1102 202 1434 c 128,-1,18
 274 1766 274 1766 274 1912 c 0,19,20
 274 2080 274 2080 348 2121 c 128,-1,21
 422 2162 422 2162 782 2184 c 1,22,23
 1142 2200 1142 2200 1156 2212 c 0,24,25
 1158 2214 1158 2214 1168 2214 c 0,26,27
 1201 2214 1201 2214 1325 2193 c 0,28,29
 1486 2166 1486 2166 1544 2150 c 0,30,31
 1598 2134 1598 2134 1618 2087 c 0,32,33
 1628 2063 1628 2063 1628 2038 c 128,-1,34
 1628 2013 1628 2013 1618 1986 c 0,35,36
 1607 1950 1607 1950 1572 1950 c 0,37,38
 1555 1950 1555 1950 1532 1958 c 0,39,40
 1269 2040 1269 2040 1042 2040 c 0,41,42
 858 2040 858 2040 696 1986 c 1,43,-1
 494 1945 l 1,44,45
 500 1936 500 1936 500 1912 c 0,46,47
 500 1797 500 1797 364 1337 c 0,48,49
 352 1287 352 1287 368 1281 c 0,50,51
 372 1279 372 1279 382 1279 c 0,52,53
 408 1279 408 1279 470 1291 c 1,54,55
 579 1292 579 1292 673 1292 c 0,56,57
 1192 1292 1192 1292 1217 1250 c 1,58,59
 1244 1229 1244 1229 1244 1193 c 0,60,61
 1244 1172 1244 1172 1234 1144 c 0,62,63
 1221 1108 1221 1108 1126 1109 c 0,64,65
 1031 1109 1031 1109 854 1144 c 1,66,67
 841 1139 841 1139 767 1139 c 0,68,69
 725 1138 725 1138 663 1140 c 0,70,71
 648 1140 648 1140 633 1141 c 0,72,73
 482 1141 482 1141 384 1099 c 0,74,75
 314 1069 314 1069 314 902 c 0,76,77
 314 811 314 811 335 678 c 1,78,79
 355 484 355 484 670 484 c 0,80,81
 673 484 673 484 676 484 c 0,82,83
 711 476 711 476 763 476 c 0,84,85
 869 476 869 476 1048 509 c 0,86,87
 1314 558 1314 558 1474 626 c 1,88,89
 1634 699 1634 699 1716 699 c 0,90,91
 1766 699 1766 699 1786 672 c 0,92,93
 1793 660 1793 660 1793 648 c 0,94,95
 1793 612 1793 612 1732 571 c 0,96,97
 1650 516 1650 516 1512 488 c 0,98,99
 1414 468 1414 468 1196 398 c 0,100,101
 1032 344 1032 344 721 344 c 128,-1,102
 410 344 410 344 328 398 c 0,103,104
 196 484 196 484 157 592 c 0,105,106
 125 682 125 682 125 863 c 0,14,15
EndSplineSet
EndChar

StartChar: Eacute
Encoding: 201 201 116
Width: 1814
GlyphClass: 2
Flags: W
LayerCount: 2
Fore
SplineSet
1379.5 2483.5 m 128,-1,1
 1404 2500 1404 2500 1399 2556 c 0,2,3
 1394 2635 1394 2635 1314.5 2631.5 c 128,-1,4
 1235 2628 1235 2628 1098 2544 c 1,5,6
 913 2439 913 2439 814 2388 c 0,7,8
 643 2298 643 2298 687 2271 c 0,9,10
 741 2241 741 2241 946 2330 c 0,11,12
 1146 2419 1146 2419 1246 2441 c 0,13,0
 1355 2467 1355 2467 1379.5 2483.5 c 128,-1,1
125 863 m 0,14,15
 125 901 125 901 126 942 c 0,16,17
 130 1102 130 1102 202 1434 c 128,-1,18
 274 1766 274 1766 274 1912 c 0,19,20
 274 2080 274 2080 348 2121 c 128,-1,21
 422 2162 422 2162 782 2184 c 1,22,23
 1142 2200 1142 2200 1156 2212 c 0,24,25
 1158 2214 1158 2214 1168 2214 c 0,26,27
 1201 2214 1201 2214 1325 2193 c 0,28,29
 1486 2166 1486 2166 1544 2150 c 0,30,31
 1598 2134 1598 2134 1618 2087 c 0,32,33
 1628 2063 1628 2063 1628 2038 c 128,-1,34
 1628 2013 1628 2013 1618 1986 c 0,35,36
 1607 1950 1607 1950 1572 1950 c 0,37,38
 1555 1950 1555 1950 1532 1958 c 0,39,40
 1269 2040 1269 2040 1042 2040 c 0,41,42
 858 2040 858 2040 696 1986 c 1,43,-1
 494 1945 l 1,44,45
 500 1936 500 1936 500 1912 c 0,46,47
 500 1797 500 1797 364 1337 c 0,48,49
 352 1287 352 1287 368 1281 c 0,50,51
 372 1279 372 1279 382 1279 c 0,52,53
 408 1279 408 1279 470 1291 c 1,54,55
 579 1292 579 1292 673 1292 c 0,56,57
 1192 1292 1192 1292 1217 1250 c 1,58,59
 1244 1229 1244 1229 1244 1193 c 0,60,61
 1244 1172 1244 1172 1234 1144 c 0,62,63
 1221 1108 1221 1108 1126 1109 c 0,64,65
 1031 1109 1031 1109 854 1144 c 1,66,67
 841 1139 841 1139 767 1139 c 0,68,69
 725 1138 725 1138 663 1140 c 0,70,71
 648 1140 648 1140 633 1141 c 0,72,73
 482 1141 482 1141 384 1099 c 0,74,75
 314 1069 314 1069 314 902 c 0,76,77
 314 811 314 811 335 678 c 1,78,79
 355 484 355 484 670 484 c 0,80,81
 673 484 673 484 676 484 c 0,82,83
 711 476 711 476 763 476 c 0,84,85
 869 476 869 476 1048 509 c 0,86,87
 1314 558 1314 558 1474 626 c 1,88,89
 1634 699 1634 699 1716 699 c 0,90,91
 1766 699 1766 699 1786 672 c 0,92,93
 1793 660 1793 660 1793 648 c 0,94,95
 1793 612 1793 612 1732 571 c 0,96,97
 1650 516 1650 516 1512 488 c 0,98,99
 1414 468 1414 468 1196 398 c 0,100,101
 1032 344 1032 344 721 344 c 128,-1,102
 410 344 410 344 328 398 c 0,103,104
 196 484 196 484 157 592 c 0,105,106
 125 682 125 682 125 863 c 0,14,15
EndSplineSet
EndChar

StartChar: Ecircumflex
Encoding: 202 202 117
Width: 1814
GlyphClass: 2
Flags: W
LayerCount: 2
Fore
SplineSet
502 2350 m 128,-1,1
 515 2375 515 2375 553 2394 c 0,2,3
 635 2432 635 2432 757.5 2513 c 128,-1,4
 880 2594 880 2594 887 2614 c 0,5,6
 898 2667 898 2667 937 2682 c 128,-1,7
 976 2697 976 2697 1023.5 2670.5 c 128,-1,8
 1071 2644 1071 2644 1107 2583 c 0,9,10
 1150 2516 1150 2516 1277 2401 c 1,11,12
 1465 2241 1465 2241 1334 2241 c 0,13,14
 1320 2239 1320 2239 1261 2285.5 c 128,-1,15
 1202 2332 1202 2332 1138 2389 c 128,-1,16
 1074 2446 1074 2446 1018 2493 c 128,-1,17
 962 2540 962 2540 948 2537 c 0,18,19
 884 2537 884 2537 713 2366 c 0,20,21
 621 2275 621 2275 564 2282 c 0,22,23
 521 2284 521 2284 505 2304.5 c 128,-1,0
 489 2325 489 2325 502 2350 c 128,-1,1
125 863 m 0,24,25
 125 901 125 901 126 942 c 0,26,27
 130 1102 130 1102 202 1434 c 128,-1,28
 274 1766 274 1766 274 1912 c 0,29,30
 274 2080 274 2080 348 2121 c 128,-1,31
 422 2162 422 2162 782 2184 c 1,32,33
 1142 2200 1142 2200 1156 2212 c 0,34,35
 1158 2214 1158 2214 1168 2214 c 0,36,37
 1201 2214 1201 2214 1325 2193 c 0,38,39
 1486 2166 1486 2166 1544 2150 c 0,40,41
 1598 2134 1598 2134 1618 2087 c 0,42,43
 1628 2063 1628 2063 1628 2038 c 128,-1,44
 1628 2013 1628 2013 1618 1986 c 0,45,46
 1607 1950 1607 1950 1572 1950 c 0,47,48
 1555 1950 1555 1950 1532 1958 c 0,49,50
 1269 2040 1269 2040 1042 2040 c 0,51,52
 858 2040 858 2040 696 1986 c 1,53,-1
 494 1945 l 1,54,55
 500 1936 500 1936 500 1912 c 0,56,57
 500 1797 500 1797 364 1337 c 0,58,59
 352 1287 352 1287 368 1281 c 0,60,61
 372 1279 372 1279 382 1279 c 0,62,63
 408 1279 408 1279 470 1291 c 1,64,65
 579 1292 579 1292 673 1292 c 0,66,67
 1192 1292 1192 1292 1217 1250 c 1,68,69
 1244 1229 1244 1229 1244 1193 c 0,70,71
 1244 1172 1244 1172 1234 1144 c 0,72,73
 1221 1108 1221 1108 1126 1109 c 0,74,75
 1031 1109 1031 1109 854 1144 c 1,76,77
 841 1139 841 1139 767 1139 c 0,78,79
 725 1138 725 1138 663 1140 c 0,80,81
 648 1140 648 1140 633 1141 c 0,82,83
 482 1141 482 1141 384 1099 c 0,84,85
 314 1069 314 1069 314 902 c 0,86,87
 314 811 314 811 335 678 c 1,88,89
 355 484 355 484 670 484 c 0,90,91
 673 484 673 484 676 484 c 0,92,93
 711 476 711 476 763 476 c 0,94,95
 869 476 869 476 1048 509 c 0,96,97
 1314 558 1314 558 1474 626 c 1,98,99
 1634 699 1634 699 1716 699 c 0,100,101
 1766 699 1766 699 1786 672 c 0,102,103
 1793 660 1793 660 1793 648 c 0,104,105
 1793 612 1793 612 1732 571 c 0,106,107
 1650 516 1650 516 1512 488 c 0,108,109
 1414 468 1414 468 1196 398 c 0,110,111
 1032 344 1032 344 721 344 c 128,-1,112
 410 344 410 344 328 398 c 0,113,114
 196 484 196 484 157 592 c 0,115,116
 125 682 125 682 125 863 c 0,24,25
EndSplineSet
EndChar

StartChar: Edieresis
Encoding: 203 203 118
Width: 1814
GlyphClass: 2
Flags: W
LayerCount: 2
Fore
SplineSet
1068 2443 m 0,0,1
 1068 2454 1068 2454 1096 2487 c 0,2,3
 1135 2534 1135 2534 1167 2529.5 c 128,-1,4
 1199 2525 1199 2525 1200 2525 c 0,5,6
 1252 2525 1252 2525 1276 2511 c 0,7,8
 1292 2501 1292 2501 1292 2439 c 0,9,10
 1292 2434 1292 2434 1292 2430 c 0,11,12
 1295 2411 1295 2411 1295 2396 c 0,13,14
 1295 2376 1295 2376 1252 2354 c 1,15,-1
 1194 2345 l 1,16,17
 1147 2345 1147 2345 1102 2383 c 0,18,19
 1068 2412 1068 2412 1068 2443 c 0,0,1
712 2431 m 0,20,21
 712 2455 712 2455 732 2480 c 0,22,23
 760 2512 760 2512 809 2518 c 0,24,25
 818 2519 818 2519 827 2519 c 0,26,27
 866 2519 866 2519 899 2498 c 0,28,29
 936 2474 936 2474 936 2427 c 0,30,31
 936 2422 936 2422 936 2418 c 0,32,33
 939 2399 939 2399 939 2384 c 0,34,35
 939 2334 939 2334 908 2328 c 0,36,37
 894 2327 894 2327 881 2327 c 0,38,39
 798 2327 798 2327 746 2371 c 0,40,41
 712 2400 712 2400 712 2431 c 0,20,21
125 863 m 0,42,43
 125 901 125 901 126 942 c 0,44,45
 130 1102 130 1102 202 1434 c 128,-1,46
 274 1766 274 1766 274 1912 c 0,47,48
 274 2080 274 2080 348 2121 c 128,-1,49
 422 2162 422 2162 782 2184 c 1,50,51
 1142 2200 1142 2200 1156 2212 c 0,52,53
 1158 2214 1158 2214 1168 2214 c 0,54,55
 1201 2214 1201 2214 1325 2193 c 0,56,57
 1486 2166 1486 2166 1544 2150 c 0,58,59
 1598 2134 1598 2134 1618 2087 c 0,60,61
 1628 2063 1628 2063 1628 2038 c 128,-1,62
 1628 2013 1628 2013 1618 1986 c 0,63,64
 1607 1950 1607 1950 1572 1950 c 0,65,66
 1555 1950 1555 1950 1532 1958 c 0,67,68
 1269 2040 1269 2040 1042 2040 c 0,69,70
 858 2040 858 2040 696 1986 c 1,71,-1
 494 1945 l 1,72,73
 500 1936 500 1936 500 1912 c 0,74,75
 500 1797 500 1797 364 1337 c 0,76,77
 352 1287 352 1287 368 1281 c 0,78,79
 372 1279 372 1279 382 1279 c 0,80,81
 408 1279 408 1279 470 1291 c 1,82,83
 579 1292 579 1292 673 1292 c 0,84,85
 1192 1292 1192 1292 1217 1250 c 1,86,87
 1244 1229 1244 1229 1244 1193 c 0,88,89
 1244 1172 1244 1172 1234 1144 c 0,90,91
 1221 1108 1221 1108 1126 1109 c 0,92,93
 1031 1109 1031 1109 854 1144 c 1,94,95
 841 1139 841 1139 767 1139 c 0,96,97
 725 1138 725 1138 663 1140 c 0,98,99
 648 1140 648 1140 633 1141 c 0,100,101
 482 1141 482 1141 384 1099 c 0,102,103
 314 1069 314 1069 314 902 c 0,104,105
 314 811 314 811 335 678 c 1,106,107
 355 484 355 484 670 484 c 0,108,109
 673 484 673 484 676 484 c 0,110,111
 711 476 711 476 763 476 c 0,112,113
 869 476 869 476 1048 509 c 0,114,115
 1314 558 1314 558 1474 626 c 1,116,117
 1634 699 1634 699 1716 699 c 0,118,119
 1766 699 1766 699 1786 672 c 0,120,121
 1793 660 1793 660 1793 648 c 0,122,123
 1793 612 1793 612 1732 571 c 0,124,125
 1650 516 1650 516 1512 488 c 0,126,127
 1414 468 1414 468 1196 398 c 0,128,129
 1032 344 1032 344 721 344 c 128,-1,130
 410 344 410 344 328 398 c 0,131,132
 196 484 196 484 157 592 c 0,133,134
 125 682 125 682 125 863 c 0,42,43
EndSplineSet
EndChar

StartChar: Igrave
Encoding: 204 204 119
Width: 634
GlyphClass: 2
Flags: W
LayerCount: 2
Fore
SplineSet
3 2833.5 m 128,-1,1
 -15 2857 -15 2857 8 2909 c 0,2,3
 38 2981 38 2981 112 2952 c 128,-1,4
 186 2923 186 2923 289 2800 c 1,5,6
 430 2641 430 2641 507 2561 c 0,7,8
 640 2420 640 2420 590 2408 c 0,9,10
 529 2398 529 2398 364 2548 c 0,11,12
 203 2697 203 2697 116 2750 c 0,13,0
 21 2810 21 2810 3 2833.5 c 128,-1,1
127 491 m 0,14,15
 127 497 127 497 127 502 c 0,16,17
 127 623 127 623 147 813 c 0,18,19
 168 1012 168 1012 193 1208 c 128,-1,20
 218 1404 218 1404 244 1595 c 128,-1,21
 270 1786 270 1786 274 1844 c 0,22,23
 306 2200 306 2200 372 2266 c 0,24,25
 423 2321 423 2321 442 2321 c 0,26,27
 443 2321 443 2321 444 2321 c 0,28,29
 462 2318 462 2318 492 2260 c 0,30,31
 508 2229 508 2229 508 2196.5 c 128,-1,32
 508 2164 508 2164 492 2130 c 0,33,34
 456 2064 456 2064 380 1524 c 128,-1,35
 304 984 304 984 294 754 c 0,36,37
 286 554 286 554 252 453 c 0,38,39
 225 371 225 371 179 371 c 0,40,41
 168 371 168 371 156 376 c 0,42,43
 154 376 154 376 153 376 c 0,44,45
 128 376 128 376 127 491 c 0,14,15
EndSplineSet
EndChar

StartChar: Iacute
Encoding: 205 205 120
Width: 634
GlyphClass: 2
Flags: W
LayerCount: 2
Fore
SplineSet
971.5 2655.5 m 128,-1,1
 996 2672 996 2672 991 2728 c 0,2,3
 987 2807 987 2807 907 2803.5 c 128,-1,4
 827 2800 827 2800 690 2716 c 1,5,6
 506 2611 506 2611 407 2560 c 0,7,8
 235 2470 235 2470 279 2443 c 0,9,10
 333 2413 333 2413 538 2502 c 0,11,12
 739 2591 739 2591 838 2613 c 0,13,0
 947 2639 947 2639 971.5 2655.5 c 128,-1,1
127 491 m 0,14,15
 127 497 127 497 127 502 c 0,16,17
 127 623 127 623 147 813 c 0,18,19
 168 1012 168 1012 193 1208 c 128,-1,20
 218 1404 218 1404 244 1595 c 128,-1,21
 270 1786 270 1786 274 1844 c 0,22,23
 306 2200 306 2200 372 2266 c 0,24,25
 423 2321 423 2321 442 2321 c 0,26,27
 443 2321 443 2321 444 2321 c 0,28,29
 462 2318 462 2318 492 2260 c 0,30,31
 508 2229 508 2229 508 2196.5 c 128,-1,32
 508 2164 508 2164 492 2130 c 0,33,34
 456 2064 456 2064 380 1524 c 128,-1,35
 304 984 304 984 294 754 c 0,36,37
 286 554 286 554 252 453 c 0,38,39
 225 371 225 371 179 371 c 0,40,41
 168 371 168 371 156 376 c 0,42,43
 154 376 154 376 153 376 c 0,44,45
 128 376 128 376 127 491 c 0,14,15
EndSplineSet
EndChar

StartChar: Icircumflex
Encoding: 206 206 121
Width: 634
GlyphClass: 2
Flags: W
LayerCount: 2
Fore
SplineSet
-48 2321 m 128,-1,1
 -35 2346 -35 2346 3 2365 c 0,2,3
 85 2403 85 2403 207.5 2484 c 128,-1,4
 330 2565 330 2565 337 2585 c 0,5,6
 348 2637 348 2637 386.5 2652.5 c 128,-1,7
 425 2668 425 2668 473 2641.5 c 128,-1,8
 521 2615 521 2615 557 2553 c 0,9,10
 600 2487 600 2487 726 2372 c 1,11,12
 915 2212 915 2212 783 2212 c 0,13,14
 770 2210 770 2210 711 2256.5 c 128,-1,15
 652 2303 652 2303 588 2360 c 128,-1,16
 524 2417 524 2417 468 2463.5 c 128,-1,17
 412 2510 412 2510 398 2508 c 0,18,19
 334 2508 334 2508 162 2337 c 0,20,21
 71 2246 71 2246 14 2253 c 0,22,23
 -30 2255 -30 2255 -45.5 2275.5 c 128,-1,0
 -61 2296 -61 2296 -48 2321 c 128,-1,1
127 491 m 0,24,25
 127 497 127 497 127 502 c 0,26,27
 127 623 127 623 147 813 c 0,28,29
 168 1012 168 1012 193 1208 c 128,-1,30
 218 1404 218 1404 244 1595 c 128,-1,31
 270 1786 270 1786 274 1844 c 0,32,33
 306 2200 306 2200 372 2266 c 0,34,35
 423 2321 423 2321 442 2321 c 0,36,37
 443 2321 443 2321 444 2321 c 0,38,39
 462 2318 462 2318 492 2260 c 0,40,41
 508 2229 508 2229 508 2196.5 c 128,-1,42
 508 2164 508 2164 492 2130 c 0,43,44
 456 2064 456 2064 380 1524 c 128,-1,45
 304 984 304 984 294 754 c 0,46,47
 286 554 286 554 252 453 c 0,48,49
 225 371 225 371 179 371 c 0,50,51
 168 371 168 371 156 376 c 0,52,53
 154 376 154 376 153 376 c 0,54,55
 128 376 128 376 127 491 c 0,24,25
EndSplineSet
EndChar

StartChar: Idieresis
Encoding: 207 207 122
Width: 634
GlyphClass: 2
Flags: W
LayerCount: 2
Fore
SplineSet
478 2588 m 0,0,1
 478 2599 478 2599 506 2632 c 0,2,3
 545 2679 545 2679 577 2674.5 c 128,-1,4
 609 2670 609 2670 610 2670 c 0,5,6
 662 2670 662 2670 686 2656 c 0,7,8
 702 2646 702 2646 702 2584 c 0,9,10
 702 2579 702 2579 702 2575 c 0,11,12
 705 2556 705 2556 705 2541 c 0,13,14
 705 2521 705 2521 662 2499 c 1,15,-1
 604 2490 l 1,16,17
 557 2490 557 2490 512 2528 c 0,18,19
 478 2557 478 2557 478 2588 c 0,0,1
122 2576 m 0,20,21
 122 2600 122 2600 142 2625 c 0,22,23
 170 2657 170 2657 219 2663 c 0,24,25
 228 2664 228 2664 237 2664 c 0,26,27
 276 2664 276 2664 309 2643 c 0,28,29
 346 2619 346 2619 346 2572 c 0,30,31
 346 2567 346 2567 346 2563 c 0,32,33
 349 2544 349 2544 349 2529 c 0,34,35
 349 2479 349 2479 318 2473 c 0,36,37
 304 2472 304 2472 291 2472 c 0,38,39
 208 2472 208 2472 156 2516 c 0,40,41
 122 2545 122 2545 122 2576 c 0,20,21
127 491 m 0,42,43
 127 497 127 497 127 502 c 0,44,45
 127 623 127 623 147 813 c 0,46,47
 168 1012 168 1012 193 1208 c 128,-1,48
 218 1404 218 1404 244 1595 c 128,-1,49
 270 1786 270 1786 274 1844 c 0,50,51
 306 2200 306 2200 372 2266 c 0,52,53
 423 2321 423 2321 442 2321 c 0,54,55
 443 2321 443 2321 444 2321 c 0,56,57
 462 2318 462 2318 492 2260 c 0,58,59
 508 2229 508 2229 508 2196.5 c 128,-1,60
 508 2164 508 2164 492 2130 c 0,61,62
 456 2064 456 2064 380 1524 c 128,-1,63
 304 984 304 984 294 754 c 0,64,65
 286 554 286 554 252 453 c 0,66,67
 225 371 225 371 179 371 c 0,68,69
 168 371 168 371 156 376 c 0,70,71
 154 376 154 376 153 376 c 0,72,73
 128 376 128 376 127 491 c 0,42,43
EndSplineSet
EndChar

StartChar: Ograve
Encoding: 210 210 123
Width: 1936
GlyphClass: 2
Flags: W
LayerCount: 2
Fore
SplineSet
608.5 2517.5 m 128,-1,1
 584 2534 584 2534 589 2590 c 0,2,3
 593 2669 593 2669 673 2665.5 c 128,-1,4
 753 2662 753 2662 890 2578 c 1,5,6
 1074 2473 1074 2473 1173 2422 c 0,7,8
 1345 2332 1345 2332 1301 2305 c 0,9,10
 1247 2275 1247 2275 1042 2364 c 0,11,12
 841 2453 841 2453 742 2475 c 0,13,0
 633 2501 633 2501 608.5 2517.5 c 128,-1,1
125 872 m 0,14,15
 125 954 125 954 139 1049 c 0,16,17
 176 1294 176 1294 300 1532 c 1,18,19
 382 1700 382 1700 435 1757 c 128,-1,20
 488 1814 488 1814 558 1814 c 0,21,22
 631 1814 631 1814 631 1757 c 0,23,24
 631 1698 631 1698 558 1618 c 0,25,26
 448 1496 448 1496 369 1217 c 0,27,28
 316 1029 316 1029 316 898 c 0,29,30
 316 835 316 835 328 786 c 0,31,32
 344 708 344 708 430 608 c 128,-1,33
 516 508 516 508 606 462 c 0,34,35
 710 409 710 409 829 408 c 0,36,37
 974 408 974 408 1141 487 c 0,38,39
 1446 630 1446 630 1564 910 c 0,40,41
 1600 1004 1600 1004 1642 1236 c 0,42,43
 1660 1349 1660 1349 1660 1450 c 0,44,45
 1660 1608 1660 1608 1616 1736 c 0,46,47
 1544 1946 1544 1946 1364 2040 c 0,48,49
 1237 2103 1237 2103 1133 2103 c 0,50,51
 1005 2103 1005 2103 910 2008 c 0,52,53
 836 1934 836 1934 801 1919 c 0,54,55
 791 1915 791 1915 782 1915 c 0,56,57
 760 1915 760 1915 746 1942 c 0,58,59
 734 1960 734 1960 734 1979 c 0,60,61
 734 2005 734 2005 754 2035 c 0,62,63
 790 2088 790 2088 880 2134 c 0,64,65
 999 2198 999 2198 1159 2198 c 0,66,67
 1245 2198 1245 2198 1343 2179 c 0,68,69
 1622 2126 1622 2126 1696 1986 c 0,70,71
 1712 1954 1712 1954 1741 1907 c 128,-1,72
 1770 1860 1770 1860 1778 1839 c 128,-1,73
 1786 1818 1786 1818 1798 1769 c 128,-1,74
 1810 1720 1810 1720 1812 1653 c 128,-1,75
 1814 1586 1814 1586 1814 1470 c 0,76,77
 1806 1036 1806 1036 1673 797 c 128,-1,78
 1540 558 1540 558 1208 398 c 0,79,80
 1052 320 1052 320 975 297 c 0,81,82
 909 277 909 277 813 277 c 0,83,84
 796 277 796 277 778 278 c 0,85,86
 560 282 560 282 391 385 c 128,-1,87
 222 488 222 488 160 652 c 0,88,89
 125 745 125 745 125 872 c 0,14,15
EndSplineSet
EndChar

StartChar: Oacute
Encoding: 211 211 124
Width: 1936
GlyphClass: 2
Flags: W
LayerCount: 2
Fore
SplineSet
1549.5 2502.5 m 128,-1,1
 1574 2519 1574 2519 1569 2575 c 0,2,3
 1564 2654 1564 2654 1484.5 2650.5 c 128,-1,4
 1405 2647 1405 2647 1268 2563 c 1,5,6
 1083 2458 1083 2458 984 2407 c 0,7,8
 813 2317 813 2317 857 2290 c 0,9,10
 911 2260 911 2260 1116 2349 c 0,11,12
 1316 2438 1316 2438 1416 2460 c 0,13,0
 1525 2486 1525 2486 1549.5 2502.5 c 128,-1,1
125 872 m 0,14,15
 125 954 125 954 139 1049 c 0,16,17
 176 1294 176 1294 300 1532 c 1,18,19
 382 1700 382 1700 435 1757 c 128,-1,20
 488 1814 488 1814 558 1814 c 0,21,22
 631 1814 631 1814 631 1757 c 0,23,24
 631 1698 631 1698 558 1618 c 0,25,26
 448 1496 448 1496 369 1217 c 0,27,28
 316 1029 316 1029 316 898 c 0,29,30
 316 835 316 835 328 786 c 0,31,32
 344 708 344 708 430 608 c 128,-1,33
 516 508 516 508 606 462 c 0,34,35
 710 409 710 409 829 408 c 0,36,37
 974 408 974 408 1141 487 c 0,38,39
 1446 630 1446 630 1564 910 c 0,40,41
 1600 1004 1600 1004 1642 1236 c 0,42,43
 1660 1349 1660 1349 1660 1450 c 0,44,45
 1660 1608 1660 1608 1616 1736 c 0,46,47
 1544 1946 1544 1946 1364 2040 c 0,48,49
 1237 2103 1237 2103 1133 2103 c 0,50,51
 1005 2103 1005 2103 910 2008 c 0,52,53
 836 1934 836 1934 801 1919 c 0,54,55
 791 1915 791 1915 782 1915 c 0,56,57
 760 1915 760 1915 746 1942 c 0,58,59
 734 1960 734 1960 734 1979 c 0,60,61
 734 2005 734 2005 754 2035 c 0,62,63
 790 2088 790 2088 880 2134 c 0,64,65
 999 2198 999 2198 1159 2198 c 0,66,67
 1245 2198 1245 2198 1343 2179 c 0,68,69
 1622 2126 1622 2126 1696 1986 c 0,70,71
 1712 1954 1712 1954 1741 1907 c 128,-1,72
 1770 1860 1770 1860 1778 1839 c 128,-1,73
 1786 1818 1786 1818 1798 1769 c 128,-1,74
 1810 1720 1810 1720 1812 1653 c 128,-1,75
 1814 1586 1814 1586 1814 1470 c 0,76,77
 1806 1036 1806 1036 1673 797 c 128,-1,78
 1540 558 1540 558 1208 398 c 0,79,80
 1052 320 1052 320 975 297 c 0,81,82
 909 277 909 277 813 277 c 0,83,84
 796 277 796 277 778 278 c 0,85,86
 560 282 560 282 391 385 c 128,-1,87
 222 488 222 488 160 652 c 0,88,89
 125 745 125 745 125 872 c 0,14,15
EndSplineSet
EndChar

StartChar: Ocircumflex
Encoding: 212 212 125
Width: 1936
GlyphClass: 2
Flags: W
LayerCount: 2
Fore
SplineSet
516 2355 m 128,-1,1
 529 2380 529 2380 567 2399 c 0,2,3
 649 2437 649 2437 771.5 2518 c 128,-1,4
 894 2599 894 2599 901 2619 c 0,5,6
 912 2671 912 2671 950.5 2686.5 c 128,-1,7
 989 2702 989 2702 1037 2675.5 c 128,-1,8
 1085 2649 1085 2649 1121 2587 c 0,9,10
 1164 2521 1164 2521 1290 2406 c 1,11,12
 1479 2246 1479 2246 1347 2246 c 0,13,14
 1334 2244 1334 2244 1275 2290.5 c 128,-1,15
 1216 2337 1216 2337 1152 2394 c 128,-1,16
 1088 2451 1088 2451 1032 2497.5 c 128,-1,17
 976 2544 976 2544 962 2542 c 0,18,19
 898 2542 898 2542 726 2371 c 0,20,21
 635 2280 635 2280 578 2287 c 0,22,23
 534 2289 534 2289 518.5 2309.5 c 128,-1,0
 503 2330 503 2330 516 2355 c 128,-1,1
125 872 m 0,24,25
 125 954 125 954 139 1049 c 0,26,27
 176 1294 176 1294 300 1532 c 1,28,29
 382 1700 382 1700 435 1757 c 128,-1,30
 488 1814 488 1814 558 1814 c 0,31,32
 631 1814 631 1814 631 1757 c 0,33,34
 631 1698 631 1698 558 1618 c 0,35,36
 448 1496 448 1496 369 1217 c 0,37,38
 316 1029 316 1029 316 898 c 0,39,40
 316 835 316 835 328 786 c 0,41,42
 344 708 344 708 430 608 c 128,-1,43
 516 508 516 508 606 462 c 0,44,45
 710 409 710 409 829 408 c 0,46,47
 974 408 974 408 1141 487 c 0,48,49
 1446 630 1446 630 1564 910 c 0,50,51
 1600 1004 1600 1004 1642 1236 c 0,52,53
 1660 1349 1660 1349 1660 1450 c 0,54,55
 1660 1608 1660 1608 1616 1736 c 0,56,57
 1544 1946 1544 1946 1364 2040 c 0,58,59
 1237 2103 1237 2103 1133 2103 c 0,60,61
 1005 2103 1005 2103 910 2008 c 0,62,63
 836 1934 836 1934 801 1919 c 0,64,65
 791 1915 791 1915 782 1915 c 0,66,67
 760 1915 760 1915 746 1942 c 0,68,69
 734 1960 734 1960 734 1979 c 0,70,71
 734 2005 734 2005 754 2035 c 0,72,73
 790 2088 790 2088 880 2134 c 0,74,75
 999 2198 999 2198 1159 2198 c 0,76,77
 1245 2198 1245 2198 1343 2179 c 0,78,79
 1622 2126 1622 2126 1696 1986 c 0,80,81
 1712 1954 1712 1954 1741 1907 c 128,-1,82
 1770 1860 1770 1860 1778 1839 c 128,-1,83
 1786 1818 1786 1818 1798 1769 c 128,-1,84
 1810 1720 1810 1720 1812 1653 c 128,-1,85
 1814 1586 1814 1586 1814 1470 c 0,86,87
 1806 1036 1806 1036 1673 797 c 128,-1,88
 1540 558 1540 558 1208 398 c 0,89,90
 1052 320 1052 320 975 297 c 0,91,92
 909 277 909 277 813 277 c 0,93,94
 796 277 796 277 778 278 c 0,95,96
 560 282 560 282 391 385 c 128,-1,97
 222 488 222 488 160 652 c 0,98,99
 125 745 125 745 125 872 c 0,24,25
EndSplineSet
EndChar

StartChar: Otilde
Encoding: 213 213 126
Width: 1936
GlyphClass: 2
Flags: W
LayerCount: 2
Fore
SplineSet
412 2402 m 0,0,1
 412 2468 412 2468 476 2523 c 128,-1,2
 540 2578 540 2578 696 2648 c 0,3,4
 770 2684 770 2684 834 2660 c 0,5,6
 880 2644 880 2644 904 2609 c 128,-1,7
 928 2574 928 2574 974 2468 c 1,8,9
 1010 2370 1010 2370 1092 2368 c 128,-1,10
 1174 2366 1174 2366 1350 2460 c 0,11,12
 1558 2566 1558 2566 1592 2534 c 0,13,14
 1628 2498 1628 2498 1548 2438 c 0,15,16
 1482 2384 1482 2384 1279 2301 c 128,-1,17
 1076 2218 1076 2218 1019 2218 c 128,-1,18
 962 2218 962 2218 876 2304 c 128,-1,19
 790 2390 790 2390 790 2446 c 0,20,21
 790 2540 790 2540 712 2460 c 0,22,23
 688 2436 688 2436 650 2390 c 0,24,25
 552 2276 552 2276 482 2296 c 0,26,27
 412 2320 412 2320 412 2402 c 0,0,1
125 872 m 0,28,29
 125 954 125 954 139 1049 c 0,30,31
 176 1294 176 1294 300 1532 c 1,32,33
 382 1700 382 1700 435 1757 c 128,-1,34
 488 1814 488 1814 558 1814 c 0,35,36
 631 1814 631 1814 631 1757 c 0,37,38
 631 1698 631 1698 558 1618 c 0,39,40
 448 1496 448 1496 369 1217 c 0,41,42
 316 1029 316 1029 316 898 c 0,43,44
 316 835 316 835 328 786 c 0,45,46
 344 708 344 708 430 608 c 128,-1,47
 516 508 516 508 606 462 c 0,48,49
 710 409 710 409 829 408 c 0,50,51
 974 408 974 408 1141 487 c 0,52,53
 1446 630 1446 630 1564 910 c 0,54,55
 1600 1004 1600 1004 1642 1236 c 0,56,57
 1660 1349 1660 1349 1660 1450 c 0,58,59
 1660 1608 1660 1608 1616 1736 c 0,60,61
 1544 1946 1544 1946 1364 2040 c 0,62,63
 1237 2103 1237 2103 1133 2103 c 0,64,65
 1005 2103 1005 2103 910 2008 c 0,66,67
 836 1934 836 1934 801 1919 c 0,68,69
 791 1915 791 1915 782 1915 c 0,70,71
 760 1915 760 1915 746 1942 c 0,72,73
 734 1960 734 1960 734 1979 c 0,74,75
 734 2005 734 2005 754 2035 c 0,76,77
 790 2088 790 2088 880 2134 c 0,78,79
 999 2198 999 2198 1159 2198 c 0,80,81
 1245 2198 1245 2198 1343 2179 c 0,82,83
 1622 2126 1622 2126 1696 1986 c 0,84,85
 1712 1954 1712 1954 1741 1907 c 128,-1,86
 1770 1860 1770 1860 1778 1839 c 128,-1,87
 1786 1818 1786 1818 1798 1769 c 128,-1,88
 1810 1720 1810 1720 1812 1653 c 128,-1,89
 1814 1586 1814 1586 1814 1470 c 0,90,91
 1806 1036 1806 1036 1673 797 c 128,-1,92
 1540 558 1540 558 1208 398 c 0,93,94
 1052 320 1052 320 975 297 c 0,95,96
 909 277 909 277 813 277 c 0,97,98
 796 277 796 277 778 278 c 0,99,100
 560 282 560 282 391 385 c 128,-1,101
 222 488 222 488 160 652 c 0,102,103
 125 745 125 745 125 872 c 0,28,29
EndSplineSet
EndChar

StartChar: Odieresis
Encoding: 214 214 127
Width: 1936
GlyphClass: 2
Flags: W
LayerCount: 2
Fore
SplineSet
1086 2428 m 0,0,1
 1086 2439 1086 2439 1114 2472 c 0,2,3
 1153 2519 1153 2519 1185 2514.5 c 128,-1,4
 1217 2510 1217 2510 1218 2510 c 0,5,6
 1270 2510 1270 2510 1294 2496 c 0,7,8
 1310 2486 1310 2486 1310 2424 c 0,9,10
 1310 2419 1310 2419 1310 2415 c 0,11,12
 1313 2396 1313 2396 1313 2381 c 0,13,14
 1313 2361 1313 2361 1270 2339 c 1,15,-1
 1212 2330 l 1,16,17
 1165 2330 1165 2330 1120 2368 c 0,18,19
 1086 2397 1086 2397 1086 2428 c 0,0,1
730 2416 m 0,20,21
 730 2440 730 2440 750 2465 c 0,22,23
 778 2497 778 2497 827 2503 c 0,24,25
 836 2504 836 2504 845 2504 c 0,26,27
 884 2504 884 2504 917 2483 c 0,28,29
 954 2459 954 2459 954 2412 c 0,30,31
 954 2407 954 2407 954 2403 c 0,32,33
 957 2384 957 2384 957 2369 c 0,34,35
 957 2319 957 2319 926 2313 c 0,36,37
 912 2312 912 2312 899 2312 c 0,38,39
 816 2312 816 2312 764 2356 c 0,40,41
 730 2385 730 2385 730 2416 c 0,20,21
125 872 m 0,42,43
 125 954 125 954 139 1049 c 0,44,45
 176 1294 176 1294 300 1532 c 1,46,47
 382 1700 382 1700 435 1757 c 128,-1,48
 488 1814 488 1814 558 1814 c 0,49,50
 631 1814 631 1814 631 1757 c 0,51,52
 631 1698 631 1698 558 1618 c 0,53,54
 448 1496 448 1496 369 1217 c 0,55,56
 316 1029 316 1029 316 898 c 0,57,58
 316 835 316 835 328 786 c 0,59,60
 344 708 344 708 430 608 c 128,-1,61
 516 508 516 508 606 462 c 0,62,63
 710 409 710 409 829 408 c 0,64,65
 974 408 974 408 1141 487 c 0,66,67
 1446 630 1446 630 1564 910 c 0,68,69
 1600 1004 1600 1004 1642 1236 c 0,70,71
 1660 1349 1660 1349 1660 1450 c 0,72,73
 1660 1608 1660 1608 1616 1736 c 0,74,75
 1544 1946 1544 1946 1364 2040 c 0,76,77
 1237 2103 1237 2103 1133 2103 c 0,78,79
 1005 2103 1005 2103 910 2008 c 0,80,81
 836 1934 836 1934 801 1919 c 0,82,83
 791 1915 791 1915 782 1915 c 0,84,85
 760 1915 760 1915 746 1942 c 0,86,87
 734 1960 734 1960 734 1979 c 0,88,89
 734 2005 734 2005 754 2035 c 0,90,91
 790 2088 790 2088 880 2134 c 0,92,93
 999 2198 999 2198 1159 2198 c 0,94,95
 1245 2198 1245 2198 1343 2179 c 0,96,97
 1622 2126 1622 2126 1696 1986 c 0,98,99
 1712 1954 1712 1954 1741 1907 c 128,-1,100
 1770 1860 1770 1860 1778 1839 c 128,-1,101
 1786 1818 1786 1818 1798 1769 c 128,-1,102
 1810 1720 1810 1720 1812 1653 c 128,-1,103
 1814 1586 1814 1586 1814 1470 c 0,104,105
 1806 1036 1806 1036 1673 797 c 128,-1,106
 1540 558 1540 558 1208 398 c 0,107,108
 1052 320 1052 320 975 297 c 0,109,110
 909 277 909 277 813 277 c 0,111,112
 796 277 796 277 778 278 c 0,113,114
 560 282 560 282 391 385 c 128,-1,115
 222 488 222 488 160 652 c 0,116,117
 125 745 125 745 125 872 c 0,42,43
EndSplineSet
EndChar

StartChar: multiply
Encoding: 215 215 128
Width: 1166
GlyphClass: 2
Flags: W
LayerCount: 2
Fore
SplineSet
126 884 m 0,0,1
 114 920 114 920 132 974 c 1,2,3
 148 1040 148 1040 176 1040 c 0,4,5
 208 1040 208 1040 317 1141 c 128,-1,6
 426 1242 426 1242 426 1274 c 128,-1,7
 426 1306 426 1306 316 1418 c 1,8,9
 206 1524 206 1524 200 1626 c 0,10,11
 200 1672 200 1672 234 1672 c 0,12,13
 250 1672 250 1672 414 1532 c 1,14,15
 546 1414 546 1414 599 1422 c 128,-1,16
 652 1430 652 1430 782 1590 c 0,17,18
 872 1700 872 1700 942 1727 c 128,-1,19
 1012 1754 1012 1754 1040 1688 c 0,20,21
 1052 1656 1052 1656 947 1537 c 128,-1,22
 842 1418 842 1418 802 1418 c 0,23,24
 786 1418 786 1418 720 1352 c 0,25,26
 674 1302 674 1302 685 1278 c 128,-1,27
 696 1254 696 1254 812 1156 c 1,28,29
 934 1046 934 1046 950 1006 c 128,-1,30
 966 966 966 966 910 910 c 0,31,32
 874 870 874 870 845 886 c 128,-1,33
 816 902 816 902 708 1016 c 0,34,35
 598 1138 598 1138 569 1153 c 128,-1,36
 540 1168 540 1168 492 1122 c 0,37,38
 426 1056 426 1056 406 996 c 0,39,40
 366 856 366 856 250 824 c 0,41,42
 148 796 148 796 126 884 c 0,0,1
EndSplineSet
EndChar

StartChar: Ugrave
Encoding: 217 217 129
Width: 1290
GlyphClass: 2
Flags: W
LayerCount: 2
Fore
SplineSet
122 1095 m 0,0,1
 122 1404 122 1404 152 1676 c 0,2,3
 180 1938 180 1938 196 1999 c 128,-1,4
 212 2060 212 2060 258 2064 c 1,5,6
 298 2072 298 2072 319 2058 c 128,-1,7
 340 2044 340 2044 344 2003 c 0,8,9
 345 1991 345 1991 345 1978 c 0,10,11
 345 1944 345 1944 338 1899 c 0,12,13
 328 1836 328 1836 304 1732 c 0,14,15
 230 1441 230 1441 230 1088 c 0,16,17
 230 991 230 991 236 889 c 0,18,19
 262 418 262 418 376 418 c 0,20,21
 412 418 412 418 528 539 c 128,-1,22
 644 660 644 660 720 782 c 0,23,24
 806 918 806 918 843 1059 c 128,-1,25
 880 1200 880 1200 938 1622 c 0,26,27
 1004 2110 1004 2110 1024 2154 c 0,28,29
 1039 2196 1039 2196 1078 2196 c 0,30,31
 1081 2196 1081 2196 1085 2196 c 0,32,33
 1130 2192 1130 2192 1156 2142 c 0,34,35
 1170 2118 1170 2118 1170 2053 c 0,36,37
 1170 1859 1170 1859 1048 1306 c 0,38,39
 982 998 982 998 976 737 c 0,40,41
 975 713 975 713 975 690 c 0,42,43
 975 470 975 470 1028 406 c 0,44,45
 1044 388 1044 388 1044 366 c 0,46,47
 1044 340 1044 340 1020 308 c 0,48,49
 988 263 988 263 960 263 c 0,50,51
 917 263 917 263 884 372 c 0,52,53
 864 438 864 438 856 532 c 2,54,-1
 836 742 l 1,55,56
 750 558 750 558 574 394 c 0,57,58
 435 265 435 265 345 265 c 0,59,60
 321 265 321 265 300 274 c 0,61,62
 238 294 238 294 184 410 c 1,63,64
 134 528 134 528 124 930 c 0,65,66
 122 1014 122 1014 122 1095 c 0,0,1
EndSplineSet
EndChar

StartChar: Uacute
Encoding: 218 218 130
Width: 1290
GlyphClass: 2
Flags: W
LayerCount: 2
Fore
SplineSet
1156.5 2473.5 m 128,-1,1
 1181 2490 1181 2490 1176 2546 c 0,2,3
 1172 2625 1172 2625 1092 2621.5 c 128,-1,4
 1012 2618 1012 2618 875 2534 c 1,5,6
 691 2429 691 2429 592 2378 c 0,7,8
 420 2288 420 2288 464 2261 c 0,9,10
 518 2231 518 2231 723 2320 c 0,11,12
 924 2409 924 2409 1023 2431 c 0,13,0
 1132 2457 1132 2457 1156.5 2473.5 c 128,-1,1
122 1095 m 0,14,15
 122 1404 122 1404 152 1676 c 0,16,17
 180 1938 180 1938 196 1999 c 128,-1,18
 212 2060 212 2060 258 2064 c 1,19,20
 298 2072 298 2072 319 2058 c 128,-1,21
 340 2044 340 2044 344 2003 c 0,22,23
 345 1991 345 1991 345 1978 c 0,24,25
 345 1944 345 1944 338 1899 c 0,26,27
 328 1836 328 1836 304 1732 c 0,28,29
 230 1441 230 1441 230 1088 c 0,30,31
 230 991 230 991 236 889 c 0,32,33
 262 418 262 418 376 418 c 0,34,35
 412 418 412 418 528 539 c 128,-1,36
 644 660 644 660 720 782 c 0,37,38
 806 918 806 918 843 1059 c 128,-1,39
 880 1200 880 1200 938 1622 c 0,40,41
 1004 2110 1004 2110 1024 2154 c 0,42,43
 1039 2196 1039 2196 1078 2196 c 0,44,45
 1081 2196 1081 2196 1085 2196 c 0,46,47
 1130 2192 1130 2192 1156 2142 c 0,48,49
 1170 2118 1170 2118 1170 2053 c 0,50,51
 1170 1859 1170 1859 1048 1306 c 0,52,53
 982 998 982 998 976 737 c 0,54,55
 975 713 975 713 975 690 c 0,56,57
 975 470 975 470 1028 406 c 0,58,59
 1044 388 1044 388 1044 366 c 0,60,61
 1044 340 1044 340 1020 308 c 0,62,63
 988 263 988 263 960 263 c 0,64,65
 917 263 917 263 884 372 c 0,66,67
 864 438 864 438 856 532 c 2,68,-1
 836 742 l 1,69,70
 750 558 750 558 574 394 c 0,71,72
 435 265 435 265 345 265 c 0,73,74
 321 265 321 265 300 274 c 0,75,76
 238 294 238 294 184 410 c 1,77,78
 134 528 134 528 124 930 c 0,79,80
 122 1014 122 1014 122 1095 c 0,14,15
EndSplineSet
EndChar

StartChar: Ucircumflex
Encoding: 219 219 131
Width: 1290
GlyphClass: 2
Flags: W
LayerCount: 2
Fore
SplineSet
216 2368 m 128,-1,1
 229 2393 229 2393 267 2411 c 0,2,3
 349 2450 349 2450 471.5 2531 c 128,-1,4
 594 2612 594 2612 601 2631 c 0,5,6
 612 2684 612 2684 650.5 2699 c 128,-1,7
 689 2714 689 2714 737 2688 c 128,-1,8
 785 2662 785 2662 821 2600 c 0,9,10
 864 2534 864 2534 990 2418 c 1,11,12
 1179 2259 1179 2259 1048 2259 c 0,13,14
 1034 2256 1034 2256 975 2303 c 128,-1,15
 916 2350 916 2350 852 2407 c 128,-1,16
 788 2464 788 2464 732 2510.5 c 128,-1,17
 676 2557 676 2557 662 2555 c 0,18,19
 598 2555 598 2555 426 2383 c 0,20,21
 335 2292 335 2292 278 2299 c 0,22,23
 234 2302 234 2302 218.5 2322.5 c 128,-1,0
 203 2343 203 2343 216 2368 c 128,-1,1
122 1095 m 0,24,25
 122 1404 122 1404 152 1676 c 0,26,27
 180 1938 180 1938 196 1999 c 128,-1,28
 212 2060 212 2060 258 2064 c 1,29,30
 298 2072 298 2072 319 2058 c 128,-1,31
 340 2044 340 2044 344 2003 c 0,32,33
 345 1991 345 1991 345 1978 c 0,34,35
 345 1944 345 1944 338 1899 c 0,36,37
 328 1836 328 1836 304 1732 c 0,38,39
 230 1441 230 1441 230 1088 c 0,40,41
 230 991 230 991 236 889 c 0,42,43
 262 418 262 418 376 418 c 0,44,45
 412 418 412 418 528 539 c 128,-1,46
 644 660 644 660 720 782 c 0,47,48
 806 918 806 918 843 1059 c 128,-1,49
 880 1200 880 1200 938 1622 c 0,50,51
 1004 2110 1004 2110 1024 2154 c 0,52,53
 1039 2196 1039 2196 1078 2196 c 0,54,55
 1081 2196 1081 2196 1085 2196 c 0,56,57
 1130 2192 1130 2192 1156 2142 c 0,58,59
 1170 2118 1170 2118 1170 2053 c 0,60,61
 1170 1859 1170 1859 1048 1306 c 0,62,63
 982 998 982 998 976 737 c 0,64,65
 975 713 975 713 975 690 c 0,66,67
 975 470 975 470 1028 406 c 0,68,69
 1044 388 1044 388 1044 366 c 0,70,71
 1044 340 1044 340 1020 308 c 0,72,73
 988 263 988 263 960 263 c 0,74,75
 917 263 917 263 884 372 c 0,76,77
 864 438 864 438 856 532 c 2,78,-1
 836 742 l 1,79,80
 750 558 750 558 574 394 c 0,81,82
 435 265 435 265 345 265 c 0,83,84
 321 265 321 265 300 274 c 0,85,86
 238 294 238 294 184 410 c 1,87,88
 134 528 134 528 124 930 c 0,89,90
 122 1014 122 1014 122 1095 c 0,24,25
EndSplineSet
EndChar

StartChar: Udieresis
Encoding: 220 220 132
Width: 1290
GlyphClass: 2
Flags: W
LayerCount: 2
Fore
SplineSet
745 2431 m 0,0,1
 745 2442 745 2442 773 2475 c 0,2,3
 812 2522 812 2522 844 2517.5 c 128,-1,4
 876 2513 876 2513 877 2513 c 0,5,6
 929 2513 929 2513 953 2499 c 0,7,8
 969 2489 969 2489 969 2427 c 0,9,10
 969 2422 969 2422 969 2418 c 0,11,12
 972 2399 972 2399 972 2384 c 0,13,14
 972 2364 972 2364 929 2342 c 1,15,-1
 871 2333 l 1,16,17
 824 2333 824 2333 779 2371 c 0,18,19
 745 2400 745 2400 745 2431 c 0,0,1
341 2414 m 0,20,21
 341 2440 341 2440 361 2463 c 0,22,23
 389 2495 389 2495 438 2501 c 0,24,25
 447 2502 447 2502 456 2502 c 0,26,27
 495 2502 495 2502 528 2481 c 0,28,29
 565 2457 565 2457 565 2410 c 0,30,31
 565 2405 565 2405 565 2401 c 0,32,33
 568 2382 568 2382 568 2367 c 0,34,35
 568 2316 568 2316 537 2311 c 0,36,37
 531 2310 531 2310 510 2310 c 0,38,39
 427 2310 427 2310 375 2354 c 0,40,41
 341 2383 341 2383 341 2414 c 0,20,21
122 1095 m 0,42,43
 122 1404 122 1404 152 1676 c 0,44,45
 180 1938 180 1938 196 1999 c 128,-1,46
 212 2060 212 2060 258 2064 c 1,47,48
 298 2072 298 2072 319 2058 c 128,-1,49
 340 2044 340 2044 344 2003 c 0,50,51
 345 1991 345 1991 345 1978 c 0,52,53
 345 1944 345 1944 338 1899 c 0,54,55
 328 1836 328 1836 304 1732 c 0,56,57
 230 1441 230 1441 230 1088 c 0,58,59
 230 991 230 991 236 889 c 0,60,61
 262 418 262 418 376 418 c 0,62,63
 412 418 412 418 528 539 c 128,-1,64
 644 660 644 660 720 782 c 0,65,66
 806 918 806 918 843 1059 c 128,-1,67
 880 1200 880 1200 938 1622 c 0,68,69
 1004 2110 1004 2110 1024 2154 c 0,70,71
 1039 2196 1039 2196 1078 2196 c 0,72,73
 1081 2196 1081 2196 1085 2196 c 0,74,75
 1130 2192 1130 2192 1156 2142 c 0,76,77
 1170 2118 1170 2118 1170 2053 c 0,78,79
 1170 1859 1170 1859 1048 1306 c 0,80,81
 982 998 982 998 976 737 c 0,82,83
 975 713 975 713 975 690 c 0,84,85
 975 470 975 470 1028 406 c 0,86,87
 1044 388 1044 388 1044 366 c 0,88,89
 1044 340 1044 340 1020 308 c 0,90,91
 988 263 988 263 960 263 c 0,92,93
 917 263 917 263 884 372 c 0,94,95
 864 438 864 438 856 532 c 2,96,-1
 836 742 l 1,97,98
 750 558 750 558 574 394 c 0,99,100
 435 265 435 265 345 265 c 0,101,102
 321 265 321 265 300 274 c 0,103,104
 238 294 238 294 184 410 c 1,105,106
 134 528 134 528 124 930 c 0,107,108
 122 1014 122 1014 122 1095 c 0,42,43
EndSplineSet
EndChar

StartChar: agrave
Encoding: 224 224 133
Width: 1444
GlyphClass: 2
Flags: W
LayerCount: 2
Fore
SplineSet
352 1675.5 m 128,-1,1
 327 1692 327 1692 332 1748 c 0,2,3
 337 1826 337 1826 416.5 1823 c 128,-1,4
 496 1820 496 1820 633 1736 c 1,5,6
 818 1631 818 1631 917 1580 c 0,7,8
 1088 1490 1088 1490 1044 1463 c 0,9,10
 990 1433 990 1433 786 1522 c 0,11,12
 585 1610 585 1610 485 1633 c 0,13,0
 377 1659 377 1659 352 1675.5 c 128,-1,1
125 636 m 0,14,15
 125 762 125 762 181 930 c 0,16,17
 247 1117 247 1117 363 1177 c 1,18,19
 523 1224 523 1224 650 1213 c 1,20,21
 806 1213 806 1213 868 1168 c 0,22,23
 934 1120 934 1120 969 1120 c 0,24,25
 1008 1120 1008 1120 1008 1180 c 0,26,27
 1008 1340 1008 1340 1086 1340 c 0,28,29
 1184 1340 1184 1340 1184 1181 c 0,30,31
 1184 1149 1184 1149 1180 1110 c 0,32,33
 1178 1090 1178 1090 1179 1068 c 0,34,35
 1178 854 1178 854 1318 406 c 1,36,37
 1314 354 1314 354 1257 357 c 0,38,39
 1218 357 1218 357 1187 409 c 0,40,41
 1148 475 1148 475 1129 561.5 c 128,-1,42
 1110 648 1110 648 1098 660 c 0,43,44
 1094 663 1094 663 1089 663 c 0,45,46
 1058 663 1058 663 970 570 c 1,47,48
 892 480 892 480 725 402 c 128,-1,49
 558 324 558 324 442 324 c 0,50,51
 352 324 352 324 252 391 c 128,-1,52
 152 458 152 458 136 532 c 0,53,54
 125 580 125 580 125 636 c 0,14,15
239 694 m 0,55,56
 239 622 239 622 277 553 c 0,57,58
 332 454 332 454 414 446 c 0,59,60
 439 445 439 445 463 445 c 0,61,62
 718 449 718 449 862 614 c 1,63,64
 994 744 994 744 1007 838 c 1,65,66
 1003 907 1003 907 1003 925 c 1,67,68
 988 981 988 981 928 1020 c 1,69,70
 882 1074 882 1074 804 1092 c 128,-1,71
 726 1110 726 1110 654 1118 c 1,72,73
 567 1115 567 1115 507 1098 c 0,74,75
 402 1070 402 1070 395 1036 c 1,76,77
 355 1036 355 1036 310.5 934 c 128,-1,78
 266 832 266 832 246 758 c 0,79,80
 239 726 239 726 239 694 c 0,55,56
EndSplineSet
EndChar

StartChar: aacute
Encoding: 225 225 134
Width: 1444
GlyphClass: 2
Flags: W
LayerCount: 2
Fore
SplineSet
1026.5 1595 m 128,-1,1
 1051 1611 1051 1611 1046 1668 c 0,2,3
 1041 1746 1041 1746 961.5 1742.5 c 128,-1,4
 882 1739 882 1739 745 1656 c 0,5,6
 560 1550 560 1550 461 1499 c 0,7,8
 290 1409 290 1409 334 1382 c 0,9,10
 388 1352 388 1352 593 1441 c 0,11,12
 793 1530 793 1530 893 1552 c 0,13,0
 1002 1579 1002 1579 1026.5 1595 c 128,-1,1
125 636 m 0,14,15
 125 762 125 762 181 930 c 0,16,17
 247 1117 247 1117 363 1177 c 1,18,19
 523 1224 523 1224 650 1213 c 1,20,21
 806 1213 806 1213 868 1168 c 0,22,23
 934 1120 934 1120 969 1120 c 0,24,25
 1008 1120 1008 1120 1008 1180 c 0,26,27
 1008 1340 1008 1340 1086 1340 c 0,28,29
 1184 1340 1184 1340 1184 1181 c 0,30,31
 1184 1149 1184 1149 1180 1110 c 0,32,33
 1178 1090 1178 1090 1179 1068 c 0,34,35
 1178 854 1178 854 1318 406 c 1,36,37
 1314 354 1314 354 1257 357 c 0,38,39
 1218 357 1218 357 1187 409 c 0,40,41
 1148 475 1148 475 1129 561.5 c 128,-1,42
 1110 648 1110 648 1098 660 c 0,43,44
 1094 663 1094 663 1089 663 c 0,45,46
 1058 663 1058 663 970 570 c 1,47,48
 892 480 892 480 725 402 c 128,-1,49
 558 324 558 324 442 324 c 0,50,51
 352 324 352 324 252 391 c 128,-1,52
 152 458 152 458 136 532 c 0,53,54
 125 580 125 580 125 636 c 0,14,15
239 694 m 0,55,56
 239 622 239 622 277 553 c 0,57,58
 332 454 332 454 414 446 c 0,59,60
 439 445 439 445 463 445 c 0,61,62
 718 449 718 449 862 614 c 1,63,64
 994 744 994 744 1007 838 c 1,65,66
 1003 907 1003 907 1003 925 c 1,67,68
 988 981 988 981 928 1020 c 1,69,70
 882 1074 882 1074 804 1092 c 128,-1,71
 726 1110 726 1110 654 1118 c 1,72,73
 567 1115 567 1115 507 1098 c 0,74,75
 402 1070 402 1070 395 1036 c 1,76,77
 355 1036 355 1036 310.5 934 c 128,-1,78
 266 832 266 832 246 758 c 0,79,80
 239 726 239 726 239 694 c 0,55,56
EndSplineSet
EndChar

